<svg xmlns="http://www.w3.org/2000/svg" viewBox="0 0 59.83 39.27">
  <defs>
    <style>
      .a {
        fill: #fff;
        stroke: #000;
        stroke-linejoin: round;
        stroke-width: 2px;
      }
    </style>
  </defs>
  <title>pictos-chim</title>
  <g>
    <path class="a" d="M56.32,21.56a66,66,0,0,0-26.48-5.9,66,66,0,0,0-26.48,5.9,18,18,0,0,0,5.58,5.36c4.07,2.68,10.69,3.36,20.9,3.36,10.41,0,16.86-.3,20.78-2.77C55.16,24.65,56.32,21.56,56.32,21.56Z"/>
    <path class="a" d="M56.32,21.56C49,18.71,43.76,20.47,29.13,20.47S8.7,18.3,3.35,21.56c-0.94-4.85,4.48-5.9,16.86-10.82,1.63-.65,7.36,1.83,9.15,1.83,1.44,0,7.29-2.32,8.6-1.74C49.51,15.94,55.58,15.78,56.32,21.56Z"/>
  </g>
</svg>
