<?xml version="1.0" encoding="utf-8"?>
<!-- Generator: Adobe Illustrator 19.2.0, SVG Export Plug-In . SVG Version: 6.00 Build 0)  -->
<svg version="1.1" id="Layer_1" xmlns="http://www.w3.org/2000/svg" xmlns:xlink="http://www.w3.org/1999/xlink" x="0px" y="0px"
	 viewBox="0 0 51.5 39.3" style="enable-background:new 0 0 51.5 39.3;" xml:space="preserve">
<style type="text/css">
	.st0{display:none;}
	
		.st1{display:inline;fill:#FFFFFF;stroke:#000000;stroke-width:2;stroke-linecap:round;stroke-linejoin:round;stroke-miterlimit:10;}
	.st2{display:inline;}
	.st3{fill:#FFFFFF;stroke:#000000;stroke-width:2;stroke-linecap:round;stroke-miterlimit:10;}
	.st4{fill:#FFFFFF;stroke:#000000;stroke-width:2;stroke-miterlimit:10;}
</style>
<g class="st0">
	<path class="st1" d="M31.2,1c-0.1,0-0.3,0.4-0.4,0.7c1,1.8,2.7,3.1,4.7,3.9c0.8,0.3,1.6,0.5,2.4,0.6c0.3,0,0.6,0,0.9,0
		c3.4,0,6.4-1.7,8-4.5C46.9,1.4,47,1,47.2,1"/>
</g>
<g class="st0">
	<path class="st1" d="M8.5,32.8c1.3,0.7,2.7,1.1,4.3,1.1"/>
	<path class="st1" d="M13.7,33.8c-0.3,0-0.6,0-0.9,0"/>
	<path class="st1" d="M5.7,30.4c0.8,1,1.8,1.8,2.9,2.4"/>
	<path class="st1" d="M16.1,33.3c-0.8,0.3-1.6,0.5-2.4,0.6"/>
	<path class="st1" d="M15,38.3c0.6-1,1-2.4,1.1-3.7c0-0.2,0-0.4,0-0.6s0-0.4,0-0.6"/>
</g>
<g class="st0">
	<path class="st1" d="M16.1,14.8c0,0.2,0,0.4,0,0.6c0,0.2,0,0.4,0,0.6c-0.1,1.4-0.5,2.8-1.2,4"/>
	<path class="st1" d="M5.5,24.5c0.5,0.1,1,0.1,1.4,0.1"/>
	<path class="st1" d="M6.9,24.6c3.4,0,6.4-1.9,8-4.6"/>
	<path class="st1" d="M16.1,33.3c2-0.8,3.6-2.2,4.7-4c0.8-1.3,1.2-2.9,1.2-4.6c0,0,0,0,0,0c0,0,0,0,0,0c-0.8-0.1-1.7-0.3-2.4-0.6
		c-2-0.8-3.6-2.2-4.7-4"/>
</g>
<g class="st0">
	<path class="st1" d="M12.8,15.4c0.3,0,0.6,0,0.9,0"/>
	<path class="st1" d="M5.5,11.7c1.7,2.2,4.3,3.7,7.3,3.7"/>
	<path class="st1" d="M16.1,14.8c-0.8,0.3-1.6,0.5-2.4,0.6"/>
</g>
<g class="st0">
	<path class="st1" d="M6.9,6.2C6.9,6.2,6.9,6.2,6.9,6.2c0.4,0,0.7,0,1-0.1"/>
	<path class="st1" d="M6.9,6.2c-0.5,0-0.9,0-1.4-0.1"/>
	<path class="st1" d="M8.1,6.1C8.4,6.1,8.6,6,8.8,6"/>
	<path class="st1" d="M9.4,5.9C9.2,5.9,9,5.9,8.8,6"/>
	<path class="st1" d="M14.9,1.6C14.9,1.6,14.9,1.6,14.9,1.6c-1.2,2-3.1,3.6-5.5,4.2"/>
	<path class="st1" d="M7.9,6.1c0.1,0,0.1,0,0.2,0"/>
</g>
<g class="st0">
	<path class="st1" d="M13.7,33.9C13.7,33.9,13.7,33.9,13.7,33.9C13.7,33.9,13.7,33.9,13.7,33.9c-0.3-0.1-0.6,0-0.9,0
		C13.1,33.9,13.4,33.9,13.7,33.9z"/>
	<path class="st1" d="M29.6,33.9C29.6,33.9,29.6,33.9,29.6,33.9C29.6,33.9,29.6,33.9,29.6,33.9c-0.3-0.1-0.6,0-0.9,0
		C29,33.9,29.3,33.9,29.6,33.9z"/>
	<path class="st1" d="M45.5,33.9C45.5,33.9,45.5,33.9,45.5,33.9c-0.3,0-0.6,0-0.8,0C44.9,33.9,45.2,33.9,45.5,33.9
		C45.5,33.9,45.5,33.9,45.5,33.9z"/>
	<path class="st1" d="M22,24.6C22,24.7,22,24.7,22,24.6c0.3,0,0.6,0,0.8,0C22.6,24.6,22.3,24.6,22,24.6C22,24.6,22,24.6,22,24.6z"/>
	<path class="st1" d="M37.9,24.6C37.9,24.7,37.9,24.7,37.9,24.6c0.3,0,0.6,0,0.8,0C38.5,24.6,38.2,24.6,37.9,24.6
		C37.9,24.6,37.9,24.6,37.9,24.6z"/>
	<path class="st1" d="M29.6,15.4C29.6,15.4,29.6,15.4,29.6,15.4c-0.3,0-0.6,0-0.8,0C29,15.4,29.3,15.4,29.6,15.4
		C29.6,15.4,29.6,15.4,29.6,15.4z"/>
	<path class="st1" d="M45.5,15.4C45.5,15.4,45.5,15.4,45.5,15.4c-0.3,0-0.6,0-0.8,0C44.9,15.4,45.2,15.4,45.5,15.4
		C45.5,15.4,45.5,15.4,45.5,15.4z"/>
	<path class="st1" d="M22,6.2c0.3,0,0.6,0,0.9,0C22.6,6.2,22.3,6.2,22,6.2C22,6.2,22,6.2,22,6.2C22,6.2,22,6.2,22,6.2z"/>
	<path class="st1" d="M37.9,6.2c0.3,0,0.6,0,0.9,0C38.5,6.2,38.2,6.2,37.9,6.2C37.9,6.2,37.9,6.2,37.9,6.2
		C37.9,6.2,37.9,6.2,37.9,6.2z"/>
	<path class="st1" d="M5.3,30.1c0.1,0.1,0.1,0.2,0.2,0.2"/>
	<line class="st1" x1="8.6" y1="32.9" x2="8.5" y2="32.8"/>
	<path class="st1" d="M8.6,32.9c1.3,0.6,2.7,1,4.2,1"/>
	<path class="st1" d="M8.6,32.9c-1.2-0.6-2.3-1.5-3.1-2.5"/>
	<line class="st1" x1="8.5" y1="32.8" x2="5.7" y2="30.4"/>
	<line class="st1" x1="5.5" y1="30.3" x2="5.7" y2="30.4"/>
	<line class="st1" x1="5.5" y1="30.3" x2="5.3" y2="30.1"/>
	<path class="st1" d="M12.8,33.9c0.3,0,0.6,0,0.9,0c0,0,0,0,0,0s0,0,0,0"/>
	<path class="st1" d="M5.5,30.2c0.1,0.1,0.1,0.1,0.2,0.2"/>
	<path class="st1" d="M6.9,24.6c-0.5,0-1,0-1.4-0.1"/>
	<path class="st1" d="M9.4,5.9C9.4,5.8,9.4,5.8,9.4,5.9"/>
	<path class="st1" d="M8.1,6.1c-0.1,0-0.1,0-0.2,0"/>
	<path class="st1" d="M9.5,5.8C9.4,5.8,9.4,5.8,9.5,5.8"/>
	<line class="st1" x1="5.5" y1="30.2" x2="5.5" y2="30.3"/>
	<line class="st1" x1="5.5" y1="6.1" x2="5.5" y2="6.1"/>
	<line class="st1" x1="5.5" y1="30.3" x2="5.5" y2="30.3"/>
	<line class="st1" x1="5.5" y1="24.5" x2="5.5" y2="24.5"/>
</g>
<g class="st0">
	<g class="st2">
		<g>
			<path class="st3" d="M15.5,8.1c-0.1-0.5-0.2-1.1-0.2-1.6c0-2.1,0.7-4,1.9-5.5"/>
			<path class="st3" d="M30.3,8.1c-0.1-0.5-0.2-1.1-0.2-1.6c0-2.1,0.7-4,1.9-5.5"/>
			<path class="st3" d="M15.5,8.1c1.5,0,2.9,0.4,4.1,0.9c1.2,0.6,2.3,1.3,3.1,2.3"/>
			<path class="st3" d="M22.7,11.4c1.8-2,4.4-3.3,7.4-3.3c0.1,0,0.1,0,0.2,0"/>
			<path class="st3" d="M37.6,11.4c-0.9-1-1.9-1.7-3.1-2.3c-1.3-0.6-2.6-0.9-4.1-0.9"/>
			<path class="st3" d="M20.8,20c-0.3-0.8-0.4-1.7-0.4-2.6c0-0.9,0.1-1.7,0.4-2.6c0.4-1.3,1.1-2.5,2-3.4"/>
			<path class="st3" d="M37.6,11.4c-0.9,1-1.6,2.2-2,3.4c-0.2,0.8-0.4,1.7-0.4,2.6c0,0.9,0.1,1.8,0.4,2.6"/>
			<path class="st3" d="M20.8,20c-1.2,0.6-2.3,1.3-3.1,2.3"/>
			<path class="st3" d="M32.5,22.3c-1.8-2-4.4-3.3-7.4-3.3c-0.1,0-0.1,0-0.2,0c-1.5,0-2.9,0.4-4.1,0.9"/>
			<path class="st3" d="M17.6,22.3c-1.1,1.2-1.9,2.7-2.2,4.3c-0.1,0.5-0.2,1.1-0.2,1.7c0,0.6,0.1,1.1,0.2,1.6"/>
			<path class="st3" d="M32.5,22.3c0.9-1,1.9-1.7,3.1-2.3"/>
			<path class="st3" d="M32.5,22.3c-1.1,1.2-1.9,2.7-2.2,4.3c-0.1,0.5-0.2,1.1-0.2,1.7c0,0.6,0.1,1.1,0.2,1.6"/>
			<path class="st3" d="M15.5,29.9c1.5,0,2.9,0.4,4.1,0.9c1.2,0.6,2.3,1.3,3.1,2.3"/>
			<path class="st3" d="M30.3,29.9c-0.1,0-0.1,0-0.2,0c-3,0-5.6,1.3-7.4,3.3"/>
			<path class="st3" d="M37.6,33.1c-0.9-1-1.9-1.7-3.1-2.3c-1.3-0.6-2.6-0.9-4.1-0.9"/>
			<path class="st3" d="M22.7,33.1c-0.9,1-1.6,2.2-2,3.4c-0.2,0.5-0.3,1.1-0.3,1.7"/>
			<path class="st3" d="M37.6,11.4c1.3-1.4,3-2.5,4.9-2.9"/>
			<path class="st3" d="M42.5,19.4c-0.8-0.2-1.7-0.3-2.6-0.3c-0.1,0-0.1,0-0.2,0c-1.5,0-2.9,0.4-4.1,0.9"/>
			<path class="st3" d="M42.5,30.2c-2,0.5-3.7,1.5-4.9,2.9"/>
			<path class="st3" d="M37.6,33.1c-0.9,1-1.6,2.2-2,3.4c-0.2,0.5-0.3,1.1-0.3,1.7"/>
		</g>
	</g>
	<g class="st2">
		<path class="st3" d="M15.5,8.1c-0.1,0-0.1,0-0.2,0c-2.4,0-4.6,0.8-6.3,2.2"/>
		<path class="st3" d="M17.6,22.3c-1.8-2-4.4-3.3-7.4-3.3c-0.1,0-0.1,0-0.2,0c-0.3,0-0.7,0-1,0.1"/>
		<path class="st3" d="M9,32.1c1.7-1.3,3.9-2.2,6.3-2.2c0.1,0,0.1,0,0.2,0"/>
	</g>
</g>
<g>
	<path class="st4" d="M24.3,5.4c-1.7-2-4.2-3.2-7-3.2s-5.3,1.3-7,3.2C9,7,8.2,9.1,8.2,11.3c0,0.5,0.1,1.1,0.1,1.6
		c1.4,0,2.7,0.4,3.9,0.9c1.1,0.6,2.1,1.3,2.9,2.3c1.7-2,4.2-3.2,7-3.2c0,0,0.1,0,0.1,0c-0.1-0.5-0.1-1.1-0.1-1.6
		C22.1,9.1,23,7,24.3,5.4z"/>
	<path class="st4" d="M38.3,5.4c-1.7-2-4.2-3.2-7-3.2s-5.3,1.3-7,3.2C23,7,22.1,9.1,22.1,11.3c0,0.5,0.1,1.1,0.1,1.6
		c1.4,0,2.7,0.4,3.9,0.9c1.1,0.6,2.1,1.3,2.9,2.3c1.7-2,4.2-3.2,7-3.2c0,0,0.1,0,0.1,0c-0.1-0.5-0.1-1.1-0.1-1.6
		C36.1,9.1,36.9,7,38.3,5.4z"/>
	<path class="st4" d="M27.3,19.6c0.4-1.3,1-2.4,1.8-3.4c-0.8-0.9-1.8-1.7-2.9-2.3c-1.2-0.6-2.5-0.9-3.9-0.9c0,0-0.1,0-0.1,0
		c-2.8,0-5.3,1.3-7,3.2c-0.8,1-1.5,2.1-1.8,3.4c-0.2,0.8-0.4,1.7-0.4,2.5c0,0.9,0.1,1.8,0.4,2.6c1.2-0.6,2.5-0.9,3.9-0.9
		c0.1,0,0.1,0,0.2,0c2.8,0,5.3,1.3,7,3.2c0.8-1,1.8-1.7,3-2.3c-0.2-0.8-0.4-1.7-0.4-2.6C26.9,21.2,27,20.4,27.3,19.6z"/>
	<path class="st4" d="M24.3,27c-1.7-2-4.2-3.2-7-3.2c-0.1,0-0.1,0-0.2,0c-1.4,0-2.7,0.4-3.9,0.9c-1.1,0.6-2.1,1.3-3,2.3
		c-1,1.2-1.7,2.7-2,4.3c-0.1,0.5-0.2,1.1-0.2,1.7c0,0.5,0.1,1.1,0.1,1.6c1.4,0,2.7,0.4,3.9,0.9c1.1,0.6,2.1,1.3,2.9,2.3
		c1.7-2,4.2-3.2,7-3.2c0,0,0.1,0,0.1,0c-0.1-0.5-0.1-1.1-0.1-1.6c0-0.6,0.1-1.1,0.2-1.7C22.6,29.6,23.3,28.2,24.3,27z"/>
	<path class="st4" d="M38.3,27c-1.7-2-4.2-3.2-7-3.2c-0.1,0-0.1,0-0.2,0c-1.4,0-2.7,0.4-3.9,0.9c-1.1,0.6-2.1,1.3-3,2.3
		c-1,1.2-1.7,2.7-2,4.3c-0.1,0.5-0.2,1.1-0.2,1.7c0,0.5,0.1,1.1,0.1,1.6c1.4,0,2.7,0.4,3.9,0.9c1.1,0.6,2.1,1.3,2.9,2.3
		c1.7-2,4.2-3.2,7-3.2c0,0,0.1,0,0.1,0c-0.1-0.5-0.1-1.1-0.1-1.6c0-0.6,0.1-1.1,0.2-1.7C36.5,29.6,37.2,28.2,38.3,27z"/>
	<path class="st4" d="M43.3,16.5c-0.9-1.1-2-2-3.2-2.7c-1.2-0.6-2.5-0.9-3.9-0.9c0,0-0.1,0-0.1,0c-2.8,0-5.3,1.3-7,3.2
		c-0.8,1-1.5,2.1-1.8,3.4c-0.2,0.8-0.4,1.7-0.4,2.5c0,0.9,0.1,1.8,0.4,2.6c1.2-0.6,2.5-0.9,3.9-0.9c0.1,0,0.1,0,0.2,0
		c2.8,0,5.3,1.3,7,3.2c0.9-1.1,2.1-2,3.5-2.5c-0.2-0.7-0.3-1.5-0.3-2.3C41.5,20,42.2,18.1,43.3,16.5z"/>
</g>
</svg>
