<svg xmlns="http://www.w3.org/2000/svg" viewBox="0 0 46.5 39.27">
  <defs>
    <style>
      .a, .b {
        fill: none;
        stroke: #000;
        stroke-miterlimit: 10;
      }

      .a {
        stroke-width: 2px;
      }

      .b {
        stroke-linecap: round;
        stroke-width: 1.6px;
      }
    </style>
  </defs>
  <title>pictos-chim</title>
  <g>
    <path class="a" d="M21.88-.61L29.34,12,36,23.9a15.14,15.14,0,0,1-1.4,4.63c-0.88,1.3-3.5,2.31-5.18,2.53-1.17.16-3.67,0.38-4.6,1.11a5.82,5.82,0,0,0-1.19,2.3,35.15,35.15,0,0,0-.35,4.31"/>
    <path class="b" d="M18.17,18.36a27.17,27.17,0,0,0-3.38,2.72c-0.93,1.13-2.52,3.75-2.7,5.21-0.15,1.24.25,4,1.16,4.88s4.4,1.36,5.77.86c1.13-.42,2.24-2.85,3.16-3.62s3.07-2.58,4.34-2.62c0.79,0,2.89,1.31,2.89,1.31s-0.49.41-.87,0.68a7.15,7.15,0,0,1-2.43.39"/>
  </g>
</svg>
