<svg xmlns="http://www.w3.org/2000/svg" viewBox="0 0 42.33 39.27">
  <defs>
    <style>
      .a {
        fill: #fff;
        stroke: #000;
        stroke-miterlimit: 10;
        stroke-width: 2px;
      }
    </style>
  </defs>
  <title>pictos-chim</title>
  <g>
    <path class="a" d="M5.13,12.3l1.82,3L18.6,1.33l18.29,12.8s2.88,3.94,2.21,5.17c-0.8,1.48-6.64,1.14-6.64,1.14s4.7,4.94,4.05,6.82-7,2.76-7,2.76,3.38,3.17,2.95,4.42c-0.57,1.65-6.64,2.21-6.64,2.21S18.29,35,16,33.95a63,63,0,0,1-6.73-4.65L6,34"/>
    <path class="a" d="M14.87,18.47S16.35,25.5,18,27c2.2,2,11.47,3,11.47,3"/>
    <path class="a" d="M20,10.59s1.85,5.95,3.36,7.24c1.79,1.54,9.08,2.62,9.08,2.62"/>
    <line class="a" x1="9.25" y1="29.29" x2="9.89" y2="22.89"/>
  </g>
</svg>
