<?xml version="1.0" encoding="utf-8"?>
<!-- Generator: Adobe Illustrator 16.0.0, SVG Export Plug-In . SVG Version: 6.00 Build 0)  -->
<!DOCTYPE svg PUBLIC "-//W3C//DTD SVG 1.1//EN" "http://www.w3.org/Graphics/SVG/1.1/DTD/svg11.dtd">
<svg version="1.1" id="Layer_1" xmlns="http://www.w3.org/2000/svg" xmlns:xlink="http://www.w3.org/1999/xlink" x="0px" y="0px"
	 width="76.986px" height="40px" viewBox="0 0 76.986 40" enable-background="new 0 0 76.986 40" xml:space="preserve">
<g>
	<g>
		<path d="M33.294,15.061v-4.744c0-0.114,0.059-0.202,0.171-0.262c0.114-0.061,0.25-0.09,0.41-0.09s0.296,0.03,0.411,0.09
			c0.114,0.06,0.171,0.146,0.171,0.262v4.088h1.701c0.104,0,0.186,0.049,0.246,0.148c0.06,0.1,0.09,0.219,0.09,0.357
			s-0.03,0.258-0.09,0.357c-0.062,0.1-0.142,0.148-0.246,0.148h-2.357c-0.14,0-0.259-0.029-0.356-0.093
			C33.344,15.264,33.294,15.175,33.294,15.061z"/>
		<path d="M37.016,15.061v-4.737c0-0.114,0.049-0.203,0.147-0.265c0.102-0.062,0.219-0.095,0.358-0.095h2.655
			c0.113,0,0.2,0.052,0.263,0.149c0.059,0.1,0.089,0.217,0.089,0.351c0,0.146-0.031,0.267-0.093,0.365
			c-0.062,0.101-0.148,0.147-0.259,0.147h-1.998v1.263h1.117c0.109,0,0.194,0.044,0.259,0.134c0.062,0.09,0.094,0.195,0.094,0.32
			c0,0.115-0.029,0.218-0.089,0.307c-0.062,0.089-0.147,0.134-0.264,0.134h-1.117v1.27h1.998c0.108,0,0.194,0.049,0.259,0.149
			c0.062,0.098,0.093,0.221,0.093,0.363c0,0.134-0.03,0.251-0.089,0.352c-0.062,0.1-0.146,0.148-0.263,0.148h-2.655
			c-0.141,0-0.259-0.029-0.358-0.093C37.067,15.264,37.016,15.175,37.016,15.061z"/>
		<path d="M40.936,14.524c0-0.14,0.052-0.277,0.151-0.416c0.104-0.141,0.221-0.209,0.354-0.209c0.074,0,0.158,0.031,0.25,0.091
			c0.093,0.061,0.178,0.127,0.254,0.2c0.077,0.074,0.186,0.141,0.325,0.201c0.139,0.061,0.286,0.092,0.438,0.092
			c0.193,0,0.362-0.043,0.507-0.125c0.146-0.082,0.218-0.205,0.218-0.369s-0.08-0.309-0.242-0.432
			c-0.16-0.125-0.357-0.238-0.589-0.342c-0.231-0.102-0.464-0.216-0.697-0.343s-0.432-0.308-0.593-0.542
			c-0.162-0.232-0.242-0.514-0.242-0.835c0-0.526,0.187-0.921,0.559-1.185c0.373-0.26,0.823-0.392,1.353-0.392
			c0.129,0,0.265,0.009,0.405,0.022c0.143,0.017,0.302,0.046,0.479,0.09s0.32,0.113,0.433,0.211
			c0.111,0.097,0.167,0.215,0.167,0.354c0,0.131-0.041,0.269-0.123,0.409c-0.082,0.142-0.193,0.212-0.34,0.212
			c-0.06,0-0.186-0.047-0.38-0.142c-0.192-0.095-0.408-0.142-0.642-0.142c-0.248,0-0.438,0.043-0.561,0.131
			c-0.125,0.086-0.187,0.191-0.187,0.315c0,0.115,0.058,0.22,0.175,0.313c0.116,0.095,0.263,0.175,0.438,0.24
			c0.174,0.067,0.362,0.154,0.568,0.263s0.397,0.224,0.57,0.351c0.174,0.126,0.319,0.307,0.437,0.533
			c0.117,0.229,0.178,0.49,0.178,0.784c0,0.513-0.171,0.911-0.517,1.196c-0.343,0.285-0.793,0.43-1.351,0.43
			c-0.482,0-0.902-0.102-1.261-0.299C41.116,14.998,40.936,14.772,40.936,14.524z"/>
		<g>
			<path d="M22.334,30.831c-1.065-2.9-1.842-5.96-2.59-8.918c-0.598-2.365-1.217-4.809-1.984-7.167
				c-0.109-0.324-0.307-0.597-0.617-0.856c-0.28-0.232-0.596-0.427-0.96-0.59c-0.396-0.175-0.715-0.251-0.982-0.232
				c-0.245,0.017-0.555,0.134-0.631,0.599l-0.002,0.013l-0.648,18.721c-0.012,0.152-0.015,0.242-0.011,0.3
				c0.032,0.479,0.251,0.812,0.651,0.993c0.205,0.094,0.42,0.141,0.643,0.141c0.158,0,0.326-0.023,0.498-0.07
				c0.328-0.091,0.771-0.272,0.852-0.839c0.126-0.903,0.164-1.528,0.204-2.856c1.024-0.123,1.597-0.188,2.605-0.297
				c0.312,1.131,0.47,1.645,0.724,2.299c0.068,0.172,0.225,0.375,0.583,0.375c0.104,0,0.225-0.016,0.365-0.049
				c0.361-0.086,0.671-0.233,0.947-0.455c0.322-0.26,0.461-0.549,0.417-0.887C22.389,31.005,22.372,30.942,22.334,30.831z
				 M18.378,25.998c-0.318-0.001-0.58-0.002-0.85-0.002c-0.229,0-0.462,0.001-0.746,0.002c-0.006-0.812-0.014-1.621-0.023-2.431
				c-0.016-1.438-0.029-2.914-0.027-4.385c0.195,0.815,0.394,1.631,0.59,2.449C17.664,23.063,18.02,24.541,18.378,25.998z"/>
			<path d="M28.765,24.156c-0.229-2.019-0.465-4.103-0.762-6.15c-0.041-0.258-0.266-0.396-0.458-0.488
				c-0.206-0.099-0.453-0.187-0.775-0.277c-0.34-0.098-0.577-0.143-0.771-0.146h-0.022c-0.062,0-0.241,0-0.354,0.129
				c-0.066,0.08-0.092,0.184-0.072,0.308c0.273,1.808,0.504,3.654,0.725,5.439c0.005,0.037,0.01,0.074,0.015,0.112
				c-1.021-2.51-2.47-5.833-2.488-5.875l-0.007-0.016c-0.279-0.512-0.543-0.842-0.828-1.041c-0.208-0.145-0.513-0.285-0.96-0.446
				c-0.343-0.123-0.595-0.175-0.802-0.166c-0.154,0.008-0.271,0.058-0.348,0.149c-0.079,0.095-0.107,0.224-0.085,0.384
				c0.338,2.5,0.673,5.001,1.007,7.502c0.34,2.543,0.681,5.088,1.025,7.632c0.025,0.199,0.137,0.453,0.506,0.529
				c0.09,0.019,0.188,0.029,0.293,0.029c0.148,0,0.313-0.021,0.506-0.061c0.307-0.062,0.55-0.15,0.743-0.271
				c0.254-0.158,0.358-0.358,0.319-0.621c-0.289-1.98-0.555-4.002-0.812-5.955c-0.012-0.096-0.025-0.189-0.038-0.285
				c1.109,2.543,2.833,6.025,2.854,6.066l0.014,0.023l0.019,0.02c0.227,0.25,0.526,0.277,0.733,0.277
				c0.143,0,0.311-0.016,0.543-0.052c0.294-0.046,0.514-0.103,0.688-0.181c0.262-0.113,0.374-0.287,0.341-0.513
				C29.222,28.207,28.99,26.147,28.765,24.156z"/>
			<path d="M31.798,24.349c-0.168-1.851-0.343-3.764-0.573-5.642c-0.032-0.239-0.25-0.353-0.458-0.431
				c-0.194-0.071-0.431-0.137-0.765-0.213c-0.244-0.056-0.522-0.111-0.753-0.119c-0.014,0-0.025,0-0.04,0
				c-0.104,0-0.254,0.013-0.35,0.123c-0.042,0.049-0.088,0.136-0.068,0.268c0.276,1.971,0.488,3.988,0.695,5.936
				c0.204,1.936,0.417,3.936,0.688,5.896c0.033,0.219,0.193,0.348,0.478,0.379c0.071,0.01,0.146,0.014,0.229,0.014
				c0.129,0,0.277-0.01,0.467-0.029c0.292-0.033,0.496-0.072,0.661-0.129c0.27-0.086,0.392-0.236,0.361-0.447
				C32.138,28.088,31.966,26.187,31.798,24.349z"/>
			<path d="M39.799,19.365c-0.215-0.056-0.477-0.065-0.754-0.076l-0.049-0.002c-0.375-0.015-0.674-0.024-0.864-0.011
				c-0.239,0.018-0.524,0.08-0.806,0.416L37.31,19.71l-1.048,2.269l-1.281-2.497l-0.021-0.03c-0.305-0.388-0.584-0.511-0.815-0.578
				c-0.224-0.065-0.539-0.12-0.931-0.185c-0.34-0.056-0.579-0.082-0.771-0.057c-0.31,0.04-0.445,0.241-0.406,0.598
				c0.166,1.62,0.302,3.27,0.437,4.864c0.157,1.911,0.321,3.887,0.535,5.829c0.024,0.202,0.181,0.32,0.458,0.353
				c0.078,0.009,0.162,0.015,0.26,0.015c0.108,0,0.233-0.007,0.404-0.019c0.222-0.017,0.45-0.037,0.646-0.082
				c0.273-0.062,0.402-0.196,0.386-0.397c-0.138-1.68-0.249-3.394-0.354-5.046c-0.01-0.12-0.017-0.241-0.023-0.362
				c0.062,0.169,0.124,0.337,0.187,0.507c0.241,0.653,0.482,1.31,0.728,1.961c0.164,0.448,0.425,0.681,0.778,0.687h0.014
				c0.248,0,0.579-0.115,0.756-0.668c0.105-0.334,0.209-0.668,0.312-1.002c0.127-0.408,0.257-0.824,0.389-1.24
				c0.004,0.147,0.008,0.296,0.012,0.445c0.039,1.532,0.08,3.118,0.102,4.677c0.002,0.292,0.312,0.337,0.417,0.352
				c0.187,0.027,0.403,0.033,0.631,0.037c0.078,0.002,0.152,0.002,0.225,0.002c0.173,0,0.3-0.004,0.41-0.017
				c0.104-0.013,0.422-0.049,0.436-0.341c0.048-1.79,0.039-3.607,0.032-5.366c-0.006-1.472-0.013-2.991,0.016-4.484
				C40.224,19.62,40.093,19.44,39.799,19.365z"/>
			<path d="M45.993,19.37l-0.012-0.026c-0.116-0.256-0.443-0.259-0.603-0.261h-0.029c-0.238,0-0.509,0.025-0.822,0.055
				c-0.312,0.029-0.607,0.057-0.865,0.102c-0.283,0.048-0.498,0.113-0.62,0.283l-0.021,0.029l-2.546,9.987
				c-0.021,0.057-0.032,0.098-0.034,0.139c-0.018,0.342,0.36,0.434,0.485,0.465c0.251,0.062,0.509,0.08,0.771,0.097
				c0.124,0.009,0.224,0.015,0.312,0.015c0.163,0,0.327-0.02,0.433-0.145c0.2-0.248,0.301-0.541,0.467-1.156
				c0.814,0.036,1.282,0.061,2.103,0.104c0.081,0.648,0.131,0.963,0.229,1.268c0.082,0.242,0.383,0.281,0.7,0.322
				c0.144,0.02,0.333,0.041,0.526,0.041c0.109,0,0.211-0.008,0.312-0.021c0.355-0.048,0.558-0.2,0.595-0.454
				c0.006-0.039,0.003-0.084-0.008-0.164L45.993,19.37z M44.734,26.499c-0.48-0.009-0.799-0.014-1.275-0.023
				c0.271-1.347,0.546-2.73,0.854-4.103c0.146,1.206,0.261,2.42,0.373,3.604L44.734,26.499z"/>
			<path d="M54.542,24.808c0.251-2.449,0.511-4.981,0.83-7.461c0.021-0.152-0.008-0.271-0.084-0.358
				c-0.076-0.089-0.188-0.134-0.351-0.136c-0.191,0-0.42,0.053-0.741,0.166c-0.315,0.111-0.558,0.225-0.762,0.352
				c-0.18,0.109-0.389,0.273-0.432,0.561c-0.329,2.317-0.562,4.689-0.79,6.982c-0.093,0.937-0.188,1.899-0.288,2.851
				c-0.166,1.541-0.619,1.748-1.043,1.748c-0.042,0-0.086-0.003-0.131-0.008c-0.27-0.025-0.452-0.107-0.574-0.258
				c-0.206-0.256-0.271-0.752-0.191-1.52c0.086-0.875,0.166-1.766,0.243-2.627c0.188-2.131,0.387-4.334,0.704-6.476
				c0.021-0.147-0.024-0.24-0.068-0.292c-0.099-0.116-0.254-0.13-0.365-0.131c-0.178,0-0.395,0.033-0.727,0.109
				c-0.33,0.074-0.562,0.144-0.754,0.221c-0.189,0.076-0.411,0.195-0.451,0.438l-0.817,8.663c-0.146,1.628,0.016,2.49,0.562,2.978
				c0.515,0.457,1.25,0.63,2.155,0.81c0.45,0.089,0.927,0.171,1.35,0.171c0.454,0,0.81-0.095,1.086-0.288
				c0.985-0.692,1.225-2.206,1.322-3.442C54.333,26.841,54.437,25.824,54.542,24.808z"/>
			<path d="M62.819,13.192c-0.305-0.105-0.637-0.051-1.015,0.174c-0.331,0.195-0.556,0.462-0.7,0.841l-1.986,5.618l-1.054-3.96
				l-0.014-0.022c-0.082-0.14-0.212-0.214-0.379-0.214c-0.115,0-0.254,0.037-0.431,0.117c-0.338,0.151-0.647,0.356-0.944,0.625
				c-0.346,0.312-0.525,0.614-0.565,0.953c-0.021,0.177,0.003,0.358,0.074,0.544l1.402,6.147l-2.864,6.588
				c-0.104,0.186-0.167,0.352-0.186,0.506c-0.044,0.363,0.088,0.675,0.405,0.953c0.271,0.239,0.575,0.399,0.927,0.487
				c0.112,0.028,0.209,0.042,0.293,0.042c0.159,0,0.288-0.049,0.381-0.146l0.023-0.021l2.195-4.697l1.312,5.608l0.009,0.024
				c0.094,0.24,0.296,0.402,0.621,0.496c0.146,0.041,0.288,0.062,0.425,0.062c0.243,0,0.479-0.064,0.701-0.199
				c0.386-0.229,0.595-0.613,0.622-1.146c0.01-0.218-0.021-0.474-0.092-0.75l-1.656-8.101l2.814-8.655
				c0.105-0.325,0.168-0.614,0.181-0.861C63.358,13.526,63.068,13.28,62.819,13.192z"/>
		</g>
		<path d="M23.328,39.594v-4.752c0-0.095,0.048-0.177,0.142-0.247c0.097-0.068,0.219-0.104,0.366-0.104h1.32
			c0.557,0,1.002,0.143,1.335,0.426c0.333,0.284,0.5,0.729,0.5,1.336v1.932c0,0.606-0.167,1.054-0.5,1.336
			c-0.333,0.283-0.778,0.427-1.335,0.427h-1.32c-0.147,0-0.271-0.035-0.366-0.104C23.375,39.771,23.328,39.688,23.328,39.594z
			 M24.493,38.931h0.664c0.447,0,0.671-0.25,0.671-0.746v-1.933c0-0.497-0.223-0.746-0.671-0.746h-0.664V38.931z"/>
		<path d="M27.64,38.228v-3.387c0-0.115,0.056-0.201,0.167-0.262c0.109-0.061,0.25-0.09,0.414-0.09c0.157,0,0.295,0.029,0.408,0.09
			c0.115,0.061,0.171,0.146,0.171,0.262v3.387c0,0.496,0.239,0.746,0.719,0.746c0.477,0,0.716-0.25,0.716-0.746v-3.387
			c0-0.115,0.056-0.201,0.168-0.262c0.111-0.061,0.25-0.09,0.414-0.09c0.16,0,0.296,0.029,0.41,0.09
			c0.113,0.061,0.171,0.146,0.171,0.262v3.387c0,0.606-0.171,1.054-0.516,1.336c-0.343,0.283-0.798,0.426-1.363,0.426
			c-0.572,0-1.028-0.143-1.369-0.426C27.811,39.28,27.64,38.835,27.64,38.228z"/>
		<path d="M33.676,39.586v-4.737c0-0.113,0.052-0.201,0.149-0.265c0.099-0.062,0.219-0.094,0.358-0.094h2.588
			c0.113,0,0.202,0.051,0.262,0.149c0.06,0.101,0.09,0.217,0.09,0.351c0,0.145-0.03,0.267-0.094,0.366
			c-0.062,0.099-0.147,0.147-0.257,0.147h-1.934v1.263h1.126c0.109,0,0.195,0.043,0.259,0.133c0.062,0.091,0.094,0.197,0.094,0.322
			c0,0.112-0.03,0.215-0.089,0.305c-0.062,0.091-0.147,0.136-0.263,0.136h-1.125v1.925c0,0.114-0.057,0.202-0.172,0.266
			c-0.112,0.062-0.251,0.092-0.41,0.092c-0.158,0-0.296-0.029-0.408-0.092C33.733,39.789,33.676,39.7,33.676,39.586z"/>
		<path d="M37.602,38.228v-3.387c0-0.115,0.055-0.201,0.167-0.262c0.11-0.061,0.25-0.09,0.414-0.09c0.158,0,0.296,0.029,0.409,0.09
			c0.114,0.061,0.173,0.146,0.173,0.262v3.387c0,0.496,0.237,0.746,0.717,0.746c0.477,0,0.715-0.25,0.715-0.746v-3.387
			c0-0.115,0.056-0.201,0.169-0.262c0.111-0.061,0.25-0.09,0.413-0.09c0.16,0,0.297,0.029,0.41,0.09
			c0.115,0.061,0.172,0.146,0.172,0.262v3.387c0,0.606-0.172,1.054-0.514,1.336c-0.346,0.283-0.801,0.426-1.365,0.426
			c-0.573,0-1.028-0.143-1.37-0.426C37.772,39.28,37.602,38.835,37.602,38.228z"/>
		<path d="M41.869,34.99c0-0.136,0.03-0.252,0.09-0.351c0.062-0.102,0.146-0.149,0.264-0.149h3.222c0.114,0,0.202,0.05,0.262,0.149
			c0.062,0.099,0.09,0.215,0.09,0.351c0,0.146-0.029,0.267-0.094,0.366c-0.062,0.099-0.147,0.147-0.258,0.147h-1.029v4.077
			c0,0.115-0.058,0.205-0.171,0.27c-0.115,0.062-0.252,0.094-0.41,0.094c-0.159,0-0.296-0.031-0.41-0.094
			c-0.113-0.064-0.172-0.152-0.172-0.27v-4.077h-1.027c-0.109,0-0.195-0.049-0.259-0.147C41.9,35.258,41.869,35.136,41.869,34.99z"
			/>
		<path d="M46.304,38.228v-3.387c0-0.115,0.055-0.201,0.168-0.262c0.109-0.061,0.25-0.09,0.412-0.09c0.159,0,0.297,0.029,0.41,0.09
			c0.114,0.061,0.171,0.146,0.171,0.262v3.387c0,0.496,0.239,0.746,0.719,0.746c0.478,0,0.717-0.25,0.717-0.746v-3.387
			c0-0.115,0.056-0.201,0.168-0.262c0.111-0.061,0.25-0.09,0.414-0.09c0.158,0,0.295,0.029,0.41,0.09
			c0.112,0.061,0.172,0.146,0.172,0.262v3.387c0,0.606-0.172,1.054-0.518,1.336c-0.343,0.283-0.798,0.426-1.362,0.426
			c-0.572,0-1.028-0.143-1.369-0.426C46.474,39.28,46.304,38.835,46.304,38.228z"/>
		<path d="M50.784,39.586v-4.744c0-0.095,0.033-0.177,0.1-0.247c0.068-0.068,0.153-0.104,0.26-0.104h1.544
			c1.223,0,1.835,0.533,1.835,1.598c0,0.775-0.304,1.28-0.902,1.514l0.909,1.649c0.022,0.035,0.037,0.08,0.037,0.134
			c0,0.146-0.078,0.281-0.235,0.411c-0.155,0.128-0.321,0.192-0.496,0.192c-0.174,0-0.298-0.071-0.373-0.217l-1.021-1.984h-0.492
			v1.799c0,0.114-0.058,0.203-0.172,0.266s-0.251,0.095-0.41,0.095c-0.158,0-0.295-0.031-0.41-0.095
			C50.841,39.789,50.784,39.7,50.784,39.586z M51.946,36.894h0.739c0.219,0,0.386-0.055,0.499-0.16s0.172-0.284,0.172-0.532
			c0-0.249-0.059-0.429-0.172-0.533c-0.113-0.106-0.28-0.16-0.499-0.16h-0.739V36.894z"/>
	</g>
	<g>
		<path d="M75.58,40H60.817c-0.773,0-1.4-0.626-1.4-1.399c0-0.772,0.627-1.399,1.4-1.399h13.336
			c-0.153-4.003-0.961-7.905-2.407-11.62c-0.771-1.982-1.741-3.927-2.877-5.776c-0.533-0.865-1.14-1.76-1.804-2.654
			c-0.322-0.434-0.671-0.877-1.037-1.321c-0.139-0.169-0.235-0.368-0.284-0.581c-0.063-0.287-0.029-0.525-0.009-0.646l0.488-4.992
			l-5.016,0.798c-0.636,0.104-1.074-0.255-1.232-0.392L59.872,9.94c-0.064-0.051-0.133-0.101-0.198-0.148
			c-0.269-0.198-0.49-0.359-0.705-0.509c-1.837-1.292-3.782-2.407-5.784-3.312c-4.065-1.838-8.396-2.888-12.872-3.119
			c-4.45-0.232-8.899,0.379-13.229,1.817c-2.032,0.677-4.075,1.588-6.072,2.711c-0.935,0.526-1.87,1.113-2.784,1.746
			c-0.494,0.342-0.983,0.706-1.354,0.983c-0.254,0.19-0.68,0.395-1.267,0.273l-4.856-0.771l0.506,5.171
			c0.031,0.32-0.025,0.796-0.478,1.251c-0.151,0.188-0.312,0.392-0.491,0.623c0,0.001-0.001,0.002-0.002,0.004
			c-2.683,3.462-4.683,7.331-5.945,11.499c-0.89,2.931-1.396,5.968-1.517,9.042h14.05c0.773,0,1.4,0.627,1.4,1.398
			c0,0.774-0.626,1.401-1.4,1.401H1.397c-0.773,0-1.4-0.627-1.4-1.401c0-3.828,0.562-7.617,1.665-11.254
			c1.355-4.474,3.496-8.624,6.363-12.339C8.03,15,8.035,14.995,8.04,14.989c0.004-0.006,0.008-0.012,0.012-0.016l0.025-0.033
			c0.12-0.154,0.233-0.299,0.342-0.438L7.791,8.079C7.749,7.645,7.909,7.219,8.225,6.923c0.314-0.297,0.75-0.432,1.18-0.362
			l6.22,0.987c0.31-0.229,0.656-0.479,1.013-0.727c0.984-0.683,1.995-1.315,3.007-1.884c2.15-1.213,4.358-2.196,6.562-2.93
			c4.66-1.55,9.458-2.208,14.256-1.959c4.826,0.251,9.495,1.383,13.88,3.365c2.162,0.977,4.266,2.18,6.244,3.573
			c0.231,0.161,0.475,0.337,0.761,0.55c0.005,0.003,0.01,0.006,0.015,0.01l6.22-0.988c0.428-0.067,0.863,0.066,1.18,0.363
			c0.317,0.297,0.478,0.725,0.436,1.156L68.568,14.5c0.262,0.329,0.515,0.657,0.754,0.979c0.712,0.959,1.365,1.922,1.938,2.856
			c1.227,1.992,2.27,4.086,3.103,6.228c1.742,4.473,2.626,9.193,2.626,14.037C76.98,39.374,76.353,40,75.58,40z"/>
	</g>
</g>
</svg>
