<?xml version="1.0" encoding="UTF-8" standalone="no"?>
<!-- Generator: Adobe Illustrator 16.0.0, SVG Export Plug-In . SVG Version: 6.00 Build 0)  -->

<svg
   xmlns:dc="http://purl.org/dc/elements/1.1/"
   xmlns:cc="http://creativecommons.org/ns#"
   xmlns:rdf="http://www.w3.org/1999/02/22-rdf-syntax-ns#"
   xmlns:svg="http://www.w3.org/2000/svg"
   xmlns="http://www.w3.org/2000/svg"
   xmlns:sodipodi="http://sodipodi.sourceforge.net/DTD/sodipodi-0.dtd"
   xmlns:inkscape="http://www.inkscape.org/namespaces/inkscape"
   version="1.1"
   id="Layer_1"
   x="0px"
   y="0px"
   width="517.96802"
   height="325.26901"
   viewBox="-24.811 46.444 517.96803 325.269"
   enable-background="new -24.811 46.444 456.968 277.269"
   xml:space="preserve"
   inkscape:version="0.91 r13725"
   sodipodi:docname="1.svg"><metadata
     id="metadata88"><rdf:RDF><cc:Work
         rdf:about=""><dc:format>image/svg+xml</dc:format><dc:type
           rdf:resource="http://purl.org/dc/dcmitype/StillImage" /><dc:title></dc:title></cc:Work></rdf:RDF></metadata><defs
     id="defs86" /><sodipodi:namedview
     pagecolor="#ffffff"
     bordercolor="#666666"
     borderopacity="1"
     objecttolerance="10"
     gridtolerance="10"
     guidetolerance="10"
     inkscape:pageopacity="0"
     inkscape:pageshadow="2"
     inkscape:window-width="1855"
     inkscape:window-height="1111"
     id="namedview84"
     showgrid="false"
     inkscape:zoom="2"
     inkscape:cx="276.3704"
     inkscape:cy="147.32075"
     inkscape:window-x="65"
     inkscape:window-y="24"
     inkscape:window-maximized="1"
     inkscape:current-layer="Layer_1" /><path
     d="m 479.11165,353.85381 c -1.10752,0 -2.16337,0.25016 -3.11859,0.69957 l -32.53186,-35.35497 -63.88934,0 -9.51566,10.34067 c -0.18332,-0.0158 -0.36389,-0.0262 -0.54171,-0.0262 -4.35016,0 -7.88985,3.84835 -7.88985,8.57678 0,4.72918 3.54038,8.57828 7.88985,8.57828 4.35087,0 7.88986,-3.84836 7.88986,-8.57828 0,-2.38406 -0.92213,-4.59211 -2.43766,-6.16949 l 6.68445,-7.26379 59.7294,0 30.86677,33.54763 c -0.65404,1.24858 -1.02965,2.6904 -1.02965,4.2266 0,4.72843 3.54175,8.57603 7.8933,8.57603 4.35018,0 7.89192,-3.8476 7.89192,-8.57603 6.9e-4,-4.72992 -3.54106,-8.57678 -7.89123,-8.57678 z M 369.51449,341.20997 c -1.58099,0 -2.86771,-1.39989 -2.86771,-3.12108 0,-1.7197 1.28672,-3.11883 2.86771,-3.11883 0.20332,0 0.4404,0.0412 0.74089,0.12958 1.25226,0.36851 2.12822,1.59761 2.12822,2.98925 9.5e-4,1.72196 -1.28673,3.12108 -2.86911,3.12108 z m 109.59716,24.3387 c -1.58169,0 -2.86978,-1.39839 -2.86978,-3.11808 0,-1.7197 1.28809,-3.11958 2.86978,-3.11958 1.58307,0 2.87116,1.39913 2.87116,3.11958 0,1.71895 -1.28809,3.11808 -2.87116,3.11808 z"
     id="path6"
     inkscape:connector-curvature="0"
     style="fill:#f37b39" /><path
     d="m 453.86088,111.62675 c -4.35155,0 -7.89192,3.84912 -7.89192,8.5768 0,4.72918 3.54037,8.57755 7.89192,8.57755 4.35017,0 7.89123,-3.84837 7.89123,-8.57755 0,-4.72844 -3.54106,-8.5768 -7.89123,-8.5768 z m 0,11.69713 c -1.58169,0 -2.86979,-1.39839 -2.86979,-3.11883 0,-1.72045 1.2874,-3.12033 2.86979,-3.12033 1.58238,0 2.86979,1.39988 2.86979,3.12033 0,1.72044 -1.28741,3.11883 -2.86979,3.11883 z"
     id="path8"
     inkscape:connector-curvature="0"
     style="fill:#f37b39" /><path
     d="m 24.961196,308.99066 c -3.473517,0 -6.428077,2.45222 -7.480472,5.84818 l -29.522162,0 0,-41.40987 c 3.1240958,-1.14221 5.3811988,-4.35317 5.3811988,-8.12962 0,-4.72992 -3.5410638,-8.57753 -7.8919258,-8.57753 -4.351556,0 -7.891924,3.84761 -7.891924,8.57753 0,3.77569 2.256408,6.98665 5.380513,8.13037 l 0,78.87251 c -3.172343,1.11077 -5.474234,4.35168 -5.474234,8.16334 0,4.72842 3.540367,8.57828 7.891229,8.57828 4.351549,0 7.8919198,-3.84986 7.8919198,-8.57828 0,-3.73675 -2.211615,-6.92224 -5.2867768,-8.09518 l 0,-32.07435 29.522162,0 c 1.051017,3.39521 4.005577,5.84893 7.480472,5.84893 4.350171,0 7.891233,-3.84911 7.891233,-8.57753 0,-4.72842 -3.541062,-8.57678 -7.891233,-8.57678 z m -39.513361,-46.81164 c 1.582376,0 2.869796,1.39988 2.869796,3.12033 0,1.71969 -1.28742,3.11957 -2.869796,3.11957 -1.582377,0 -2.87048,-1.39988 -2.87048,-3.11957 0,-1.72045 1.287409,-3.12033 2.87048,-3.12033 z m -0.09448,101.40687 c -1.582377,0 -2.869786,-1.39987 -2.869786,-3.12032 0,-1.72045 1.287409,-3.11883 2.869786,-3.11883 1.582376,0 2.869796,1.39838 2.869796,3.11883 0,1.72045 -1.28742,3.12032 -2.869796,3.12032 z m 39.60778,-42.89887 c -1.581692,0 -2.869787,-1.39913 -2.869787,-3.11958 0,-1.7197 1.287406,-3.11957 2.869787,-3.11957 1.582381,0 2.86979,1.39987 2.86979,3.11957 0,1.72045 -1.287409,3.11958 -2.86979,3.11958 z"
     id="path10"
     inkscape:connector-curvature="0"
     style="fill:#f37b39" /><path
     style="fill:#f37b39"
     inkscape:connector-curvature="0"
     id="path78"
     d="m 208.08413,51.10355 c -1.49003,-1.619335 -3.47144,-2.512142 -5.58107,-2.512142 -2.10961,0 -4.08965,0.891309 -5.58244,2.512142 -2.4549,2.668685 -2.94353,6.672077 -1.479,9.880044 l -8.27718,8.994718 -103.326892,0 -9.585263,-10.166899 -2.487981,-2.63873 -2.67957,0 -29.919833,0 -6.648622,0 -14.61084,0 -6.89e-4,0 0,-5.848178 -15.7845323,0 0,17.15431 15.7845323,0 0,-5.848174 14.61015,0 0.218474,0 -27.4552842,27.494225 -9.539776,0 c -1.051705,-3.395206 -4.0069548,-5.84743 -7.4804738,-5.84743 -4.35155,0 -7.891922,3.847605 -7.891922,8.576778 0,4.729174 3.540372,8.578276 7.891922,8.578276 3.474899,0 6.4287688,-2.452971 7.4804738,-5.848928 l 11.501901,0 32.9040262,-32.952176 29.586953,0 12.114589,12.805628 107.399317,0 0,-7.55e-4 9.74172,-10.585591 c 1.07651,0.584969 2.27501,0.896554 3.51624,0.897298 0,0 0,0 9.5e-4,0 2.10686,0 4.08828,-0.892058 5.57969,-2.512883 3.07862,-3.345781 3.07725,-8.786501 0,-12.131533 z m -195.199444,11.918063 -5.7409572,0 0,-6.239902 5.7409572,0 0,6.239902 z m -24.62478,32.952184 c -1.583069,0 -2.870478,-1.399881 -2.870478,-3.120333 0,-1.719701 1.287409,-3.118832 2.870478,-3.118832 1.583071,0 2.86979,1.399131 2.870479,3.118832 0,1.721202 -1.288097,3.120333 -2.870479,3.120333 z M 204.53204,59.373993 c -0.54239,0.589465 -1.26259,0.913774 -2.02828,0.913774 l -9.6e-4,0 c -0.76568,0 -1.48726,-0.325063 -2.02965,-0.914528 -1.11855,-1.216366 -1.11855,-3.19447 9.5e-4,-4.410848 0.54101,-0.589465 1.2626,-0.913773 2.02828,-0.913773 0.76846,0 1.48867,0.324308 2.02967,0.913029 1.11856,1.217122 1.11994,3.195226 0,4.412346 z" /><path
     d="m 485.42636,88.985576 -5.02076,0 -1.85736,0 -9.21241,-10.011108 0,-8.883116 c 3.12272,-1.142972 5.37912,-4.354682 5.37912,-8.129635 0,-4.729173 -3.53899,-8.576779 -7.89053,-8.576779 -4.35156,0 -7.89055,3.847606 -7.89055,8.576779 0,3.775708 2.25573,6.986663 5.38051,8.129635 l 0,11.143596 10.71072,11.64093 0,13.263272 15.78521,0 0,-17.153574 -5.38395,0 z M 466.82372,65.08205 c -1.58169,0 -2.86978,-1.399129 -2.86978,-3.120333 0,-1.719697 1.28809,-3.119574 2.86978,-3.119574 1.5817,0 2.86842,1.399877 2.86842,3.119574 0,1.72045 -1.28672,3.120333 -2.86842,3.120333 z m 18.96377,35.59989 -5.74096,0 0,-6.237657 5.74096,0 0,6.237657 z"
     id="path82"
     inkscape:connector-curvature="0"
     style="fill:#f37b39" /><path
     d="m 434.68934,71.135762 c -4.35155,0 -7.89192,3.84911 -7.89192,8.57678 0,4.72917 3.54037,8.57753 7.89192,8.57753 4.35017,0 7.89123,-3.84836 7.89123,-8.57753 0,-4.72843 -3.54106,-8.57678 -7.89123,-8.57678 z m 0,11.6971 c -1.58169,0 -2.86979,-1.39838 -2.86979,-3.11882 0,-1.72045 1.2874,-3.12033 2.86979,-3.12033 1.58238,0 2.86979,1.39988 2.86979,3.12033 0,1.72044 -1.28741,3.11882 -2.86979,3.11882 z"
     id="path8-3"
     inkscape:connector-curvature="0"
     style="fill:#f37b39" /></svg>