<?xml version="1.0" encoding="utf-8"?>
<!-- Generator: Adobe Illustrator 19.2.0, SVG Export Plug-In . SVG Version: 6.00 Build 0)  -->
<svg version="1.1" id="Layer_3" xmlns="http://www.w3.org/2000/svg" xmlns:xlink="http://www.w3.org/1999/xlink" x="0px" y="0px"
	 viewBox="0 0 94.3 94.3" style="enable-background:new 0 0 94.3 94.3;" xml:space="preserve">
<title>chimere_picto_</title>
<path d="M47.2,42.4c-19.5,0-35.3,19.3-35.3,19.3S27.7,81,47.2,81s35.3-19.3,35.3-19.3S66.6,42.4,47.2,42.4z M47.2,74.6
	c-7.3,0-13.3-6-13.2-13.3S40,48,47.3,48.1c7.3,0,13.2,5.9,13.2,13.2S54.5,74.6,47.2,74.6L47.2,74.6z"/>
<g>
	<path d="M68.2,38.1H68c-1.3,0-2.3-1-2.3-2.3V14.7c0-1.3,1-2.3,2.3-2.3h0.2c1.3,0,2.3,1,2.3,2.3v21.1C70.5,37.1,69.5,38.1,68.2,38.1
		z"/>
	<path d="M55.3,25.4v-0.2c0-1.3,1-2.3,2.3-2.3h21.1c1.3,0,2.3,1,2.3,2.3v0.2c0,1.3-1,2.3-2.3,2.3H57.6
		C56.3,27.7,55.3,26.7,55.3,25.4z"/>
</g>
</svg>
