<?xml version="1.0" encoding="utf-8"?>
<!-- Generator: Adobe Illustrator 19.2.0, SVG Export Plug-In . SVG Version: 6.00 Build 0)  -->
<svg version="1.1" id="pictos" xmlns="http://www.w3.org/2000/svg" xmlns:xlink="http://www.w3.org/1999/xlink" x="0px" y="0px"
	 viewBox="0 0 65.7 44.6" style="enable-background:new 0 0 65.7 44.6;" xml:space="preserve">
<style type="text/css">
	.st0{display:none;fill:#009F1B;stroke:#FFFFFF;stroke-width:1.966;stroke-linejoin:round;stroke-miterlimit:10;}
	.st1{display:none;fill:#C2C2C2;}
	.st2{fill:none;stroke:#FFFFFF;stroke-width:1.966;stroke-linejoin:round;stroke-miterlimit:10;}
	.st3{fill:none;stroke:#FFFFFF;stroke-width:1.966;stroke-miterlimit:10;}
	.st4{fill:none;stroke:#FFFFFF;stroke-width:1.966;stroke-linecap:round;stroke-miterlimit:10;}
	.st5{fill:#FFFFFF;}
	.st6{fill:none;stroke:#FFFFFF;stroke-width:1.966;stroke-linecap:round;stroke-linejoin:round;stroke-miterlimit:10;}
	.st7{fill:none;stroke:#000000;stroke-width:1.966;stroke-linejoin:round;stroke-miterlimit:10;}
	.st8{fill:none;stroke:#000000;stroke-width:1.966;stroke-linecap:round;stroke-linejoin:round;stroke-miterlimit:10;}
</style>
<rect x="-2.6" y="-11" class="st0" width="136.2" height="61.7"/>
<rect x="-438.9" y="-516.9" class="st1" width="1278.5" height="797.1"/>
<g>
	<path class="st2" d="M51.5,37.6H14.1c-3.1,0-5.7-2.5-5.7-5.7V12.6C8.4,9.5,11,7,14.1,7h37.4c3.1,0,5.7,2.5,5.7,5.7v19.3
		C57.2,35.1,54.7,37.6,51.5,37.6z"/>
	<path class="st6" d="M10.2,8.5l21.2,16.9c0.8,0.7,2.1,0.7,2.9,0L55.5,8.5"/>
	<line class="st2" x1="39.7" y1="20.6" x2="55.6" y2="36"/>
	<line class="st2" x1="10.1" y1="36" x2="26.2" y2="20.8"/>
</g>
</svg>
