<svg id="pictos" xmlns="http://www.w3.org/2000/svg" viewBox="0 0 94.65 49.01">
  <defs>
    <style>
      .cls-1 {
        fill: none;
        stroke: #fff;
        stroke-linejoin: round;
        stroke-width: 1.97px;
      }
    </style>
  </defs>
  <title>pictos</title>
  <path class="cls-1" d="M87.25,15.26c-4.55,0-10.08,7.61-10.08-3.26V6.65A5.67,5.67,0,0,0,71.5,1H59.83C49,1,56.57,6.51,56.57,11.07s-4.69,6.41-9.24,6.41-9.24-1.86-9.24-6.41S45.69,1,34.82,1H23.15a5.67,5.67,0,0,0-5.67,5.67V12c0,10.87-5.53,3.26-10.08,3.26S1,20,1,24.51s1.86,9.24,6.41,9.24S17.48,26.14,17.48,37v5.35A5.67,5.67,0,0,0,23.15,48H34.82c10.87,0,3.26-5.53,3.26-10.08s4.69-6.41,9.24-6.41,9.24,1.86,9.24,6.41S49,48,59.83,48H71.5a5.67,5.67,0,0,0,5.67-5.67V37c0-10.87,5.53-3.26,10.08-3.26s6.41-4.69,6.41-9.24S91.81,15.26,87.25,15.26Z"/>
</svg>
