<?xml version="1.0" encoding="utf-8"?>
<!-- Generator: Adobe Illustrator 16.0.0, SVG Export Plug-In . SVG Version: 6.00 Build 0)  -->
<!DOCTYPE svg PUBLIC "-//W3C//DTD SVG 1.1//EN" "http://www.w3.org/Graphics/SVG/1.1/DTD/svg11.dtd">
<svg version="1.1" id="Layer_1" xmlns="http://www.w3.org/2000/svg" xmlns:xlink="http://www.w3.org/1999/xlink" x="0px" y="0px"
	 width="283px" height="96.24px" viewBox="0 -9.424 283 96.24" enable-background="new 0 -9.424 283 96.24" xml:space="preserve">
<symbol  id="New_Symbol_22" viewBox="-26.984 -30.481 53.967 60.961">
	
		<line fill="none" stroke="#000000" stroke-width="0.8004" stroke-miterlimit="10" x1="-20.399" y1="29.772" x2="-0.457" y2="9.38"/>
	<line fill="none" stroke="#000000" stroke-width="4" stroke-miterlimit="10" x1="-1.74" y1="9.449" x2="-3.737" y2="-3.305"/>
	<line fill="none" stroke="#000000" stroke-width="4" stroke-miterlimit="10" x1="-5.695" y1="7.304" x2="-7.944" y2="-3.938"/>
	<path fill="none" stroke="#000000" stroke-width="0.8004" stroke-miterlimit="10" d="M7.971,0.778L-14.966-6.99
		c0,0-1.842-2.072-0.45-3.414c3.467-3.34,10.593-9.99,18.115-15.73c10.543-8.046,30.242-3.329,20.809,9.989
		C17.741-8.005,14.119-3.333,12.175-0.932C10.938,0.595,7.971,0.778,7.971,0.778z"/>
	<path fill="none" stroke="#000000" stroke-width="3" stroke-miterlimit="10" d="M-12.223-9.058
		c3.467-3.341,8.51-8.008,16.032-13.747c6.68-5.097,17.846-4.663,22.141-0.575"/>
	<path fill="none" stroke="#000000" stroke-width="3" stroke-miterlimit="10" d="M12.706-1.437c-1.237,1.526-3.079,1.859-4.204,1.71
		C2.5-0.524-8.282-3.472-13.329-6.816c-0.717-0.478,0.67-2.161,2.062-3.503"/>
	<path fill="none" stroke="#000000" stroke-width="3" stroke-miterlimit="10" d="M-0.273,9.829
		c-0.578-0.577-3.824-2.184-5.931-2.191c-0.947-0.005-1.523,0.77-3.028,2.089L-24.77,24.64c-1.193,1.054-1.308,1.814,2.983,4.231
		c0.763,0.432,1.803-0.555,1.803-0.555"/>
</symbol>
<use xlink:href="#New_Symbol_22"  width="53.967" height="60.961" x="-26.984" y="-30.481" transform="matrix(1.0765 0 0 -1.0765 34.7988 25.7107)" overflow="visible"/>
<text transform="matrix(1 0 0 1 0.6694 80.6228)" font-family="'RobotoMono-Regular'" font-size="29.2176">base.blokfest.fr</text>
</svg>
