<?xml version="1.0" encoding="utf-8"?>
<!-- Generator: Adobe Illustrator 16.0.0, SVG Export Plug-In . SVG Version: 6.00 Build 0)  -->
<!DOCTYPE svg PUBLIC "-//W3C//DTD SVG 1.1//EN" "http://www.w3.org/Graphics/SVG/1.1/DTD/svg11.dtd">
<svg version="1.1" id="Layer_1" xmlns="http://www.w3.org/2000/svg" xmlns:xlink="http://www.w3.org/1999/xlink" x="0px" y="0px"
	 width="451.433px" height="60.1px" viewBox="0 0 451.433 60.1" enable-background="new 0 0 451.433 60.1" xml:space="preserve">
<g id="Layer_1_1_">
</g>
<g id="Layer_3">
</g>
<g id="billeterie" display="none">
</g>
<g id="home" display="none">
</g>
<g>
	<g>
		<path fill="#FFFFFF" d="M76.934,49.594V12.855h3.957v33.349h10.344v3.391H76.934z"/>
		<path fill="#FFFFFF" d="M111.864,42.529V39.42h3.957v3.108c0,2.526-0.773,4.475-2.318,5.851c-1.545,1.376-3.863,2.063-6.952,2.063
			c-3.09,0-5.426-0.688-7.009-2.063c-1.583-1.376-2.375-3.324-2.375-5.851V19.92c0-2.524,0.772-4.473,2.318-5.85
			c1.545-1.375,3.862-2.063,6.952-2.063c3.089,0,5.427,0.688,7.009,2.063c1.582,1.377,2.374,3.326,2.374,5.85v12.436h-14.696v10.173
			c0,3.016,1.789,4.522,5.37,4.522C110.074,47.051,111.864,45.544,111.864,42.529z M101.125,19.92v9.044h10.74V19.92
			c0-3.014-1.791-4.521-5.37-4.521C102.914,15.399,101.125,16.906,101.125,19.92z"/>
		<path fill="#FFFFFF" d="M139.277,12.855h8.535c2.939,0,5.172,0.697,6.698,2.091c1.526,1.395,2.289,3.335,2.289,5.823v3.391
			c0,3.204-1.338,5.257-4.013,6.162c3.052,0.828,4.579,2.921,4.579,6.274v5.086c0,2.526-0.754,4.476-2.262,5.851
			c-1.507,1.377-3.75,2.062-6.726,2.062h-9.101V12.855z M152.843,24.159v-3.391c0-1.206-0.443-2.261-1.328-3.166
			c-0.886-0.904-2.12-1.357-3.703-1.357h-4.578v12.719h4.578c1.583,0,2.817-0.489,3.703-1.469
			C152.399,26.514,152.843,25.403,152.843,24.159z M153.409,41.681v-5.086c0-1.208-0.453-2.31-1.357-3.308
			c-0.905-0.998-2.129-1.498-3.674-1.498h-5.144v14.414h5.144c1.582,0,2.816-0.442,3.702-1.328
			C152.965,43.99,153.409,42.924,153.409,41.681z"/>
		<path fill="#FFFFFF" d="M167.822,49.594V12.855h3.957v33.349h10.344v3.391H167.822z"/>
		<path fill="#FFFFFF" d="M207.274,19.92v22.609c0,2.526-0.801,4.475-2.402,5.851s-3.995,2.063-7.179,2.063
			c-3.185,0-5.586-0.688-7.207-2.063c-1.621-1.376-2.43-3.324-2.43-5.851V19.92c0-2.524,0.8-4.473,2.402-5.85
			c1.601-1.375,3.994-2.063,7.178-2.063c3.186,0,5.586,0.688,7.208,2.063C206.462,15.447,207.274,17.395,207.274,19.92z
			 M203.317,42.529V19.92c0-3.014-1.885-4.521-5.652-4.521c-3.768,0-5.652,1.507-5.652,4.521v22.609
			c0,3.016,1.884,4.522,5.652,4.522C201.432,47.051,203.317,45.544,203.317,42.529z"/>
		<path fill="#FFFFFF" d="M231.58,42.529V39.42h3.955v3.108c0,2.526-0.771,4.475-2.318,5.851c-1.545,1.376-3.861,2.063-6.949,2.063
			c-3.092,0-5.428-0.688-7.011-2.063c-1.583-1.376-2.374-3.324-2.374-5.851V19.92c0-2.524,0.772-4.473,2.318-5.85
			c1.544-1.375,3.862-2.063,6.949-2.063c3.091,0,5.43,0.688,7.011,2.063c1.584,1.377,2.374,3.326,2.374,5.85v5.37h-3.955v-5.37
			c0-3.014-1.791-4.521-5.372-4.521c-3.58,0-5.368,1.507-5.368,4.521v22.609c0,3.016,1.788,4.522,5.368,4.522
			C229.789,47.051,231.58,45.544,231.58,42.529z"/>
		<path fill="#FFFFFF" d="M249.44,49.594h-3.958V12.855h3.958v15.6l9.836-15.6h4.407l-10.005,15.826l10.685,20.913h-4.354
			l-8.703-17.126l-1.865,2.995V49.594z"/>
		<path fill="#FFFFFF" d="M275.1,49.594h-3.955V12.855h15.544v3.39H275.1v13.001h9.327v3.392H275.1V49.594z"/>
		<path fill="#FFFFFF" d="M308.449,42.529V39.42h3.957v3.108c0,2.526-0.773,4.475-2.318,5.851s-3.863,2.063-6.951,2.063
			c-3.091,0-5.428-0.688-7.009-2.063c-1.584-1.376-2.375-3.324-2.375-5.851V19.92c0-2.524,0.771-4.473,2.318-5.85
			c1.545-1.375,3.861-2.063,6.951-2.063s5.427,0.688,7.011,2.063c1.581,1.377,2.373,3.326,2.373,5.85v12.436h-14.697v10.173
			c0,3.016,1.789,4.522,5.37,4.522C306.659,47.051,308.449,45.544,308.449,42.529z M297.708,19.92v9.044h10.74V19.92
			c0-3.014-1.79-4.521-5.37-4.521C299.498,15.399,297.708,16.906,297.708,19.92z"/>
		<path fill="#FFFFFF" d="M340.837,42.529c0,5.277-3.187,7.914-9.554,7.914c-6.369,0-9.553-2.637-9.553-7.914v-4.805h3.956v5.031
			c0,1.355,0.471,2.412,1.413,3.165c0.942,0.754,2.337,1.131,4.184,1.131s3.24-0.377,4.183-1.131c0.94-0.753,1.413-1.779,1.413-3.08
			c0-1.3-0.141-2.335-0.424-3.109c-0.282-0.771-0.858-1.59-1.724-2.46l-9.948-9.72c-1.168-1.168-1.97-2.308-2.402-3.42
			c-0.433-1.11-0.65-2.515-0.65-4.21c0-2.524,0.783-4.473,2.347-5.85c1.561-1.375,3.929-2.063,7.092-2.063
			c6.068,0,9.102,2.639,9.102,7.914v4.804h-3.958v-5.03c0-1.356-0.441-2.411-1.326-3.165c-0.888-0.753-2.215-1.13-3.986-1.13
			c-1.771,0-3.1,0.376-3.985,1.13c-0.884,0.754-1.328,1.79-1.328,3.109s0.133,2.355,0.396,3.108
			c0.263,0.755,0.849,1.546,1.752,2.375l10.12,9.721c1.09,1.207,1.846,2.366,2.26,3.478
			C340.629,39.431,340.837,40.833,340.837,42.529z"/>
		<path fill="#FFFFFF" d="M350.164,12.855h12.434v3.39h-8.479v27.076c0,1.055,0.272,1.94,0.82,2.656
			c0.545,0.715,1.317,1.074,2.316,1.074c0.997,0,1.761-0.349,2.29-1.045c0.527-0.697,0.79-1.592,0.79-2.686v-6.726h3.959v6.499
			c0,2.375-0.634,4.193-1.896,5.455c-1.264,1.263-2.967,1.894-5.114,1.894s-3.872-0.631-5.173-1.894
			c-1.299-1.262-1.948-3.08-1.948-5.455V12.855z"/>
		<path fill="#FFFFFF" d="M384.642,49.594v-3.391l10.737-15.205c0.151-0.188,0.434-0.583,0.849-1.187
			c0.414-0.603,0.715-1.036,0.904-1.3c0.189-0.263,0.454-0.659,0.791-1.187c0.339-0.527,0.596-0.951,0.764-1.272
			c0.169-0.32,0.349-0.688,0.537-1.102c0.375-0.754,0.566-1.487,0.566-2.205v-3.052c0-1.356-0.443-2.411-1.329-3.165
			c-0.885-0.753-2.215-1.13-3.985-1.13c-1.771,0-3.101,0.376-3.986,1.13c-0.883,0.754-1.327,1.809-1.327,3.165v5.03h-3.956V19.92
			c0-5.275,3.031-7.914,9.1-7.914c3.166,0,5.529,0.688,7.095,2.063c1.563,1.377,2.345,3.326,2.345,5.85v2.826
			c0,1.282-0.404,2.686-1.216,4.211c-0.81,1.526-2.175,3.667-4.097,6.417l-8.986,12.83h14.241v3.391H384.642z"/>
		<path fill="#FFFFFF" d="M418.272,49.594h-5.087v-6.217h5.087V49.594z"/>
		<path fill="#FFFFFF" d="M447.099,19.92v22.609c0,2.526-0.8,4.475-2.402,5.851c-1.602,1.376-3.995,2.063-7.179,2.063
			c-3.187,0-5.589-0.688-7.206-2.063c-1.622-1.376-2.433-3.324-2.433-5.851V19.92c0-2.524,0.802-4.473,2.404-5.85
			c1.6-1.375,3.991-2.063,7.177-2.063c3.187,0,5.586,0.688,7.209,2.063C446.287,15.447,447.099,17.395,447.099,19.92z
			 M443.142,42.529V19.92c0-3.014-1.885-4.521-5.652-4.521s-5.653,1.507-5.653,4.521v22.609c0,3.016,1.886,4.522,5.653,4.522
			S443.142,45.544,443.142,42.529z"/>
	</g>
</g>
<g>
	<polygon fill="#FFFFFF" points="8.998,17.279 16.959,15.827 16.958,4.975 	"/>
	<polygon fill="#FFFFFF" points="19.336,19.26 17.396,57.608 54.767,45.473 	"/>
	<polygon fill="#FFFFFF" points="14.971,56.073 16.742,21.089 2.573,41.018 	"/>
	<polygon fill="#FFFFFF" points="32.963,55.181 56.875,51.069 56.417,47.566 	"/>
	<polygon fill="#FFFFFF" points="7.4,20.111 3.76,35.034 15.408,18.651 	"/>
	<polygon fill="#FFFFFF" points="19.458,16.24 56.371,43.55 58.563,11.399 19.458,2.317 	"/>
</g>
</svg>
