<?xml version="1.0" encoding="utf-8"?>
<!-- Generator: Adobe Illustrator 16.0.0, SVG Export Plug-In . SVG Version: 6.00 Build 0)  -->
<!DOCTYPE svg PUBLIC "-//W3C//DTD SVG 1.1//EN" "http://www.w3.org/Graphics/SVG/1.1/DTD/svg11.dtd">
<svg version="1.1" id="Layer_1" xmlns="http://www.w3.org/2000/svg" xmlns:xlink="http://www.w3.org/1999/xlink" x="0px" y="0px"
	 width="283px" height="86.816px" viewBox="0 0 283 86.816" enable-background="new 0 0 283 86.816" xml:space="preserve">
<g>
	<rect x="151.995" y="2.496" fill="#FFFFFF" width="5.008" height="17.596"/>
	<rect x="186.757" y="29.84" fill="#FFFFFF" width="3.949" height="6.399"/>
	<polygon fill="#FFFFFF" points="278.104,55.879 274.66,55.879 274.66,60.427 282.29,66.717 282.29,66.714 277.518,62.778 
		282.274,57.946 280.578,57.953 	"/>
	<polygon fill="#FFFFFF" points="178.792,13.174 178.792,0.001 181.3,0.001 181.3,0 178.788,0 172.259,6.625 165.651,0 163.772,0 
		163.771,0.001 165.648,0.001 	"/>
	<rect x="258.018" y="2.496" fill="#FFFFFF" width="5.008" height="7.534"/>
	<rect x="203.05" y="55.403" fill="#FFFFFF" width="5.008" height="17.594"/>
	<rect x="137.794" y="55.403" fill="#FFFFFF" width="5.006" height="17.594"/>
	<rect x="101.743" y="55.56" fill="#FFFFFF" width="5.008" height="7.376"/>
	<polygon fill="#FFFFFF" points="239.005,20.092 239.005,0.003 239.003,0.003 234.001,5.078 234.001,20.092 	"/>
	<rect x="84.97" y="55.403" fill="#FFFFFF" width="5.007" height="7.532"/>
	<rect x="104.718" y="29.677" fill="#FFFFFF" width="3.943" height="6.562"/>
	<rect x="275.057" y="46.506" fill="#FFFFFF" width="7.925" height="0.008"/>
	<rect x="278.627" y="16.111" fill="#FFFFFF" width="0.003" height="7.674"/>
	<polygon fill="#FFFFFF" points="275.057,45.66 280.541,40.096 275.057,40.096 	"/>
	<rect x="217.866" y="2.496" fill="#FFFFFF" width="5.01" height="7.534"/>
	<polygon fill="#FFFFFF" points="275.057,36.24 280.548,36.24 280.548,36.236 276.68,36.236 282.983,29.84 275.057,29.84 	"/>
	<path fill="#FFFFFF" d="M268.628,25.853h14.358v-0.001h0.002v-0.003l0.013-0.001h-3.725l3.187-3.229h-12.679V0.003h-0.004
		l-2.425,2.462l0.676,0.679v6.271l-2.494,2.512l2.494,2.526v8.166h-5.006V12.557h-5.006l-0.002,10.061h-5.004V0.003h-0.005
		l-2.293,2.325v20.289h-5.008V0.003h-0.002l-1.724,1.747v17.726v3.145h-11.828l-3.163-3.146V0.003h-0.002l-2.105,2.137l1,1.005
		v6.271l-2.494,2.512l2.494,2.526v8.166h-5.004V12.557h-5.008l-0.006,10.061h-5.004V0.003h-0.002l-1.424,1.445V2.97h-5.148
		l0.002,19.647h-5.008V2.97h-5.008V0.005l-1.766,1.794l-0.354-0.309l1.405,1.227v2.321l-1.729,0.008l-2.476-2.076h-3.44v4.549
		l7.646,6.303v5.339l-3.43,3.458h-6.097l-3.153-2.875v-2.622l1.859,0.003l2.539,2.184l3.447-0.006l0.01-5.035l-7.666-6.26
		l-0.002-4.854L181.3,4.94v17.679h-2.508v-1.911L166.296,8.166l-0.002,14.451h-2.526V0.005l-2.425,2.461L158.89,0h-0.005
		l3.126,3.143v16.331l-3.127,3.144h-8.733l-3.158-3.145V3.172l-1.749,1.753V3.144L142.118,0h-0.012l3.125,3.144v2.038h-2.492V2.656
		h-7.521v17.277h7.521v-2.494h2.492v2.036l-3.125,3.145h-8.732l-3.16-3.145V3.205L119.085,14.45v11.396h-2.062l-0.007,0.007h14.366
		v3.987h-7.949v6.4h5.512v3.855h-5.512v6.418h7.949v4.002h-14.373V25.86l-2.732,2.773l-2.771-2.787H98.317l-0.007,0.007h13.175
		l3.602,3.619v7.006l-2.332,2.348l2.332,2.359v9.331h-6.422v-10.42h-3.947v10.42h-6.424V25.87l-1.553,1.578v-1.602H79.811
		l-0.007,0.007h16.912v4.314h-5.334v20.349h-6.424V30.167h-5.183v-4.286l-1.312,1.331v-1.366H72.89l4.199-4.259v-1.963l-5.807-5.838
		h-1.291l-0.004,0.004h1.256l5.809,5.839v1.964l-1.905-0.009l-4.562-4.538l-4.514,4.56l-1.959-0.013v-1.93l-6.094,6.185h-2.957
		l-0.005,0.005h6.388v8.006l-3.596,3.652h-2.831l0.013-1.54l2.607-2.624l0.002-1.053h-2.616v-6.408l-6.302,6.396v-6.435h-6.424
		l-0.005,0.005h6.391V46.66h7.786v3.855H42.259V25.887L31.154,37.156V52.9h-3.235l-0.008,0.008h12.647v2.65h-7.677v7.377h5.324
		v2.525h-5.324v7.393h7.677v0.001v2.672H27.876V52.944l-2.388,2.422L23.035,52.9H11.143l-0.008,0.008h11.858l3.127,3.144v16.33
		l-3.129,3.144H11.101V52.943L-0.001,64.206v22.611H11.89l3.128-3.144l1.756-1.783v4.925h12.68l1.859-1.889l2.075,1.889h6.095
		l3.428-3.457l9.164-9.301v9.615l3.158,3.145h8.731l3.127-3.145l1.756-1.782v4.925h5.007l5.006-5.076v5.078h5.004l1.758-1.78v1.78
		h5.005l5.008-5.078v5.078h5.004l1.758-1.78v1.78h2.525l7.155-7.264l5.335,5.354v1.909h2.51l1.741-1.768v1.768h11.892l3.125-3.145
		l1.602-1.622v1.894l3.158,2.873h6.094l11.146-11.308l1.449-1.452v12.76h3.312l6.523-6.62l1.598,1.914l1.248,0.002l7.652-7.768
		v12.472h4.678l2.438-2.479l2.487,2.479h8.731l3.125-3.145l1.109-1.124v1.124l3.158,3.145h11.826l1.785-1.812v1.812h12.521
		l1.031-1.049v1.049h5.008l1.646-1.67v1.67h2.522l7.158-7.264l5.332,5.354v1.909h2.512l1.939-1.965l2.153,1.965h6.099l11.138-11.29
		h-6.082l-3.152-2.877v-2.623l1.861,0.003l2.539,2.184l3.449-0.006l0.01-5.034l-7.668-6.261l-0.002-4.863l3.127-3.143h6.254
		l0.764,0.667l3.014-3.059h-14.346V25.853z M54.019,57.946l-1.729,0.008l-2.474-2.074h-3.442v4.548l7.645,6.304v5.339l-3.428,3.458
		h-6.099l-3.155-2.877v-2.623l1.859,0.003l2.541,2.184l3.447-0.006l0.012-5.034l-7.67-6.261V56.05l3.127-3.143h6.254l3.111,2.717
		V57.946z M78.202,58.083H75.71v-2.525h-7.678v17.438h5.322l0.003-7.535h-2.64v-2.525h7.484v9.442l-3.127,3.146h-8.732l-3.155-3.146
		v-16.33l3.155-3.145h8.732l3.127,3.145V58.083z M78.429,29.84H70.48v6.4h5.509v3.855H70.48v6.418h7.948v4.002H64.054V25.853h14.375
		V29.84z M94.982,62.323l-2.494,2.511l2.494,2.528v8.165h-5.006V65.464H84.97v10.061h-5.008V52.907h11.894l3.127,3.144V62.323z
		 M111.757,75.529h-5.006V65.466h-5.008v10.059h-5.006V56.069l3.125-3.161h8.768l3.127,3.146V75.529z M131.048,75.525h-2.515v-1.911
		l-12.491-12.542l-0.002,14.453h-2.525V52.907h1.88l13.139,13.172V52.907h2.515V75.525z M218.438,25.853h6.422V36.24h3.946V25.853
		h6.427v24.663h-6.427v-10.42h-3.946v10.42h-6.422V25.853z M199.05,29.471l3.636-3.618h9.558l3.602,3.619v2.985h-3.821V29.84h-6.552
		v16.657h6.552v-2.585h3.821v2.986l-3.602,3.617h-9.558l-3.636-3.615V29.471z M147.806,72.381l-3.127,3.144h-11.895V52.907h11.895
		l3.127,3.144V72.381z M148.003,41.584h-14.211v-3.854h14.211V41.584z M162.085,57.946l-1.729,0.008l-2.477-2.074h-3.439v4.548
		l7.645,6.304v5.339l-3.426,3.458h-6.098l-3.159-2.877v-2.623l1.862,0.003l2.539,2.184l3.449-0.006l0.01-5.034l-7.668-6.261
		l-0.002-4.863l3.127-3.143h6.255l3.11,2.717V57.946z M164.626,45.644l-1.875-0.003l-7.498-9.015v13.89h-4.678V25.853h2.857
		l10.371,12.351h0.746l10.354-12.351h2.825v24.663h-6.08V37.181L164.626,45.644z M196.273,75.525H191.6V61.589l-7.656,9.229
		l-1.25-0.002l-8.122-9.761v14.47h-3.316V52.907h1.879l10.017,11.924l1.276,0.001l9.998-11.925h1.849V75.525z M197.128,50.515
		h-6.422v-10.42h-3.949v10.42h-6.424V29.49l3.603-3.638h9.589l3.604,3.619V50.515z M213.064,72.378l-3.127,3.146h-8.734
		l-3.155-3.146v-16.33l3.155-3.144h8.734l3.127,3.144V72.378z M229.162,72.381v3.146h-11.827l-3.162-3.148V52.907h5.006v20.089
		h5.009V52.907h4.975V72.381z M243.479,75.525h-0.002H230.95V52.907h5.008v20.089h7.521V75.525z M244.181,50.516h-6.424V25.853
		h6.424V50.516z M249.515,75.525h-5.008V52.907h5.008V75.525z M250.515,50.516h-3.855V25.853h2.823l12.736,12.766V25.853h3.838
		v24.663h-3.838v-2.342l-11.704-11.746V50.516z M268.694,52.907v22.617h-2.512v-1.911L253.69,61.072l0.001,14.453h-2.531V52.907
		h1.879l13.144,13.172V52.907H268.694z"/>
	<rect x="16.105" y="55.403" fill="#FFFFFF" width="5.008" height="17.594"/>
	<polygon fill="#FFFFFF" points="274.792,10.031 275.194,10.031 282.464,2.656 282.464,2.655 274.792,2.655 	"/>
	<polygon fill="#FFFFFF" points="274.792,17.951 280.109,12.556 274.792,12.556 	"/>
</g>
<g>
	<polygon fill="none" points="133.374,0 130.214,3.144 130.214,3.205 133.386,0 	"/>
	<polygon fill="none" points="133.374,22.619 142.106,22.619 145.231,19.475 145.231,17.439 142.739,17.439 142.739,19.933 
		135.218,19.933 135.218,2.656 142.739,2.656 142.739,5.182 145.231,5.182 145.231,3.144 142.106,0 133.386,0 130.214,3.205 
		130.214,19.475 	"/>
	<polygon fill="none" points="158.885,0 158.884,-0.001 150.152,-0.001 146.992,3.143 146.992,3.172 150.157,0 	"/>
	<path fill="none" d="M150.15,22.617h8.733l3.127-3.144V3.143L158.885,0h-8.728l-3.165,3.172v16.301L150.15,22.617z M151.995,2.496
		h5.008v17.596h-5.008V2.496z"/>
	<polygon fill="none" points="163.768,0.001 163.768,0.005 163.771,0.001 	"/>
	<polygon fill="none" points="166.294,22.617 166.296,8.166 178.792,20.707 178.792,22.618 181.3,22.618 181.3,4.94 181.3,0.001 
		178.792,0.001 178.792,13.174 165.648,0.001 163.771,0.001 163.768,0.005 163.768,22.617 	"/>
	<polygon fill="none" points="183.07,3.156 186.197,0.003 192.449,0.003 194.154,1.49 192.448,0 186.194,0 183.069,3.144 
		183.069,3.154 183.07,3.153 	"/>
	<polygon fill="none" points="190.737,14.267 190.728,19.302 187.28,19.308 184.741,17.124 182.882,17.121 182.882,19.743 
		186.035,22.618 192.132,22.618 195.562,19.16 195.562,13.822 187.915,7.519 187.915,2.97 191.355,2.97 193.831,5.046 195.56,5.038 
		195.56,2.717 194.154,1.49 192.449,0.003 186.197,0.003 183.07,3.156 183.07,3.176 183.07,3.156 183.07,3.153 183.069,3.154 
		183.071,8.007 	"/>
	<polygon fill="none" points="211.437,0.003 211.437,0 196.274,0 196.274,0.005 196.276,0.003 	"/>
	<polygon fill="none" points="201.282,2.97 201.282,22.617 206.29,22.617 206.288,2.97 211.437,2.97 211.437,1.448 211.437,0.003 
		196.276,0.003 196.274,0.005 196.274,2.97 	"/>
	<polygon fill="none" points="226.882,2.142 226.884,2.14 224.757,0.001 212.862,0.001 212.862,0.003 224.755,0.003 	"/>
	<path fill="none" d="M217.866,22.617l0.006-10.061h5.008V22.62h5.004v-8.166l-2.494-2.526l2.494-2.512V3.145l-1-1.005l-0.002,0.002
		l-2.127-2.139h-11.893v22.614H217.866z M217.866,2.496h5.01v7.534h-5.01V2.496z"/>
	<polygon fill="none" points="243.979,1.754 243.982,1.75 243.982,0.001 239.005,0.001 239.005,0.003 243.979,0.003 	"/>
	<polygon fill="none" points="233.996,5.083 234.001,5.078 234.001,0.001 228.991,0.001 228.991,0.003 233.996,0.003 	"/>
	<polygon fill="none" points="232.154,22.62 243.982,22.62 243.982,19.476 243.982,1.75 243.979,1.754 243.979,0.003 239.005,0.003 
		239.005,20.092 234.001,20.092 234.001,5.078 233.996,5.083 233.996,0.003 228.991,0.003 228.991,19.474 	"/>
	<polygon fill="none" points="250.712,2.332 250.716,2.328 250.716,0.001 245.708,0.001 245.708,0.003 250.712,0.003 	"/>
	<polygon fill="none" points="250.716,22.617 250.716,2.328 250.712,2.332 250.712,0.003 245.708,0.003 245.708,22.617 	"/>
	<polygon fill="none" points="267.353,2.469 267.355,2.466 264.906,0.001 253.014,0.001 253.014,0.003 264.899,0.003 	"/>
	<path fill="none" d="M258.018,22.617l0.002-10.061h5.006V22.62h5.006v-8.166l-2.494-2.526l2.494-2.512V3.145l-0.676-0.679
		l-0.003,0.003l-2.453-2.466h-11.886v22.614H258.018z M258.018,2.496h5.008v7.534h-5.008V2.496z"/>
	<rect x="274.789" y="17.951" fill="none" width="0.003" height="1.995"/>
	<polygon fill="none" points="280.109,10.031 280.109,12.556 280.112,12.556 280.112,10.031 275.194,10.031 275.193,10.031 	"/>
	<polygon fill="none" points="282.464,2.655 282.471,2.655 282.471,0.001 269.784,0.001 269.784,0.003 282.464,0.003 	"/>
	<polygon fill="none" points="282.463,22.618 282.471,22.618 282.471,19.949 282.466,19.949 282.466,22.615 	"/>
	<polygon fill="none" points="282.463,22.618 282.466,22.615 282.466,19.949 274.792,19.949 274.792,19.947 274.789,19.947 
		274.789,17.954 274.792,17.951 274.792,12.556 280.109,12.556 280.109,10.031 275.193,10.031 275.194,10.031 274.792,10.031 
		274.792,2.655 282.464,2.655 282.464,0.003 269.784,0.003 269.784,22.618 	"/>
	<polygon fill="none" points="42.259,25.853 42.259,25.887 42.293,25.853 	"/>
	<polygon fill="none" points="56.47,50.516 56.47,46.66 48.684,46.66 48.684,25.853 42.293,25.853 42.259,25.887 42.259,50.516 	"/>
	<polygon fill="none" points="55.023,25.853 55.023,25.886 55.057,25.853 	"/>
	<path fill="none" d="M57.64,32.294l-0.002,1.053l-2.607,2.624l-0.013,1.54h2.831l3.596-3.652v-8.006h-6.388l-0.033,0.034v6.408
		H57.64z M55.071,35.988v-0.021V35.988z M55.062,32.287h0.075H55.062z"/>
	<polygon fill="none" points="64.054,50.516 78.429,50.516 78.429,46.514 70.48,46.514 70.48,40.096 75.989,40.096 75.989,36.24 
		70.48,36.24 70.48,29.84 78.429,29.84 78.429,25.853 64.054,25.853 	"/>
	<polygon fill="none" points="79.775,25.853 79.775,25.882 79.804,25.853 	"/>
	<polygon fill="none" points="84.958,30.167 84.958,50.516 91.382,50.516 91.382,30.167 96.716,30.167 96.716,25.853 79.804,25.853 
		79.775,25.882 79.775,30.167 	"/>
	<polygon fill="none" points="98.294,25.853 98.294,25.87 98.311,25.853 	"/>
	<path fill="none" d="M104.718,50.516v-10.42h3.947v10.42h6.422v-9.331l-2.332-2.359l2.332-2.348v-7.006l-3.602-3.619H98.311
		l-0.017,0.017v24.646H104.718z M104.718,29.677h3.943v6.562h-3.943V29.677z"/>
	<polygon fill="none" points="117.009,25.853 117.009,25.86 117.016,25.853 	"/>
	<polygon fill="none" points="131.382,50.516 131.382,46.514 123.433,46.514 123.433,40.096 128.944,40.096 128.944,36.24 
		123.433,36.24 123.433,29.84 131.382,29.84 131.382,25.853 117.016,25.853 117.009,25.86 117.009,50.516 	"/>
	<rect x="133.792" y="37.731" fill="none" width="14.211" height="3.854"/>
	<polygon fill="none" points="171.648,50.516 177.729,50.516 177.729,25.853 174.903,25.853 164.55,38.203 163.804,38.203 
		153.433,25.853 150.575,25.853 150.575,50.516 155.253,50.516 155.253,36.626 162.751,45.641 164.626,45.644 171.648,37.181 	"/>
	<path fill="none" d="M183.936,25.853l-3.603,3.638v21.024h6.424v-10.42h3.949v10.42h6.422V29.472l-3.604-3.619H183.936z
		 M190.706,36.24h-3.949V29.84h3.949V36.24z"/>
	<polygon fill="none" points="212.243,50.516 215.845,46.899 215.845,43.912 212.023,43.912 212.023,46.497 205.472,46.497 
		205.472,29.84 212.023,29.84 212.023,32.457 215.845,32.457 215.845,29.472 212.243,25.853 202.686,25.853 199.05,29.471 
		199.05,46.901 202.686,50.516 	"/>
	<polygon fill="none" points="224.859,40.096 228.806,40.096 228.806,50.516 235.232,50.516 235.232,25.853 228.806,25.853 
		228.806,36.24 224.859,36.24 224.859,25.853 218.438,25.853 218.438,50.516 224.859,50.516 	"/>
	<rect x="237.757" y="25.853" fill="none" width="6.424" height="24.663"/>
	<polygon fill="none" points="262.219,50.516 266.057,50.516 266.057,25.853 262.219,25.853 262.219,38.618 249.482,25.853 
		246.659,25.853 246.659,50.516 250.515,50.516 250.515,36.428 262.219,48.174 	"/>
	<polygon fill="none" points="282.974,50.516 283.001,50.516 283.001,46.514 282.981,46.514 282.981,50.508 	"/>
	<polygon fill="none" points="280.541,40.096 280.568,40.096 280.568,36.24 280.548,36.24 280.548,40.089 	"/>
	<polygon fill="none" points="282.986,29.837 282.983,29.84 283.001,29.84 283.001,25.853 282.986,25.853 	"/>
	<polygon fill="none" points="275.034,46.506 275.057,46.506 275.057,45.66 275.034,45.683 	"/>
	<polygon fill="none" points="282.986,25.853 268.628,25.853 268.628,50.516 282.974,50.516 282.981,50.508 282.981,46.514 
		275.057,46.514 275.057,46.506 275.034,46.506 275.034,45.683 275.057,45.66 275.057,40.096 280.541,40.096 280.548,40.089 
		280.548,36.24 275.057,36.24 275.057,29.84 282.983,29.84 282.986,29.837 	"/>
	<polygon fill="none" points="11.101,52.907 11.101,52.943 11.135,52.907 	"/>
	<path fill="none" d="M22.991,75.525l3.129-3.144v-16.33l-3.127-3.144H11.135l-0.034,0.035v22.582H22.991z M21.113,55.403v17.594
		h-5.008V55.403H21.113z"/>
	<polygon fill="none" points="27.876,52.907 27.876,52.944 27.911,52.907 	"/>
	<polygon fill="none" points="40.559,75.526 40.559,72.854 40.559,72.853 32.882,72.853 32.882,65.46 38.206,65.46 38.206,62.935 
		32.882,62.935 32.882,55.558 40.559,55.558 40.559,52.907 27.911,52.907 27.876,52.944 27.876,75.526 	"/>
	<polygon fill="none" points="44.653,52.907 41.526,56.05 41.526,60.913 49.196,67.174 49.185,72.208 45.737,72.214 43.196,70.031 
		41.337,70.028 41.337,72.651 44.492,75.528 50.591,75.528 54.019,72.07 54.019,66.731 46.374,60.427 46.374,55.879 49.816,55.879 
		52.29,57.953 54.019,57.946 54.019,55.624 50.907,52.907 	"/>
	<polygon fill="none" points="66.343,52.904 63.188,56.048 63.188,72.378 66.343,75.525 75.075,75.525 78.202,72.378 78.202,62.936 
		70.718,62.936 70.718,65.461 73.357,65.461 73.354,72.996 68.032,72.996 68.032,55.558 75.71,55.558 75.71,58.083 78.202,58.083 
		78.202,56.048 75.075,52.904 	"/>
	<path fill="none" d="M79.962,52.907v22.617h5.008V65.464h5.007v10.062h5.006v-8.165l-2.494-2.528l2.494-2.511v-6.271l-3.127-3.144
		H79.962z M89.977,62.935H84.97v-7.532h5.007V62.935z"/>
	<path fill="none" d="M99.862,52.907l-3.125,3.161v19.456h5.006V65.466h5.008v10.062h5.006V56.053l-3.127-3.146H99.862z
		 M106.751,62.936h-5.008V55.56h5.008V62.936z"/>
	<polygon fill="none" points="128.533,66.079 115.395,52.907 113.515,52.907 113.515,75.525 116.04,75.525 116.042,61.072 
		128.533,73.614 128.533,75.525 131.048,75.525 131.048,52.907 128.533,52.907 	"/>
	<path fill="none" d="M132.784,52.907v22.617h11.895l3.127-3.144v-16.33l-3.127-3.144H132.784z M142.8,72.996h-5.006V55.403h5.006
		V72.996z"/>
	<polygon fill="none" points="152.72,52.907 149.593,56.05 149.595,60.913 157.263,67.174 157.253,72.208 153.804,72.214 
		151.265,70.031 149.402,70.028 149.402,72.651 152.562,75.528 158.659,75.528 162.085,72.07 162.085,66.731 154.44,60.427 
		154.44,55.879 157.88,55.879 160.356,57.953 162.085,57.946 162.085,55.624 158.975,52.907 	"/>
	<polygon fill="none" points="184.427,64.832 183.15,64.831 173.134,52.907 171.255,52.907 171.255,75.526 174.571,75.526 
		174.571,61.056 182.693,70.817 183.943,70.819 191.6,61.589 191.6,75.525 196.273,75.525 196.273,52.907 194.425,52.907 	"/>
	<path fill="none" d="M201.203,52.905l-3.155,3.144v16.33l3.155,3.146h8.734l3.127-3.146v-16.33l-3.127-3.144H201.203z
		 M208.058,72.996h-5.008V55.403h5.008V72.996z"/>
	<polygon fill="none" points="224.188,72.996 219.179,72.996 219.179,52.907 214.173,52.907 214.173,72.379 217.335,75.528 
		229.162,75.528 229.162,72.381 229.162,52.907 224.188,52.907 	"/>
	<polygon fill="none" points="235.958,52.907 230.95,52.907 230.95,75.525 243.477,75.525 243.479,75.525 243.479,72.996 
		235.958,72.996 	"/>
	<rect x="244.507" y="52.907" fill="none" width="5.008" height="22.617"/>
	<polygon fill="none" points="266.183,66.079 253.039,52.907 251.16,52.907 251.16,75.525 253.691,75.525 253.69,61.072 
		266.183,73.614 266.183,75.525 268.694,75.525 268.694,52.907 266.183,52.907 	"/>
	<polygon fill="none" points="278.86,75.528 278.874,75.528 282.307,72.07 282.307,66.731 282.29,66.717 282.29,72.051 	"/>
	<polygon fill="none" points="282.29,55.613 282.29,57.93 282.274,57.946 282.308,57.946 282.308,55.624 279.96,53.574 
		279.958,53.576 	"/>
	<polygon fill="none" points="272.942,52.907 269.815,56.05 269.817,60.913 277.485,67.174 277.476,72.208 274.026,72.214 
		271.487,70.031 269.626,70.028 269.626,72.651 272.778,75.528 278.86,75.528 282.29,72.051 282.29,66.717 274.66,60.427 
		274.66,55.879 278.104,55.879 280.578,57.953 282.274,57.946 282.29,57.93 282.29,55.613 279.958,53.576 279.96,53.574 
		279.196,52.907 	"/>
	<polygon fill="none" points="64.151,19.712 69.987,13.79 69.952,13.79 64.112,19.629 64.112,19.663 64.151,19.623 	"/>
	<path fill="none" d="M66.071,21.606l4.514-4.56l4.562,4.538l1.905,0.009v-1.964l-5.809-5.839h-1.256l-5.836,5.922v-0.089
		l-0.039,0.04v1.93L66.071,21.606z M75.186,21.581l-0.015-0.01L75.186,21.581z"/>
</g>
</svg>
