<svg enable-background="new -296.833 -35.347 939.99 180.553" height="180.553" viewBox="-296.833 -35.347 939.99 180.553" width="939.99" xmlns="http://www.w3.org/2000/svg"><path d="m-154.093 12.284-.087-1.229h-15.332l-22.02 1.223-1.112.061.427-15.061.211-7.475-.604-20.768-18.969.592v12.041l.631 28.428-2.183 2.188-.036.036-.615-.036-20.899-1.227-10.02 1.245-8.288.006v11.984l.566 4.492 16.36 1.212 1.716-.566 2.079-.687 10.966.687 9.413.589 1.57 1.57-.635 25.937.606 13.887h18.973v-.694l-1.248-11.265 1.237-28.647.034-.78 14.925-.652 8.6.231 14.365.387.493-1.992-.816-11.41z" fill="none"/><path d="m-116.76 17.906.291-12.495v-20.239l-.658-3.865-.301-2.096-.301-2.097-.031-.217-1.627-1.084h-10.611l-2.267 1.699v8.981l-.665 16.297.664 19.243.001 20.643-.662 5.973.666 10.313-1.271 5.089-.028.113.032.065.346.69 8.894-1.268 6.709-.006.305-.609.514-1.028.276-.55-.276-2.602-.372-3.509-.002-12.645-.001-8.674.013-.563z" fill="none"/><path d="m-274.188 21.387-.338-14.628-.031-1.321v-8.028-16.304l.369-1.834.264-1.311-.264-.528-.159-.319-.65-1.301h-3.628l-11.798-1.276-.174-.019-.386.774.059.237 1.245 4.969-.677 7.375.669 8.859.002 20.665-.663 19.154.663 1.27v24.12l2.265 1.698h10.613l.911-.607.718-.479.33-2.31.297-2.081.657-12.914-.001-11.224z" fill="none"/><path d="m-18.637-10.851c0-2.395.148-4.232.258-5.574.094-1.074.188-2.289.059-2.58-.004 0-.121-.133-.572-.363-2.17-1.082-6.314-1.725-7.732-1.881-.129-.018-5.754-.83-8.566-.83l-.684-.004-.609-.002c-2.094 0-2.172 0-2.166 1.871 0 1.697-.012 2.943-.029 3.951-.039 3.801-.041 4.051.838 12.812l2.578 10.08c.072.289.094.586.047.877l-1.482 10.371c0 3.094.102 6.145.188 8.83.293 9.395.48 15.068-2.801 17.006-2.145 1.271-4.168 1.916-6.018 1.916-4.67 0-6.902-3.922-7.752-5.588-.617.234-1.711.996-2.488 1.746l-2.922 3.453c-.137.16-.289.301-.467.418-.189.123-4.666 3.111-7.764 4.658-.406.205-.648.357-.781.457.18.41.797 1.383 2.871 3.451 1.781 1.777 8.463 7.582 19.746 7.582 1.34 0 2.707-.082 4.068-.252 10.967-1.371 15.047-7.488 18.023-11.953 2.588-3.881 2.658-9.271 2.658-9.324 0-.182.016-.365.061-.545l1.439-5.746v-14.76c0-.061.002-.123.008-.186l1.484-17.816-1.477-11.797c-.012-.093-.016-.186-.016-.278z" fill="none"/><path d="m58.99 45.741h-11.865l-8.854 1.477c-.123.02-.246.029-.369.029-.184 0-.367-.021-.545-.064l-5.756-1.438h-8.746c-1.242 0-2.25-1.008-2.25-2.25v-12.985c0-1.186.914-2.168 2.104-2.248l15.305-1.002c.049-.004.096-.004.146-.004.074 0 .146.004.217.012.104.012 10.217.992 13.072.992.246 0 .51 0 .732-.004.035-.578.035-1.428.035-2.258v-5.75c0-1.16 0-2.564-.111-3.209-.141-.014-.369-.029-.697-.029-2.865 0-9.668-1.338-11.545-1.717l-16.652 2.66c-.117.02-.238.029-.355.029-.562 0-1.096-.207-1.516-.586-.504-.463-.777-1.125-.729-1.809l.787-12.535-.781-7.389c-.074-.658.152-1.307.604-1.785.428-.449 1.02-.701 1.635-.701.039 0 .07.002.113.002l11.121.571 18.629-2.066c.078-.01.166-.012.248-.012.236 0 .475.037.705.117.467.152 1.932.555 3.08.555.059 0 .111-.002.162-.002-.258-.447-.68-.996-1.031-1.348-.49-.49-.727-1.178-.643-1.863l1.078-8.895v-.23c-.217.012-.445.014-.686.014-1.412 0-3.086-.154-4.953-.459-3.211-.521-7.145-.785-11.688-.785-7.799 0-14.734.791-14.797.803-.082.014-.174.016-.262.016h-13.182l-4.178 1.385c-.223.078-.463.117-.703.117-.115 0-.229-.008-.34-.027l-4.336-.662 1.307 17.848c.004.057.006.111.006.166v9.029 15.062c0 .061-.002.123-.01.186l-1.496 17.977v16.455c0 2.162 0 4.605.352 5.057.018.012.355.223 1.916.223h12.047c.105 0 .211.006.316.023l10.383 1.482h26.953c2.963 0 5.299 0 6.033-.521.752-.539.752-3.715.752-4.758v-12.129c-.035-.767-.422-.767-.762-.767z" fill="none"/><path d="m299.834-21.195h-5.965l-3.854 8.201-5.934 12.654c-.059.123-.129.244-.209.354l-8.947 12.496c-.416.59-1.102.938-1.822.938-.045 0-.076-.002-.117-.002-.764-.039-1.455-.465-1.838-1.131l-8.93-15.656-9.717-16.27h-7.314l-5.658 1.502c-.182.051-.381.076-.572.076h-2.85c2.283 4.002 6.057 11.951 7.857 15.781l8.906 18.988c2.83 6.02 10.062 15.297 10.137 15.391.305.396.477.883.477 1.385v11.08c0 .1-.004.199-.02.299-.406 3.041-1.469 11.467-1.469 13.934 0 .838 0 1.986.152 2.273h.004c.031 0 .488.229 2.059.229h20.785c.363-.203.727-1.535.727-2.502v-6.223l-1.441-15.324-1.316-2.807c-.316-.662-.287-1.432.07-2.064l4.459-7.908 8.885-14.215 5.887-12.537c.047-.102.105-.201.168-.297.074-.111 7.443-11.1 10.355-15.762.953-1.523 1.145-2.307 1.189-2.611-.246-.102-.867-.275-2.248-.275z" fill="none"/><path d="m108.617-20.646c-3.561 0-6.865-.219-9.783-.412-2.297-.148-4.279-.281-5.943-.281-1.762 0-2.961.152-3.572.455-2.479 1.242-7.041 1.629-9.771 1.75-.035.125-.082.252-.145.371l-1.32 2.641v11.965 34.334 26.549c0 3.238.455 3.816.514 3.875.221.123 1.205.123 1.924.123h11.047c2.453 0 4.783 0 5.52-.264.02-.109.039-.299.039-.613v-6.061l-1.527-9.176c-.109-.65.07-1.32.504-1.824.422-.504 1.047-.795 1.711-.795h9.094c3.846 0 4.938 1.916 5.25 3.035l3.008 6.012 4.191 8.121h4.992c.078 0 .168.006.25.012l12.969 1.445 1.148-1.146-5.387-9.434-6.258-10.928c-.602-1.064-.252-2.422.803-3.049 6.607-3.959 14.428-12.486 15.994-21.855 1.244-7.479-1.754-15.811-8.906-24.768-5.573-6.965-17.248-10.082-26.346-10.082zm17.254 35.268c-1.559 9.314-4.965 11.73-8.322 13.404-1.154.576-2.635.867-4.404.867-2.203 0-4.336-.447-5.109-.631h-3.988-7.262c-1.242 0-2.25-1.008-2.254-2.252v-11.761-9.948c0-2.135-.994-7.402-1.379-9.252-.246-1.188.492-2.355 1.676-2.643l5.836-1.424c.184-.043.355-.064.539-.064 1.346 0 13.324.092 18.012 3.221 5.503 3.668 8.116 11.707 6.655 20.483z" fill="none"/><path d="m191.189-20.646c-3.557 0-6.867-.219-9.787-.412-2.293-.148-4.273-.281-5.939-.281-1.756 0-2.955.152-3.562.455-2.49 1.246-7.049 1.629-9.779 1.75-.035.125-.086.252-.146.371l-1.324 2.641v11.965 34.334 26.545c0 3.24.459 3.82.514 3.875.225.125 1.209.125 1.93.125h11.051c2.453 0 4.777 0 5.514-.268.021-.105.041-.299.041-.609v-6.059l-1.535-9.178c-.109-.654.078-1.32.504-1.824.428-.504 1.055-.797 1.717-.797h9.094c3.842 0 4.936 1.92 5.25 3.033l3.01 6.012 4.186 8.127h4.998c.082 0 .172 0 .25.012l12.969 1.441 1.148-1.145-5.395-9.432-6.246-10.932c-.605-1.061-.25-2.414.797-3.045 6.609-3.965 14.434-12.494 15.988-21.855 1.248-7.48-1.75-15.814-8.9-24.768-5.572-6.96-17.252-10.081-26.348-10.081zm17.248 35.268c-1.545 9.314-4.955 11.729-8.312 13.404-1.154.576-2.633.867-4.402.867-2.203 0-4.336-.447-5.109-.631h-3.992-7.266c-1.242 0-2.25-1.008-2.254-2.252v-11.761-9.948c0-2.135-.994-7.402-1.379-9.252-.246-1.188.492-2.357 1.672-2.643l5.848-1.424c.176-.043.354-.064.531-.064 1.352 0 13.328.092 18.012 3.221 5.499 3.668 8.108 11.705 6.651 20.483z" fill="none"/><path d="m422.59-17.576c-2.617-1.797-10.602-5.982-28.121-5.982-15.07 0-24.287 1.549-24.375 1.561-.125.023-.254.033-.381.033h-.854c-.084 8.766-.648 13.959-1.77 16.27-.848 1.98-.33 14.338-.051 20.982.145 3.463.271 6.457.271 8.33 0 6.096 1.498 13.842 1.512 13.924.094.475.029.973-.186 1.412-.008.021-1.326 2.848-1.326 6.992v11.156c0 .293 0 .627.006.908.598.035 1.504.035 2.396.035h27.844c6.85 0 20.479-2.877 27.971-9.059 7.537-6.215 14.656-12.078 14.656-34.936.001-17.313-9.403-25.997-17.592-31.626zm-.295 48.532c-1.658 6.861-9.656 10.447-13.475 10.447h-4.227-7.691c-2.152 1.184-6.143 1.457-9.336 1.457-1.236 0-2.25-1.008-2.25-2.25v-5.816-8.93-8.719c0-.119.016-.24.035-.357l1.354-8.373-1.365-8.461c-.027-.117-.035-.234-.035-.354v-7.27c0-1.154.873-2.121 2.027-2.238.262-.029 6.486-.662 12.006-.662 3.463 0 5.889.252 7.395.768.381.135.785.264 1.219.404 4.26 1.375 11.385 3.668 14.299 12.672 3.044 9.406 1.468 21.832.044 27.682z" fill="none"/><path d="m495.195 12.334 1.48-13.904v-9.223-7.525l-1.011-4.238h-1.2-7.262l-8.758 1.527c-.129.021-.258.033-.387.033h-.73v5.537c0 .141-.016.285-.043.422l-1.447 7.578v19.822l1.447 7.57c.074.369.053.75-.062 1.107l-1.387 4.34v29.893l1.688 1.781h3.129l4.115-1.441c.24-.082.49-.123.74-.123.113 0 .223.006.336.023l9.273 1.389 1.559-1.629v-3.768c0-.088.008-.176.016-.264l1.473-12.33v-10.547l-2.934-15.367c-.051-.217-.058-.44-.035-.663z" fill="none"/><path d="m586.422-9.851c.359 0 .586-.033.711-.068-.012-.324-.188-.92-.395-1.33-.17-.32-.258-.686-.258-1.047v-9.312-1.709l-1.27-.633-13.309 1.48c-.076.008-.168.012-.25.012h-21.609l-15.398 1.539c-.066.01-.145.012-.223.012-.098 0-.207-.004-.312-.02l-9.004-1.285-.844 2.523v8.838h.125 17.777c.254 0 .506.041.746.129l3.023 1.061c.961.346 1.576 1.283 1.496 2.297l-1.537 19.861 1.529 13.752c.018.146.02.301.006.447l-1.545 16.969v10.76c0 .615 0 2.221.25 2.648h.018c.041 0 .139.018.293.018.346 0 .783-.064 1.303-.193 2.037-.51 4.123-.756 6.375-.756 1.906 0 3.766.17 5.562.34 1.848.164 3.754.346 5.785.346.836 0 1.33-.064 1.605-.129-.041-.375-.158-.932-.25-1.371-.223-1.09-.512-2.449-.512-4.008v-20.165-12.143l-1.473-5.934c-.104-.416-.09-.85.047-1.254l1.432-4.312v-16.496c0-1.193.939-2.182 2.131-2.248 0 0 1.02-.057 2.697-.057 3.35 0 8.4.217 13.465 1.229.703.141 1.315.209 1.813.209z" fill="none"/><path d="m637.773-4.623c-.215-.193-.451-.41-.703-.662-.391-.387-1.648-.674-2.535-.68-1.203 0-2.254-.832-2.543-2.021-.586-2.303 2.512-4.395 5.203-5.744.273-.139.492-.246.326-.721l-3.393-4.512h-.98l-2.367 1.182c-.059.033-.127.061-.188.088-.32.123-.66.186-.992.186-.477 0-.949-.129-1.359-.375-.82-.51-1.273-1.348-1.273-2.256v-2.918c0-.223.055-.564.123-.777.15-.453.176-.711.176-.836-.104-.047-.26-.088-.412-.113-1.332.322-5.025 1.174-7.805 1.402.014.102.025.215.025.336v2.928c0 .9-.447 1.725-1.201 2.205-.328.248-.879.432-1.445.432-.254 0-.621-.061-.855-.145l-3.617-1.209c-.93 1.447-2.438 3.865-3.344 5.664.25.246.867.613 1.375.789.156.055.32.133.463.223l3.615 2.271c.814.471 1.316 1.344 1.316 2.281 0 .988-.574 1.916-1.463 2.359l-3.119 1.561 1.371 1.949 2.23-1.492c.42-.281.934-.445 1.461-.445.445 0 .883.117 1.273.334.777.422 1.285 1.213 1.359 2.092l.562 4.219c.018.1.027.199.027.299 0 .141-.031.367-.059.51-.02.098-.045.229-.082.322-.129.393-.197.691-.234.914l7.961-.002c.27 0 .443-.027.539-.051.016-.188-.031-.586-.109-.873-.316-.92-.078-1.957.611-2.66.467-.504 1.17-.805 1.889-.805.25 0 .629.066.865.143l2.812.938.311-.307c.023-.023 2.652-2.688 3.887-5.162.18-.363.297-.621.363-.801-.022-.019-.041-.042-.065-.06z" fill="none"/><path d="m454.328 45.243c-2.336 0-3.299 1.137-4.414 2.461-.186.223-.363.434-.539.627l-1.109 3.328c.039 2.15.391 4.482.773 5.033 1.504 1.5 3.734 1.822 5.328 1.822 1.947 0 3.635-.492 4.48-.92 1.826-.908 2.916-2.748 2.916-4.91 0-2.092-1.088-4.307-2.109-5.332-1.225-1.225-2.109-2.109-5.326-2.109z" fill="none"/><path d="m520.367 45.87c-2.273 0-3.227 1.137-4.332 2.467-.184.223-.363.439-.539.633l-1.098 3.369c.039 2.18.387 4.547.77 5.104 1.484 1.506 3.68 1.828 5.242 1.828 1.926 0 3.58-.498 4.406-.92 1.809-.92 2.879-2.777 2.879-4.969 0-2.127-1.068-4.365-2.082-5.391-1.258-1.283-2.08-2.121-5.246-2.121z" fill="none"/><path d="m588.324 44.991c-2.424 0-3.422 1.184-4.578 2.549-.191.223-.377.451-.564.656l-1.148 3.439c.037 2.232.408 4.658.811 5.221 1.57 1.57 3.877 1.904 5.529 1.904 2.018 0 3.764-.51 4.643-.949 1.895-.949 3.023-2.859 3.023-5.104 0-2.174-1.125-4.465-2.18-5.52-1.286-1.276-2.206-2.196-5.536-2.196z" fill="none"/><g fill="#fff"><path d="m-186.359 6.869-1.131-24.713v-17.503l-12.817.806-15.232-.009.696 27.185-.531 14.234h-22.46l-19.75 1.446.785 25.108 21.252 1.415 21.258.006-.551 14.65-.003.086.702 26.84 26.651-1.566v-16.319l1.126-22.562 22.069-1.127h16.593l-.743-17.077.839-10.899h-38.753zm-23.96 24.72-1.57-1.57-9.413-.589-10.965-.687-2.08.687-1.716.566-16.36-1.212-.566-4.493v-11.983l8.288-.006 10.02-1.246 20.899 1.228.615.036.036-.036 2.182-2.188-.63-28.427v-12.041l18.969-.593.604 20.769-.211 7.475-.427 15.062 1.111-.062 22.021-1.223h15.332l.088 1.229.308 4.307.815 11.41-.493 1.992-14.365-.387-8.6-.231-14.925.653-.034.779-1.237 28.647 1.249 11.266v.693h-18.974l-.605-13.887z"/><path d="m-111.682-24.231-1.466-4.401h-21.777l-1.318 3.959-.813 2.794v62.699l.012-.006.673 24.476 1.741 3.491h20.603l3.015-3.015v-13.486h-1.355l1.353-.052-.652-16.892.654-2.602v-43.887l-.668-6.787v-6.291zm-21.846 88.46-.033-.065.028-.112 1.271-5.089-.667-10.313.662-5.973v-20.643l-.663-19.244.665-16.297v-8.981l2.268-1.698h10.611l1.627 1.083.031.217.301 2.097.301 2.096.658 3.865v20.238l-.291 12.495-.362 15.56-.013.562.001 8.674.002 12.645.372 3.509.276 2.602-.276.551-.514 1.027-.305.609-6.709.006-8.894 1.269z"/><path d="m-268.442-25.626-3.01-3.006h-20.59l-1.754 3.477-.684 25.104.65 4.584-.636 8.338-.008 36.748.682 14.826 1.453 4.332h21.774l1.462-4.4v-12.342l.655-9.534.007-35.084-.649-2.606.647-16.885zm-21.981.163 11.798 1.276h3.628l.65 1.3.159.319.264.529-.264 1.311-.37 1.834v16.304 8.028l.031 1.321.338 14.628.292 12.637.001 11.224-.657 12.914-.297 2.081-.33 2.311-.718.479-.912.607h-10.612l-2.266-1.698v-24.12l-.663-1.27.663-19.154-.002-20.665-.669-8.859.677-7.375-1.245-4.969-.059-.236.385-.774z"/><path d="m-14.879-25.587c-3.393-1.701-10.188-1.695-10.188-1.695s-10.172 1.695-13.562 1.695c-3.395 0-5.09 0-5.09 5.088 0 5.096 1.695 22.057 1.695 22.057l1.691 5.086-1.695 11.877c0 13.568 1.695 22.051-1.697 23.75-3.393 1.697-5.092-1.695-6.785-5.088-1.701-3.398-6.785 1.691-6.785 1.691l-5.088 5.092s-5.09 3.396-8.482 5.092c-3.393 1.691-3.396 3.393 1.697 8.473 5.082 5.09 15.266 11.877 28.83 10.188 13.58-1.691 18.666-6.789 22.061-11.881 3.393-5.086 3.393-11.871 3.393-11.871l1.697-6.787c0-5.09 0-16.961 0-16.961l1.691-20.361-1.691-13.568c-.001-8.487 1.698-10.178-1.692-11.877zm-30.008 87.394c-11.283 0-17.965-5.805-19.746-7.582-2.074-2.068-2.691-3.041-2.871-3.451.133-.1.375-.252.781-.457 3.098-1.547 7.574-4.535 7.764-4.658.178-.117.33-.258.467-.418l2.922-3.453c.777-.75 1.871-1.512 2.488-1.746.85 1.666 3.082 5.588 7.752 5.588 1.85 0 3.873-.645 6.018-1.916 3.281-1.938 3.094-7.611 2.801-17.006-.086-2.686-.188-5.736-.188-8.83l1.482-10.371c.047-.291.025-.588-.047-.877l-2.578-10.08c-.879-8.762-.877-9.012-.838-12.812.018-1.008.029-2.254.029-3.951-.006-1.871.072-1.871 2.166-1.871l.609.002.684.004c2.812 0 8.438.812 8.566.83 1.418.156 5.562.799 7.732 1.881.451.23.568.363.572.363.129.291.035 1.506-.059 2.58-.109 1.342-.258 3.18-.258 5.574 0 .092.004.186.016.279l1.477 11.797-1.484 17.816c-.006.062-.008.125-.008.186v14.76l-1.439 5.746c-.045.18-.061.363-.061.545 0 .053-.07 5.443-2.658 9.324-2.977 4.465-7.057 10.582-18.023 11.953-1.361.169-2.728.251-4.068.251z"/><path d="m62.492 42.268c-3.395 0-13.578 0-13.578 0l-10.176 1.691-6.793-1.691h-6.785v-8.641h18.664 10.184c3.391 0 3.391.002 3.391-5.082 0-5.092 0-5.771 0-10.861s-1.688-5.09-5.086-5.09-13.57-1.697-13.57-1.697l-13.57 1.697v-5.949-6.787h13.57l16.969-1.691s5.084 1.691 6.785 0c1.688-1.691-1.699-5.092-1.699-5.092l1.699-6.785v-10.178s-1.699 0-8.484 0-30.535 0-30.535 0h-15.267l-5.09 1.693h-4.051l-.332-.051.004.051h-2.422v18.664 10.174 16.967l-1.688 20.355v15.27s0 8.482 5.09 8.482h13.564l11.873 1.689h30.547c8.473 0 10.176 0 10.176-8.479s0-15.264 0-15.264.001-3.395-3.39-3.395zm-2.74 16.369c0 1.043 0 4.219-.752 4.758-.734.521-3.07.521-6.033.521h-26.954l-10.383-1.482c-.105-.018-.211-.023-.316-.023h-12.047c-1.561 0-1.898-.211-1.916-.223-.351-.451-.351-2.895-.351-5.057v-16.455l1.496-17.976c.008-.062.01-.125.01-.186v-15.062-9.029c0-.055-.002-.109-.006-.166l-1.307-17.85 4.336.662c.111.02.225.027.34.027.24 0 .48-.039.703-.117l4.178-1.385h13.184c.088 0 .18-.002.262-.016.062-.012 6.998-.803 14.797-.803 4.543 0 8.477.264 11.688.785 1.867.305 3.541.459 4.953.459.24 0 .469-.002.686-.014v.23l-1.078 8.895c-.084.686.152 1.373.643 1.863.352.352.773.9 1.031 1.348-.051 0-.104.002-.162.002-1.148 0-2.613-.402-3.08-.555-.23-.08-.469-.117-.705-.117-.082 0-.17.002-.248.012l-18.631 2.067-11.121-.57c-.043 0-.074-.002-.113-.002-.615 0-1.207.252-1.635.701-.451.479-.678 1.127-.604 1.785l.781 7.389-.787 12.535c-.049.684.225 1.346.729 1.809.42.379.953.586 1.516.586.117 0 .238-.01.355-.029l16.652-2.66c1.877.379 8.68 1.717 11.545 1.717.328 0 .557.016.697.029.111.645.111 2.049.111 3.209v5.75c0 .83 0 1.68-.035 2.258-.223.004-.486.004-.732.004-2.855 0-12.969-.98-13.072-.992-.07-.008-.143-.012-.217-.012-.051 0-.098 0-.146.004l-15.305 1.002c-1.189.08-2.104 1.062-2.104 2.248v12.984c0 1.242 1.008 2.25 2.25 2.25h8.746l5.756 1.438c.178.043.361.064.545.064.123 0 .246-.01.369-.029l8.854-1.477h11.865c.34 0 .727 0 .762.768z"/><path d="m191.418-25.595c-6.793.008-12.82-.748-17.098-.748-2.137 0-3.826.189-4.961.754-3.387 1.693-11.867 1.697-11.867 1.697v1.695l-1.703 3.387v13.578 37.312 28.842s1.703 6.785 5.098 6.785h15.266c6.777 0 8.48 0 8.48-3.398 0-3.393 0-6.785 0-6.785l-1.695-10.172h5.09c3.391 0 3.391 1.693 3.391 1.693l3.391 6.779 6.797 10.186h10.18l15.266 1.697 3.391-3.398-6.785-11.871-6.785-11.875c8.479-5.088 13.564-15.27 15.266-25.443 1.691-10.176-3.389-20.355-10.176-28.842-6.796-8.485-20.359-11.873-30.546-11.873zm-1.94 67.582h-9.094c-.662 0-1.289.293-1.717.797-.426.504-.613 1.17-.504 1.824l1.535 9.178v6.059c0 .311-.02.504-.041.609-.736.268-3.061.268-5.514.268h-11.051c-.721 0-1.705 0-1.93-.125-.055-.055-.514-.635-.514-3.875v-26.546-34.334-11.965l1.324-2.641c.061-.119.111-.246.146-.371 2.73-.121 7.289-.504 9.779-1.75.607-.303 1.807-.455 3.562-.455 1.666 0 3.646.133 5.939.281 2.92.193 6.23.412 9.787.412 9.096 0 20.775 3.121 26.344 10.082 7.15 8.953 10.148 17.287 8.9 24.768-1.555 9.361-9.379 17.891-15.988 21.855-1.047.631-1.402 1.984-.797 3.045l6.246 10.932 5.395 9.432-1.148 1.145-12.969-1.441c-.078-.012-.168-.012-.25-.012h-4.998l-4.186-8.127-3.01-6.012c-.31-1.113-1.404-3.033-5.246-3.033z"/><path d="m316.949-25.587c-5.092 0-13.566 0-13.566 0h-11.875l-5.094 10.184-6.783 13.568-6.791 10.181-6.785-13.568-11.875-18.664h-13.566l-6.793 1.695h-5.016c-2.398 0-3.461 0-1.766 1.691 1.697 1.691 10.18 18.664 10.18 18.664s6.785 13.568 10.174 20.355c3.398 6.785 11.881 16.963 11.881 16.963v11.879s-1.691 11.873-1.691 15.262c0 3.391 0 5.094 5.086 5.094s20.352 0 23.746 0 3.4-5.094 3.4-5.094v-6.787l-1.697-16.963-1.699-3.391 5.096-8.48 10.174-15.27 6.793-13.568s8.486-11.877 11.875-16.969c3.373-5.087 1.674-6.782-3.408-6.782zm-31.227 84.412c0 .967-.363 2.299-.727 2.502h-20.785c-1.57 0-2.027-.229-2.059-.229-.004 0-.004 0-.004 0-.152-.287-.152-1.436-.152-2.273 0-2.467 1.062-10.893 1.469-13.934.016-.1.02-.199.02-.299v-11.08c0-.502-.172-.988-.477-1.385-.074-.094-7.307-9.371-10.137-15.391l-8.906-18.988c-1.801-3.83-5.574-11.779-7.857-15.781h2.85c.191 0 .391-.025.572-.076l5.658-1.502h7.314l9.717 16.27 8.93 15.656c.383.666 1.074 1.092 1.838 1.131.041 0 .072.002.117.002.721 0 1.406-.348 1.822-.938l8.947-12.496c.08-.109.15-.23.209-.354l5.934-12.654 3.854-8.201h5.965l11.896-.004c1.381 0 2.002.174 2.248.275-.045.305-.236 1.088-1.189 2.611-2.912 4.662-10.281 15.65-10.355 15.762-.062.096-.121.195-.168.297l-5.887 12.537-8.885 14.215-4.459 7.908c-.357.633-.387 1.402-.07 2.064l1.316 2.807 1.441 15.324z"/><path d="m108.293-25.595c-6.789.008-12.822-.748-17.098-.748-2.135 0-3.824.189-4.957.754-3.391 1.693-11.873 1.697-11.873 1.697v1.695l-1.697 3.387v13.578 37.312 28.842s1.697 6.785 5.094 6.785h15.262s8.482 0 8.482-3.398c0-3.393 0-6.785 0-6.785l-1.697-10.172h5.09c3.395 0 3.395 1.693 3.395 1.693l3.395 6.779 6.787 10.186h10.182l15.262 1.697 3.398-3.398-6.785-11.871-6.789-11.875c8.484-5.088 13.57-15.27 15.27-25.443 1.689-10.176-3.396-20.355-10.176-28.842-6.799-8.485-20.364-11.873-30.545-11.873zm-1.387 67.586h-9.094c-.664 0-1.289.291-1.711.795-.434.504-.613 1.174-.504 1.824l1.527 9.176v6.061c0 .314-.02.504-.039.613-.736.264-3.066.264-5.52.264h-11.046c-.719 0-1.703 0-1.924-.123-.059-.059-.514-.637-.514-3.875v-26.55-34.334-11.965l1.32-2.641c.062-.119.109-.246.145-.371 2.73-.121 7.293-.508 9.771-1.75.611-.303 1.811-.455 3.572-.455 1.664 0 3.646.133 5.943.281 2.918.193 6.223.412 9.783.412 9.098 0 20.773 3.117 26.344 10.082 7.152 8.957 10.15 17.289 8.906 24.768-1.566 9.369-9.387 17.896-15.994 21.855-1.055.627-1.404 1.984-.803 3.049l6.258 10.928 5.387 9.434-1.148 1.146-12.969-1.445c-.082-.006-.172-.012-.25-.012h-4.992l-4.191-8.121-3.008-6.012c-.311-1.118-1.403-3.034-5.249-3.034z"/><path d="m426.91-20.777c-5.09-3.389-15.268-6.783-32.23-6.783-16.957 0-27.141 1.695-27.141 1.695h-3.393c0 3.389-.002 15.271-1.699 18.658-1.689 3.393 0 25.445 0 32.232 0 6.785 1.699 15.27 1.699 15.27s-1.699 3.398-1.699 8.486v11.865s.01 3.398 5.092 3.398h30.533c8.482 0 23.76-3.398 32.236-10.184s16.961-13.566 16.961-39.02c0-18.66-10.175-28.828-20.359-35.617zm13.273 34.828c0 22.857-7.119 28.721-14.656 34.936-7.492 6.182-21.121 9.059-27.971 9.059h-27.844c-.893 0-1.799 0-2.396-.035-.006-.281-.006-.615-.006-.908v-11.157c0-4.145 1.318-6.971 1.326-6.992.215-.439.279-.938.186-1.412-.014-.082-1.512-7.828-1.512-13.924 0-1.873-.127-4.867-.271-8.33-.279-6.645-.797-19.002.051-20.982 1.121-2.311 1.686-7.504 1.77-16.27h.854c.127 0 .256-.01.381-.033.088-.012 9.305-1.561 24.375-1.561 17.52 0 25.504 4.186 28.121 5.982 8.188 5.629 17.592 14.313 17.592 31.627z"/><path d="m499.851-2.115-.004-10.172.004-8.486-1.689-6.791h-3.396-8.477l-10.182 1.701h-3.396l.008 8.479-1.7 8.484-.008 22.055 1.699 8.477-1.699 5.088v33.928l3.396 3.404h5.088l5.094-1.705 11.871 1.705 3.398-3.404v-5.086l1.688-13.566v-11.872l-3.395-16.957zm-3.16 53.358c-.008.088-.016.176-.016.264v3.768l-1.559 1.629-9.273-1.389c-.113-.018-.223-.023-.336-.023-.25 0-.5.041-.74.123l-4.115 1.441h-3.129l-1.688-1.781v-29.894l1.387-4.34c.115-.357.137-.738.062-1.107l-1.447-7.57v-19.822l1.447-7.578c.027-.137.043-.281.043-.422v-5.537h.73c.129 0 .258-.012.387-.033l8.758-1.527h7.262 1.2l1.011 4.238v7.525 9.223l-1.48 13.904c-.023.223-.016.445.035.662l2.934 15.367v10.549z"/><path d="m571.109 33.514v-13.58l-1.697-6.779 1.697-5.086v-11.877s3.766-.756 8.793-.756c2.512 0 5.34.191 8.166.756.564.111 1.078.168 1.547.168 6.506 0 3.549-10.352 3.549-10.352v-10.178-3.391l-3.402-1.701-15.264 1.701h-23.752l-16.961 1.695-11.879-1.695-1.688 5.084v13.57s0 3.393 3.391 3.393 16.953 0 16.953 0h1.709l-1.701 18.668 1.701 15.27-1.701 18.658v11.877c0 2.854.107 5.373 3.074 5.373.566 0 1.229-.088 2.016-.287 2.262-.562 4.711-.75 7.227-.75 5.027 0 10.303.75 14.832.75 6.779 0 3.391-3.387 3.391-8.479s-.001-22.052-.001-22.052zm-25.226 10.151 1.545-16.969c.014-.146.012-.301-.006-.447l-1.529-13.752 1.537-19.861c.08-1.014-.535-1.951-1.496-2.297l-3.023-1.061c-.24-.088-.492-.129-.746-.129h-17.777c-.045 0-.086 0-.125 0v-8.838l.844-2.523 9.004 1.285c.105.016.215.02.312.02.078 0 .156-.002.223-.012l15.398-1.539h21.609c.082 0 .174-.004.25-.012l13.309-1.48 1.27.633v1.709 9.312c0 .361.088.727.258 1.047.207.41.383 1.006.395 1.33-.125.035-.352.068-.711.068-.498 0-1.109-.068-1.811-.209-5.064-1.012-10.115-1.229-13.465-1.229-1.678 0-2.697.057-2.697.057-1.191.066-2.131 1.055-2.131 2.248v16.496l-1.432 4.312c-.137.404-.15.838-.047 1.254l1.473 5.934v12.143 20.164c0 1.559.289 2.918.512 4.008.092.439.209.996.25 1.371-.275.064-.77.129-1.605.129-2.031 0-3.938-.182-5.785-.346-1.797-.17-3.656-.34-5.562-.34-2.252 0-4.338.246-6.375.756-.52.129-.957.193-1.303.193-.154 0-.252-.018-.293-.018-.01 0-.014 0-.018 0-.25-.428-.25-2.033-.25-2.648v-10.759z"/><path d="m642.019-6.886c-1.543-1.545-4.734-1.562-4.77-1.562-.215 0-.387-.152-.438-.346-.082-.348-.082-.348 3.625-2.203 2.941-1.463 1.555-4.361 1.49-4.484l-4.91-6.533h-3.061l-3.303 1.646c-.064.027-.141.043-.205.043-.078 0-.168-.023-.234-.064-.125-.08-.211-.219-.211-.381v-3.391c0-.043.016-.092.027-.137.469-1.404.43-2.5-.117-3.258-.854-1.23-2.809-1.252-2.828-1.252-.168.051-6.773 1.691-10.18 1.691-.766 0-1.275.186-1.5.559-.406.643.008 1.801.211 2.189.02.061.043.127.043.195v3.396c0 .146-.064.281-.184.359-.082.057-.186.092-.279.092-.047 0-.088-.008-.139-.023l-5.012-1.672h-1.387c-.641.969-3.445 5.285-4.924 8.227-.352.693-.396 1.328-.141 1.939.68 1.643 3.248 2.521 3.271 2.527l3.443 1.715c.158.078.248.234.248.406 0 .17-.09.326-.248.398l-6.322 3.176 6.258 9.381 4.711-3.143c.066-.057.16-.08.242-.08.074 0 .152.023.207.059.152.082.246.234.246.398v3.391c0 .049-.012.096-.023.141-.584 1.742-.607 3.055-.07 3.799.488.684 1.336.695 1.338.695h10.178c1.312 0 2.219-.355 2.723-1.053.945-1.309.254-3.422.246-3.441-.057-.162-.012-.338.105-.455.082-.084.191-.141.316-.141.049 0 .094.012.148.029l4.824 1.611 1.496-1.5c.037-.035 3.359-3.387 5-6.668 1.61-3.203 1.633-4.726.09-6.275zm-26.445-10.739c.234.084.602.145.855.145.566 0 1.117-.184 1.445-.432.754-.48 1.201-1.305 1.201-2.205v-2.928c0-.121-.012-.234-.025-.336 2.779-.229 6.473-1.08 7.805-1.402.152.025.309.066.412.113 0 .125-.025.383-.176.836-.068.213-.123.555-.123.777v2.918c0 .908.453 1.746 1.273 2.256.41.246.883.375 1.359.375.332 0 .672-.062.992-.186.061-.027.129-.055.188-.088l2.367-1.182h.98l3.393 4.512c.166.475-.053.582-.326.721-2.691 1.35-5.789 3.441-5.203 5.744.289 1.189 1.34 2.021 2.543 2.021.887.006 2.145.293 2.535.68.252.252.488.469.703.662.023.018.043.041.066.059-.066.18-.184.438-.363.801-1.234 2.475-3.863 5.139-3.887 5.162l-.311.307-2.812-.938c-.236-.076-.615-.143-.865-.143-.719 0-1.422.301-1.889.805-.689.703-.928 1.74-.611 2.66.078.287.125.686.109.873-.096.023-.27.051-.539.051l-7.961.002c.037-.223.105-.521.234-.914.037-.094.062-.225.082-.322.027-.143.059-.369.059-.51 0-.1-.01-.199-.027-.299l-.562-4.219c-.074-.879-.582-1.67-1.359-2.092-.391-.217-.828-.334-1.273-.334-.527 0-1.041.164-1.461.445l-2.23 1.492-1.371-1.949 3.119-1.561c.889-.443 1.463-1.371 1.463-2.359 0-.938-.502-1.811-1.316-2.281l-3.615-2.271c-.143-.09-.307-.168-.463-.223-.508-.176-1.125-.543-1.375-.789.906-1.799 2.414-4.217 3.344-5.664z"/><path d="m454.054 41.989c-5.086 0-6.785 3.395-8.484 5.094l-1.688 5.086s0 6.785 1.688 8.473c2.309 2.309 5.529 3.123 8.547 3.123 2.648 0 5.145-.627 6.73-1.424 3.391-1.699 5.082-5.086 5.082-8.479 0-3.398-1.691-6.785-3.393-8.479-1.692-1.695-3.388-3.394-8.482-3.394zm.274 3.254c3.217 0 4.102.885 5.326 2.109 1.021 1.025 2.109 3.24 2.109 5.332 0 2.162-1.09 4.002-2.916 4.91-.846.428-2.533.92-4.48.92-1.594 0-3.824-.322-5.328-1.822-.383-.551-.734-2.883-.773-5.033l1.109-3.328c.176-.193.354-.404.539-.627 1.115-1.325 2.078-2.461 4.414-2.461z"/><path d="m520.217 41.989c-5.088 0-6.791 3.395-8.484 5.094l-1.697 5.086s0 6.785 1.697 8.473c2.303 2.309 5.521 3.123 8.541 3.123 2.648 0 5.141-.627 6.729-1.424 3.396-1.699 5.092-5.086 5.092-8.479 0-3.398-1.695-6.785-3.398-8.479-1.693-1.695-3.393-3.394-8.48-3.394zm4.599 16.361c-.826.422-2.48.92-4.406.92-1.562 0-3.758-.322-5.242-1.828-.383-.557-.73-2.924-.77-5.104l1.098-3.369c.176-.193.355-.41.539-.633 1.105-1.33 2.059-2.467 4.332-2.467 3.166 0 3.988.838 5.246 2.121 1.014 1.025 2.082 3.264 2.082 5.391 0 2.192-1.07 4.049-2.879 4.969z"/><path d="m588.068 41.989c-5.08 0-6.779 3.395-8.475 5.094l-1.695 5.086s0 6.785 1.695 8.473c2.299 2.309 5.52 3.123 8.535 3.123 2.652 0 5.148-.627 6.736-1.424 3.389-1.699 5.076-5.086 5.076-8.479 0-3.398-1.688-6.785-3.389-8.479-1.692-1.695-3.387-3.394-8.483-3.394zm4.947 15.822c-.879.439-2.625.949-4.643.949-1.652 0-3.959-.334-5.529-1.904-.402-.562-.773-2.988-.811-5.221l1.148-3.439c.188-.205.373-.434.564-.656 1.156-1.365 2.154-2.549 4.578-2.549 3.33 0 4.25.92 5.535 2.197 1.055 1.055 2.18 3.346 2.18 5.52.002 2.244-1.127 4.154-3.022 5.103z"/><path d="m125.871 14.622c1.461-8.775-1.152-16.814-6.656-20.482-4.688-3.129-16.666-3.221-18.012-3.221-.184 0-.355.021-.539.064l-5.836 1.424c-1.184.287-1.922 1.455-1.676 2.643.385 1.85 1.379 7.117 1.379 9.252v9.947 11.761c.004 1.244 1.012 2.252 2.254 2.252h7.262 3.988c.773.184 2.906.631 5.109.631 1.77 0 3.25-.291 4.404-.867 3.358-1.674 6.764-4.09 8.323-13.404zm-14.719 11.646c-1.83 0-3.199-.688-3.199-.688h-4.631l-4.635.002v-10.8s0-7.721 0-10.812c0-3.084-1.543-6.172-1.543-6.172l3.086-1.541c.074 0 10.816.004 15.438 3.084 4.629 3.084 7.715 6.178 6.182 15.438-1.553 9.262-4.635 9.262-7.723 10.803-1.03.512-2.065.686-2.975.686z"/><path d="m208.437 14.622c1.457-8.777-1.152-16.814-6.652-20.482-4.684-3.129-16.66-3.221-18.012-3.221-.178 0-.355.021-.531.064l-5.848 1.424c-1.18.285-1.918 1.455-1.672 2.643.385 1.85 1.379 7.117 1.379 9.252v9.947 11.761c.004 1.244 1.012 2.252 2.254 2.252h7.266 3.992c.773.184 2.906.631 5.109.631 1.77 0 3.248-.291 4.402-.867 3.358-1.676 6.768-4.09 8.313-13.404zm-14.154 11.646c-1.828 0-3.197-.688-3.197-.688h-4.641l-4.629.002v-10.8s0-7.721 0-10.812c0-3.084-1.547-6.172-1.547-6.172l3.09-1.541c.072 0 10.818.004 15.436 3.084 4.631 3.084 7.717 6.178 6.178 15.438-1.547 9.262-4.629 9.262-7.713 10.803-1.032.512-2.065.686-2.977.686z"/><path d="m407.951-9.398c-.434-.141-.838-.27-1.219-.404-1.506-.516-3.932-.768-7.395-.768-5.52 0-11.744.633-12.006.662-1.154.117-2.027 1.084-2.027 2.238v7.27c0 .119.008.236.035.354l1.365 8.461-1.354 8.373c-.02.117-.035.238-.035.357v8.719 8.93 5.816c0 1.242 1.014 2.25 2.25 2.25 3.193 0 7.184-.273 9.336-1.457h7.691 4.227c3.818 0 11.816-3.586 13.475-10.447 1.424-5.85 3-18.275-.045-27.682-2.913-9.004-10.038-11.297-14.298-12.672zm-6.713 47.654h-4.641c-1.547 1.541-6.188 1.541-6.188 1.541v-6.184-6.197-9.275l1.551-9.287-1.551-6.188v-7.734s3.441-.686 7.105-.686c1.834 0 3.727.17 5.273.686 4.637 1.547 12.375 3.094 15.465 12.381 3.102 9.281 1.547 15.469 0 21.656-1.539 6.188-9.281 9.287-12.375 9.287-3.088 0-4.639 0-4.639 0z"/><g enable-background="new"><path d="m-267.596 96.563-.813 8.898 8.899-2.285.461 2.879-8.679.857 5.427 7.471-2.725 1.559-4.197-8.326-3.955 8.326-2.747-1.559 5.317-7.471-8.569-.857.417-2.879 8.811 2.285-.857-8.898z"/><path d="m-225.038 114.383c0 5.391-1.414 9.465-4.241 12.227s-6.98 4.143-12.458 4.143h-7.69v-32.126h8.679c5.127 0 9.027 1.342 11.7 4.021 2.673 2.683 4.01 6.593 4.01 11.735zm-2.439.088c0-4.6-1.168-8.061-3.505-10.383s-5.768-3.482-10.294-3.482h-5.911v28.168h5.317c9.596 0 14.393-4.768 14.393-14.303z"/><path d="m-195.751 118.778c0 3.896-.945 6.939-2.834 9.129s-4.497 3.285-7.822 3.285c-2.095 0-3.94-.506-5.537-1.516-1.597-1.012-2.82-2.461-3.669-4.352-.85-1.889-1.274-4.072-1.274-6.547 0-3.896.945-6.934 2.834-9.109 1.89-2.174 4.482-3.262 7.778-3.262 3.281 0 5.855 1.102 7.724 3.307 1.866 2.205 2.8 5.227 2.8 9.065zm-18.853 0c0 3.281.721 5.84 2.165 7.678 1.442 1.84 3.482 2.758 6.119 2.758s4.676-.918 6.119-2.758c1.443-1.838 2.165-4.396 2.165-7.678 0-3.297-.729-5.854-2.186-7.67-1.458-1.816-3.505-2.725-6.142-2.725s-4.669.904-6.098 2.715c-1.427 1.809-2.142 4.369-2.142 7.68z"/><path d="m-171.499 130.752v-32.125h2.241v32.125z"/><path d="m-151.704 129.258c1.377 0 2.578-.117 3.604-.352v1.758c-1.055.352-2.271.527-3.647.527-2.109 0-3.666-.564-4.669-1.691-1.003-1.129-1.505-2.9-1.505-5.318v-15.424h-3.538v-1.275l3.538-.988 1.099-5.406h1.121v5.779h7.009v1.891h-7.009v15.117c0 1.83.322 3.186.967 4.064s1.653 1.318 3.03 1.318z"/><path d="m-116.927 130.752h-2.263v-30.016h-10.437v-2.109h23.137v2.109h-10.437z"/><path d="m-79.817 118.778c0 3.896-.945 6.939-2.834 9.129s-4.497 3.285-7.822 3.285c-2.095 0-3.94-.506-5.537-1.516-1.597-1.012-2.82-2.461-3.669-4.352-.85-1.889-1.274-4.072-1.274-6.547 0-3.896.945-6.934 2.834-9.109 1.89-2.174 4.482-3.262 7.778-3.262 3.281 0 5.855 1.102 7.724 3.307 1.866 2.205 2.8 5.227 2.8 9.065zm-18.853 0c0 3.281.721 5.84 2.165 7.678 1.442 1.84 3.482 2.758 6.119 2.758s4.676-.918 6.119-2.758c1.443-1.838 2.165-4.396 2.165-7.678 0-3.297-.729-5.854-2.186-7.67-1.458-1.816-3.505-2.725-6.142-2.725s-4.669.904-6.098 2.715c-1.427 1.809-2.142 4.369-2.142 7.68z"/><path d="m-51.871 106.868v1.516l-4.944.309c1.318 1.641 1.978 3.441 1.978 5.404 0 2.301-.766 4.164-2.296 5.592-1.531 1.43-3.585 2.143-6.163 2.143-1.084 0-1.846-.043-2.285-.131-.864.453-1.523.988-1.978 1.604s-.681 1.268-.681 1.955c0 .762.289 1.318.868 1.67s1.549.527 2.912.527h4.175c2.593 0 4.578.523 5.955 1.572 1.377 1.047 2.065 2.596 2.065 4.646 0 2.52-1.021 4.465-3.065 5.834-2.043 1.369-4.955 2.055-8.734 2.055-3.003 0-5.329-.58-6.976-1.736-1.648-1.158-2.472-2.768-2.472-4.834 0-1.641.509-3.004 1.527-4.086 1.018-1.084 2.399-1.824 4.142-2.221-.718-.307-1.293-.742-1.725-1.307s-.648-1.213-.648-1.945c0-1.596 1.018-3.002 3.054-4.219-1.392-.57-2.476-1.469-3.252-2.691s-1.165-2.625-1.165-4.207c0-2.389.758-4.303 2.274-5.746 1.517-1.443 3.563-2.164 6.142-2.164 1.567 0 2.783.154 3.647.461h7.645zm-19.336 27.927c0 3.281 2.439 4.922 7.317 4.922 6.27 0 9.404-2 9.404-5.998 0-1.438-.491-2.477-1.472-3.121s-2.571-.967-4.768-.967h-3.911c-4.38 0-6.57 1.721-6.57 5.164zm1.824-20.478c0 1.846.56 3.277 1.681 4.295 1.12 1.018 2.618 1.527 4.493 1.527 1.992 0 3.519-.506 4.581-1.516 1.062-1.012 1.593-2.477 1.593-4.395 0-2.037-.546-3.564-1.637-4.582s-2.618-1.527-4.581-1.527c-1.904 0-3.402.547-4.493 1.637-1.092 1.092-1.637 2.612-1.637 4.561z"/><path d="m-34.625 131.192c-3.472 0-6.178-1.07-8.119-3.209s-2.912-5.133-2.912-8.986c0-3.809.938-6.859 2.812-9.152 1.875-2.291 4.402-3.438 7.581-3.438 2.812 0 5.032.98 6.658 2.943s2.439 4.629 2.439 7.998v1.758h-17.204c.029 3.281.794 5.787 2.296 7.516 1.501 1.729 3.651 2.592 6.449 2.592 1.362 0 2.56-.094 3.592-.285 1.033-.189 2.34-.6 3.922-1.23v1.979c-1.348.586-2.593.984-3.735 1.197-1.142.209-2.402.317-3.779.317zm-.637-22.852c-2.3 0-4.146.758-5.537 2.273s-2.205 3.703-2.439 6.559h14.766c0-2.768-.601-4.932-1.802-6.492s-2.864-2.34-4.988-2.34z"/><path d="m-10.567 129.258c1.377 0 2.578-.117 3.604-.352v1.758c-1.055.352-2.271.527-3.647.527-2.109 0-3.666-.564-4.669-1.691-1.003-1.129-1.505-2.9-1.505-5.318v-15.424h-3.538v-1.275l3.538-.988 1.099-5.406h1.121v5.779h7.009v1.891h-7.009v15.117c0 1.83.322 3.186.967 4.064s1.653 1.318 3.03 1.318z"/><path d="m17.555 130.752v-15.49c0-2.402-.505-4.15-1.516-5.242-1.011-1.09-2.578-1.637-4.702-1.637-2.856 0-4.948.723-6.273 2.164-1.326 1.443-1.989 3.783-1.989 7.021v13.184h-2.175v-34.189h2.175v10.877l-.11 3.053h.154c.894-1.436 2.021-2.475 3.384-3.119s3.054-.967 5.076-.967c5.42 0 8.13 2.908 8.13 8.723v15.623h-2.154z"/><path d="m39.789 131.192c-3.472 0-6.178-1.07-8.119-3.209s-2.912-5.133-2.912-8.986c0-3.809.938-6.859 2.812-9.152 1.875-2.291 4.402-3.438 7.581-3.438 2.812 0 5.032.98 6.658 2.943s2.439 4.629 2.439 7.998v1.758h-17.204c.029 3.281.794 5.787 2.296 7.516 1.501 1.729 3.651 2.592 6.449 2.592 1.362 0 2.56-.094 3.592-.285 1.033-.189 2.34-.6 3.922-1.23v1.979c-1.348.586-2.593.984-3.735 1.197-1.142.209-2.402.317-3.779.317zm-.637-22.852c-2.3 0-4.146.758-5.537 2.273s-2.205 3.703-2.439 6.559h14.766c0-2.768-.601-4.932-1.802-6.492s-2.864-2.34-4.988-2.34z"/><path d="m66.944 106.407c1.011 0 2.095.102 3.252.307l-.417 2.088c-.996-.248-2.029-.373-3.098-.373-2.036 0-3.706.863-5.01 2.592s-1.956 3.912-1.956 6.549v13.184h-2.175v-23.885h1.846l.22 4.307h.154c.981-1.758 2.029-2.992 3.142-3.703 1.112-.711 2.46-1.066 4.042-1.066z"/></g></g></svg>