<?xml version="1.0" encoding="utf-8"?>
<!-- Generator: Adobe Illustrator 16.0.0, SVG Export Plug-In . SVG Version: 6.00 Build 0)  -->
<!DOCTYPE svg PUBLIC "-//W3C//DTD SVG 1.1//EN" "http://www.w3.org/Graphics/SVG/1.1/DTD/svg11.dtd">
<svg version="1.1" id="Layer_1" xmlns="http://www.w3.org/2000/svg" xmlns:xlink="http://www.w3.org/1999/xlink" x="0px" y="0px"
	 width="939.99px" height="180.553px" viewBox="-296.833 -35.347 939.99 180.553"
	 enable-background="new -296.833 -35.347 939.99 180.553" xml:space="preserve">
<g>
	<g>
		<polygon fill="none" points="-154.093,12.284 -154.18,11.055 -169.512,11.055 -191.532,12.278 -192.644,12.339 -192.217,-2.722 
			-192.006,-10.197 -192.61,-30.965 -211.579,-30.373 -211.579,-18.332 -210.948,10.096 -213.131,12.284 -213.167,12.32 
			-213.782,12.284 -234.681,11.057 -244.701,12.302 -252.989,12.308 -252.989,24.292 -252.423,28.784 -236.063,29.996 
			-234.347,29.43 -232.268,28.743 -221.302,29.43 -211.889,30.019 -210.319,31.589 -210.954,57.526 -210.348,71.413 
			-191.375,71.413 -191.375,70.719 -192.623,59.454 -191.386,30.807 -191.352,30.027 -176.427,29.375 -167.827,29.606 
			-153.462,29.993 -152.969,28.001 -153.785,16.591 		"/>
		<polygon fill="none" points="-116.76,17.906 -116.469,5.411 -116.469,-14.828 -117.127,-18.693 -117.428,-20.789 
			-117.729,-22.886 -117.76,-23.103 -119.387,-24.187 -129.998,-24.187 -132.265,-22.488 -132.265,-13.507 -132.93,2.79 
			-132.266,22.033 -132.265,42.676 -132.927,48.649 -132.261,58.962 -133.532,64.051 -133.56,64.164 -133.528,64.229 
			-133.182,64.919 -124.288,63.651 -117.579,63.645 -117.274,63.036 -116.76,62.008 -116.484,61.458 -116.76,58.856 
			-117.132,55.347 -117.134,42.702 -117.135,34.028 -117.122,33.465 		"/>
		<polygon fill="none" points="-274.188,21.387 -274.526,6.759 -274.557,5.438 -274.557,-2.59 -274.557,-18.894 -274.188,-20.728 
			-273.924,-22.039 -274.188,-22.567 -274.347,-22.886 -274.997,-24.187 -278.625,-24.187 -290.423,-25.463 -290.597,-25.482 
			-290.983,-24.708 -290.924,-24.471 -289.679,-19.502 -290.356,-12.127 -289.687,-3.268 -289.685,17.397 -290.348,36.551 
			-289.685,37.821 -289.685,61.941 -287.42,63.639 -276.807,63.639 -275.896,63.032 -275.178,62.553 -274.848,60.243 
			-274.551,58.162 -273.894,45.248 -273.895,34.024 		"/>
		<path fill="none" d="M-18.637-10.851c0-2.395,0.148-4.232,0.258-5.574c0.094-1.074,0.188-2.289,0.059-2.58
			c-0.004,0-0.121-0.133-0.572-0.363c-2.17-1.082-6.314-1.725-7.732-1.881c-0.129-0.018-5.754-0.83-8.566-0.83l-0.684-0.004
			l-0.609-0.002c-2.094,0-2.172,0-2.166,1.871c0,1.697-0.012,2.943-0.029,3.951c-0.039,3.801-0.041,4.051,0.838,12.812l2.578,10.08
			c0.072,0.289,0.094,0.586,0.047,0.877l-1.482,10.371c0,3.094,0.102,6.145,0.188,8.83c0.293,9.395,0.48,15.068-2.801,17.006
			c-2.145,1.271-4.168,1.916-6.018,1.916c-4.67,0-6.902-3.922-7.752-5.588c-0.617,0.234-1.711,0.996-2.488,1.746l-2.922,3.453
			c-0.137,0.16-0.289,0.301-0.467,0.418c-0.189,0.123-4.666,3.111-7.764,4.658c-0.406,0.205-0.648,0.357-0.781,0.457
			c0.18,0.41,0.797,1.383,2.871,3.451c1.781,1.777,8.463,7.582,19.746,7.582c1.34,0,2.707-0.082,4.068-0.252
			c10.967-1.371,15.047-7.488,18.023-11.953c2.588-3.881,2.658-9.271,2.658-9.324c0-0.182,0.016-0.365,0.061-0.545l1.439-5.746
			v-14.76c0-0.061,0.002-0.123,0.008-0.186l1.484-17.816l-1.477-11.797C-18.633-10.666-18.637-10.759-18.637-10.851z"/>
		<path fill="none" d="M58.99,45.741H47.125l-8.854,1.477c-0.123,0.02-0.246,0.029-0.369,0.029c-0.184,0-0.367-0.021-0.545-0.064
			l-5.756-1.438h-8.746c-1.242,0-2.25-1.008-2.25-2.25V30.51c0-1.186,0.914-2.168,2.104-2.248l15.305-1.002
			c0.049-0.004,0.096-0.004,0.146-0.004c0.074,0,0.146,0.004,0.217,0.012c0.104,0.012,10.217,0.992,13.072,0.992
			c0.246,0,0.51,0,0.732-0.004c0.035-0.578,0.035-1.428,0.035-2.258v-5.75c0-1.16,0-2.564-0.111-3.209
			c-0.141-0.014-0.369-0.029-0.697-0.029c-2.865,0-9.668-1.338-11.545-1.717l-16.652,2.66c-0.117,0.02-0.238,0.029-0.355,0.029
			c-0.562,0-1.096-0.207-1.516-0.586c-0.504-0.463-0.777-1.125-0.729-1.809l0.787-12.535l-0.781-7.389
			c-0.074-0.658,0.152-1.307,0.604-1.785c0.428-0.449,1.02-0.701,1.635-0.701c0.039,0,0.07,0.002,0.113,0.002L34.09-6.25
			l18.629-2.066c0.078-0.01,0.166-0.012,0.248-0.012c0.236,0,0.475,0.037,0.705,0.117c0.467,0.152,1.932,0.555,3.08,0.555
			c0.059,0,0.111-0.002,0.162-0.002c-0.258-0.447-0.68-0.996-1.031-1.348c-0.49-0.49-0.727-1.178-0.643-1.863l1.078-8.895v-0.23
			c-0.217,0.012-0.445,0.014-0.686,0.014c-1.412,0-3.086-0.154-4.953-0.459c-3.211-0.521-7.145-0.785-11.688-0.785
			c-7.799,0-14.734,0.791-14.797,0.803c-0.082,0.014-0.174,0.016-0.262,0.016H10.75l-4.178,1.385
			c-0.223,0.078-0.463,0.117-0.703,0.117c-0.115,0-0.229-0.008-0.34-0.027l-4.336-0.662L2.5-1.744
			c0.004,0.057,0.006,0.111,0.006,0.166v9.029v15.062c0,0.061-0.002,0.123-0.01,0.186L1,40.676v16.455c0,2.162,0,4.605,0.352,5.057
			c0.018,0.012,0.355,0.223,1.916,0.223h12.047c0.105,0,0.211,0.006,0.316,0.023l10.383,1.482h26.953c2.963,0,5.299,0,6.033-0.521
			c0.752-0.539,0.752-3.715,0.752-4.758V46.508C59.717,45.741,59.33,45.741,58.99,45.741z"/>
		<path fill="none" d="M299.834-21.195h-5.965l-3.854,8.201l-5.934,12.654c-0.059,0.123-0.129,0.244-0.209,0.354l-8.947,12.496
			c-0.416,0.59-1.102,0.938-1.822,0.938c-0.045,0-0.076-0.002-0.117-0.002c-0.764-0.039-1.455-0.465-1.838-1.131l-8.93-15.656
			l-9.717-16.27h-7.314l-5.658,1.502c-0.182,0.051-0.381,0.076-0.572,0.076h-2.85c2.283,4.002,6.057,11.951,7.857,15.781
			l8.906,18.988c2.83,6.02,10.062,15.297,10.137,15.391c0.305,0.396,0.477,0.883,0.477,1.385v11.08c0,0.1-0.004,0.199-0.02,0.299
			c-0.406,3.041-1.469,11.467-1.469,13.934c0,0.838,0,1.986,0.152,2.273c0,0,0,0,0.004,0c0.031,0,0.488,0.229,2.059,0.229h20.785
			c0.363-0.203,0.727-1.535,0.727-2.502v-6.223l-1.441-15.324l-1.316-2.807c-0.316-0.662-0.287-1.432,0.07-2.064l4.459-7.908
			l8.885-14.215l5.887-12.537c0.047-0.102,0.105-0.201,0.168-0.297c0.074-0.111,7.443-11.1,10.355-15.762
			c0.953-1.523,1.145-2.307,1.189-2.611c-0.246-0.102-0.867-0.275-2.248-0.275L299.834-21.195z"/>
		<path fill="none" d="M108.617-20.646c-3.561,0-6.865-0.219-9.783-0.412c-2.297-0.148-4.279-0.281-5.943-0.281
			c-1.762,0-2.961,0.152-3.572,0.455c-2.479,1.242-7.041,1.629-9.771,1.75c-0.035,0.125-0.082,0.252-0.145,0.371l-1.32,2.641v11.965
			v34.334v26.549c0,3.238,0.455,3.816,0.514,3.875c0.221,0.123,1.205,0.123,1.924,0.123h11.047c2.453,0,4.783,0,5.52-0.264
			c0.02-0.109,0.039-0.299,0.039-0.613v-6.061l-1.527-9.176c-0.109-0.65,0.07-1.32,0.504-1.824c0.422-0.504,1.047-0.795,1.711-0.795
			h9.094c3.846,0,4.938,1.916,5.25,3.035l3.008,6.012l4.191,8.121h4.992c0.078,0,0.168,0.006,0.25,0.012l12.969,1.445l1.148-1.146
			l-5.387-9.434l-6.258-10.928c-0.602-1.064-0.252-2.422,0.803-3.049c6.607-3.959,14.428-12.486,15.994-21.855
			c1.244-7.479-1.754-15.811-8.906-24.768C129.39-17.529,117.715-20.646,108.617-20.646z M125.871,14.622
			c-1.559,9.314-4.965,11.73-8.322,13.404c-1.154,0.576-2.635,0.867-4.404,0.867c-2.203,0-4.336-0.447-5.109-0.631h-3.988h-7.262
			c-1.242,0-2.25-1.008-2.254-2.252V14.249V4.301c0-2.135-0.994-7.402-1.379-9.252c-0.246-1.188,0.492-2.355,1.676-2.643
			l5.836-1.424c0.184-0.043,0.355-0.064,0.539-0.064c1.346,0,13.324,0.092,18.012,3.221C124.719-2.193,127.332,5.846,125.871,14.622
			z"/>
		<path fill="none" d="M191.189-20.646c-3.557,0-6.867-0.219-9.787-0.412c-2.293-0.148-4.273-0.281-5.939-0.281
			c-1.756,0-2.955,0.152-3.562,0.455c-2.49,1.246-7.049,1.629-9.779,1.75c-0.035,0.125-0.086,0.252-0.146,0.371l-1.324,2.641v11.965
			v34.334v26.545c0,3.24,0.459,3.82,0.514,3.875c0.225,0.125,1.209,0.125,1.93,0.125h11.051c2.453,0,4.777,0,5.514-0.268
			c0.021-0.105,0.041-0.299,0.041-0.609v-6.059l-1.535-9.178c-0.109-0.654,0.078-1.32,0.504-1.824
			c0.428-0.504,1.055-0.797,1.717-0.797h9.094c3.842,0,4.936,1.92,5.25,3.033l3.01,6.012l4.186,8.127h4.998
			c0.082,0,0.172,0,0.25,0.012l12.969,1.441l1.148-1.145l-5.395-9.432l-6.246-10.932c-0.605-1.061-0.25-2.414,0.797-3.045
			c6.609-3.965,14.434-12.494,15.988-21.855c1.248-7.48-1.75-15.814-8.9-24.768C211.965-17.525,200.285-20.646,191.189-20.646z
			 M208.437,14.622c-1.545,9.314-4.955,11.729-8.312,13.404c-1.154,0.576-2.633,0.867-4.402,0.867c-2.203,0-4.336-0.447-5.109-0.631
			h-3.992h-7.266c-1.242,0-2.25-1.008-2.254-2.252V14.249V4.301c0-2.135-0.994-7.402-1.379-9.252
			c-0.246-1.188,0.492-2.357,1.672-2.643l5.848-1.424c0.176-0.043,0.354-0.064,0.531-0.064c1.352,0,13.328,0.092,18.012,3.221
			C207.285-2.193,209.894,5.844,208.437,14.622z"/>
		<path fill="none" d="M422.59-17.576c-2.617-1.797-10.602-5.982-28.121-5.982c-15.07,0-24.287,1.549-24.375,1.561
			c-0.125,0.023-0.254,0.033-0.381,0.033h-0.854c-0.084,8.766-0.648,13.959-1.77,16.27c-0.848,1.98-0.33,14.338-0.051,20.982
			c0.145,3.463,0.271,6.457,0.271,8.33c0,6.096,1.498,13.842,1.512,13.924c0.094,0.475,0.029,0.973-0.186,1.412
			c-0.008,0.021-1.326,2.848-1.326,6.992v11.156c0,0.293,0,0.627,0.006,0.908c0.598,0.035,1.504,0.035,2.396,0.035h27.844
			c6.85,0,20.479-2.877,27.971-9.059c7.537-6.215,14.656-12.078,14.656-34.936C440.183-3.263,430.779-11.947,422.59-17.576z
			 M422.295,30.956c-1.658,6.861-9.656,10.447-13.475,10.447h-4.227h-7.691c-2.152,1.184-6.143,1.457-9.336,1.457
			c-1.236,0-2.25-1.008-2.25-2.25v-5.816v-8.93v-8.719c0-0.119,0.016-0.24,0.035-0.357l1.354-8.373l-1.365-8.461
			c-0.027-0.117-0.035-0.234-0.035-0.354v-7.27c0-1.154,0.873-2.121,2.027-2.238c0.262-0.029,6.486-0.662,12.006-0.662
			c3.463,0,5.889,0.252,7.395,0.768c0.381,0.135,0.785,0.264,1.219,0.404c4.26,1.375,11.385,3.668,14.299,12.672
			C425.295,12.68,423.719,25.106,422.295,30.956z"/>
		<path fill="none" d="M495.195,12.334l1.48-13.904v-9.223v-7.525l-1.011-4.238h-1.2h-7.262l-8.758,1.527
			c-0.129,0.021-0.258,0.033-0.387,0.033h-0.73v5.537c0,0.141-0.016,0.285-0.043,0.422l-1.447,7.578v19.822l1.447,7.57
			c0.074,0.369,0.053,0.75-0.062,1.107l-1.387,4.34v29.893l1.688,1.781h3.129l4.115-1.441c0.24-0.082,0.49-0.123,0.74-0.123
			c0.113,0,0.223,0.006,0.336,0.023l9.273,1.389l1.559-1.629v-3.768c0-0.088,0.008-0.176,0.016-0.264l1.473-12.33V28.364
			l-2.934-15.367C495.179,12.78,495.172,12.557,495.195,12.334z"/>
		<path fill="none" d="M586.422-9.851c0.359,0,0.586-0.033,0.711-0.068c-0.012-0.324-0.188-0.92-0.395-1.33
			c-0.17-0.32-0.258-0.686-0.258-1.047v-9.312v-1.709l-1.27-0.633l-13.309,1.48c-0.076,0.008-0.168,0.012-0.25,0.012h-21.609
			l-15.398,1.539c-0.066,0.01-0.145,0.012-0.223,0.012c-0.098,0-0.207-0.004-0.312-0.02l-9.004-1.285l-0.844,2.523v8.838
			c0.039,0,0.08,0,0.125,0h17.777c0.254,0,0.506,0.041,0.746,0.129l3.023,1.061c0.961,0.346,1.576,1.283,1.496,2.297l-1.537,19.861
			l1.529,13.752c0.018,0.146,0.02,0.301,0.006,0.447l-1.545,16.969v10.76c0,0.615,0,2.221,0.25,2.648c0.004,0,0.008,0,0.018,0
			c0.041,0,0.139,0.018,0.293,0.018c0.346,0,0.783-0.064,1.303-0.193c2.037-0.51,4.123-0.756,6.375-0.756
			c1.906,0,3.766,0.17,5.562,0.34c1.848,0.164,3.754,0.346,5.785,0.346c0.836,0,1.33-0.064,1.605-0.129
			c-0.041-0.375-0.158-0.932-0.25-1.371c-0.223-1.09-0.512-2.449-0.512-4.008V31.155V19.012l-1.473-5.934
			c-0.104-0.416-0.09-0.85,0.047-1.254l1.432-4.312V-8.984c0-1.193,0.939-2.182,2.131-2.248c0,0,1.02-0.057,2.697-0.057
			c3.35,0,8.4,0.217,13.465,1.229C585.312-9.919,585.924-9.851,586.422-9.851z"/>
		<path fill="none" d="M637.773-4.623c-0.215-0.193-0.451-0.41-0.703-0.662c-0.391-0.387-1.648-0.674-2.535-0.68
			c-1.203,0-2.254-0.832-2.543-2.021c-0.586-2.303,2.512-4.395,5.203-5.744c0.273-0.139,0.492-0.246,0.326-0.721l-3.393-4.512h-0.98
			l-2.367,1.182c-0.059,0.033-0.127,0.061-0.188,0.088c-0.32,0.123-0.66,0.186-0.992,0.186c-0.477,0-0.949-0.129-1.359-0.375
			c-0.82-0.51-1.273-1.348-1.273-2.256v-2.918c0-0.223,0.055-0.564,0.123-0.777c0.15-0.453,0.176-0.711,0.176-0.836
			c-0.104-0.047-0.26-0.088-0.412-0.113c-1.332,0.322-5.025,1.174-7.805,1.402c0.014,0.102,0.025,0.215,0.025,0.336v2.928
			c0,0.9-0.447,1.725-1.201,2.205c-0.328,0.248-0.879,0.432-1.445,0.432c-0.254,0-0.621-0.061-0.855-0.145l-3.617-1.209
			c-0.93,1.447-2.438,3.865-3.344,5.664c0.25,0.246,0.867,0.613,1.375,0.789c0.156,0.055,0.32,0.133,0.463,0.223l3.615,2.271
			c0.814,0.471,1.316,1.344,1.316,2.281c0,0.988-0.574,1.916-1.463,2.359l-3.119,1.561l1.371,1.949l2.23-1.492
			c0.42-0.281,0.934-0.445,1.461-0.445c0.445,0,0.883,0.117,1.273,0.334c0.777,0.422,1.285,1.213,1.359,2.092l0.562,4.219
			c0.018,0.1,0.027,0.199,0.027,0.299c0,0.141-0.031,0.367-0.059,0.51c-0.02,0.098-0.045,0.229-0.082,0.322
			c-0.129,0.393-0.197,0.691-0.234,0.914l7.961-0.002c0.27,0,0.443-0.027,0.539-0.051c0.016-0.188-0.031-0.586-0.109-0.873
			c-0.316-0.92-0.078-1.957,0.611-2.66c0.467-0.504,1.17-0.805,1.889-0.805c0.25,0,0.629,0.066,0.865,0.143l2.812,0.938l0.311-0.307
			c0.023-0.023,2.652-2.688,3.887-5.162c0.18-0.363,0.297-0.621,0.363-0.801C637.816-4.582,637.797-4.605,637.773-4.623z"/>
		<path fill="none" d="M454.328,45.243c-2.336,0-3.299,1.137-4.414,2.461c-0.186,0.223-0.363,0.434-0.539,0.627l-1.109,3.328
			c0.039,2.15,0.391,4.482,0.773,5.033c1.504,1.5,3.734,1.822,5.328,1.822c1.947,0,3.635-0.492,4.48-0.92
			c1.826-0.908,2.916-2.748,2.916-4.91c0-2.092-1.088-4.307-2.109-5.332C458.429,46.127,457.545,45.243,454.328,45.243z"/>
		<path fill="none" d="M520.367,45.87c-2.273,0-3.227,1.137-4.332,2.467c-0.184,0.223-0.363,0.439-0.539,0.633l-1.098,3.369
			c0.039,2.18,0.387,4.547,0.77,5.104c1.484,1.506,3.68,1.828,5.242,1.828c1.926,0,3.58-0.498,4.406-0.92
			c1.809-0.92,2.879-2.777,2.879-4.969c0-2.127-1.068-4.365-2.082-5.391C524.355,46.708,523.533,45.87,520.367,45.87z"/>
		<path fill="none" d="M588.324,44.991c-2.424,0-3.422,1.184-4.578,2.549c-0.191,0.223-0.377,0.451-0.564,0.656l-1.148,3.439
			c0.037,2.232,0.408,4.658,0.811,5.221c1.57,1.57,3.877,1.904,5.529,1.904c2.018,0,3.764-0.51,4.643-0.949
			c1.895-0.949,3.023-2.859,3.023-5.104c0-2.174-1.125-4.465-2.18-5.52C592.574,45.911,591.654,44.991,588.324,44.991z"/>
	</g>
	<g>
		<path fill="#FFFFFF" d="M-186.359,6.869l-1.131-24.713v-17.503l-12.817,0.806l-15.232-0.009l0.696,27.185l-0.531,14.234h-22.46
			l-19.75,1.446l0.785,25.108l21.252,1.415l21.258,0.006l-0.551,14.65l-0.003,0.086l0.702,26.84l26.651-1.566V58.535l1.126-22.562
			l22.069-1.127h16.593l-0.743-17.077l0.839-10.899H-186.359z M-210.319,31.589l-1.57-1.57l-9.413-0.589l-10.965-0.687l-2.08,0.687
			l-1.716,0.566l-16.36-1.212l-0.566-4.493V12.308l8.288-0.006l10.02-1.246l20.899,1.228l0.615,0.036l0.036-0.036l2.182-2.188
			l-0.63-28.427v-12.041l18.969-0.593l0.604,20.769l-0.211,7.475l-0.427,15.062l1.111-0.062l22.021-1.223h15.332l0.088,1.229
			l0.308,4.307l0.815,11.41l-0.493,1.992l-14.365-0.387l-8.6-0.231l-14.925,0.653l-0.034,0.779l-1.237,28.647l1.249,11.266v0.693
			h-18.974l-0.605-13.887L-210.319,31.589z"/>
		<path fill="#FFFFFF" d="M-111.682-24.231l-1.466-4.401h-21.777l-1.318,3.959l-0.813,2.794V40.82l0.012-0.006l0.673,24.476
			l1.741,3.491h20.603l3.015-3.015V52.28h-1.355l1.353-0.052l-0.652-16.892l0.654-2.602v-43.887l-0.668-6.787V-24.231z
			 M-133.528,64.229l-0.033-0.065l0.028-0.112l1.271-5.089l-0.667-10.313l0.662-5.973l0-20.643L-132.93,2.79l0.665-16.297v-8.981
			l2.268-1.698h10.611l1.627,1.083l0.031,0.217l0.301,2.097l0.301,2.096l0.658,3.865l0,20.238l-0.291,12.495l-0.362,15.56
			l-0.013,0.562l0.001,8.674l0.002,12.645l0.372,3.509l0.276,2.602l-0.276,0.551l-0.514,1.027l-0.305,0.609l-6.709,0.006
			l-8.894,1.269L-133.528,64.229z"/>
		<path fill="#FFFFFF" d="M-268.442-25.626l-3.01-3.006h-20.59l-1.754,3.477l-0.684,25.104l0.65,4.584l-0.636,8.338l-0.008,36.748
			l0.682,14.826l1.453,4.332h21.774l1.462-4.4V52.035l0.655-9.534l0.007-35.084l-0.649-2.606l0.647-16.885L-268.442-25.626z
			 M-290.423-25.463l11.798,1.276h3.628l0.65,1.3l0.159,0.319l0.264,0.529l-0.264,1.311l-0.37,1.834l0,16.304v8.028l0.031,1.321
			l0.338,14.628l0.292,12.637l0.001,11.224l-0.657,12.914l-0.297,2.081l-0.33,2.311l-0.718,0.479l-0.912,0.607h-10.612l-2.266-1.698
			v-24.12l-0.663-1.27l0.663-19.154l-0.002-20.665l-0.669-8.859l0.677-7.375l-1.245-4.969l-0.059-0.236l0.385-0.774L-290.423-25.463
			z"/>
		<path fill="#FFFFFF" d="M-14.879-25.587c-3.393-1.701-10.188-1.695-10.188-1.695s-10.172,1.695-13.562,1.695
			c-3.395,0-5.09,0-5.09,5.088c0,5.096,1.695,22.057,1.695,22.057l1.691,5.086l-1.695,11.877c0,13.568,1.695,22.051-1.697,23.75
			c-3.393,1.697-5.092-1.695-6.785-5.088c-1.701-3.398-6.785,1.691-6.785,1.691l-5.088,5.092c0,0-5.09,3.396-8.482,5.092
			c-3.393,1.691-3.396,3.393,1.697,8.473c5.082,5.09,15.266,11.877,28.83,10.188c13.58-1.691,18.666-6.789,22.061-11.881
			c3.393-5.086,3.393-11.871,3.393-11.871l1.697-6.787c0-5.09,0-16.961,0-16.961l1.691-20.361l-1.691-13.568
			C-13.188-22.197-11.489-23.888-14.879-25.587z M-44.887,61.807c-11.283,0-17.965-5.805-19.746-7.582
			c-2.074-2.068-2.691-3.041-2.871-3.451c0.133-0.1,0.375-0.252,0.781-0.457c3.098-1.547,7.574-4.535,7.764-4.658
			c0.178-0.117,0.33-0.258,0.467-0.418l2.922-3.453c0.777-0.75,1.871-1.512,2.488-1.746c0.85,1.666,3.082,5.588,7.752,5.588
			c1.85,0,3.873-0.645,6.018-1.916c3.281-1.938,3.094-7.611,2.801-17.006c-0.086-2.686-0.188-5.736-0.188-8.83l1.482-10.371
			c0.047-0.291,0.025-0.588-0.047-0.877l-2.578-10.08c-0.879-8.762-0.877-9.012-0.838-12.812c0.018-1.008,0.029-2.254,0.029-3.951
			c-0.006-1.871,0.072-1.871,2.166-1.871l0.609,0.002l0.684,0.004c2.812,0,8.438,0.812,8.566,0.83
			c1.418,0.156,5.562,0.799,7.732,1.881c0.451,0.23,0.568,0.363,0.572,0.363c0.129,0.291,0.035,1.506-0.059,2.58
			c-0.109,1.342-0.258,3.18-0.258,5.574c0,0.092,0.004,0.186,0.016,0.279l1.477,11.797l-1.484,17.816
			c-0.006,0.062-0.008,0.125-0.008,0.186v14.76l-1.439,5.746c-0.045,0.18-0.061,0.363-0.061,0.545c0,0.053-0.07,5.443-2.658,9.324
			c-2.977,4.465-7.057,10.582-18.023,11.953C-42.18,61.725-43.547,61.807-44.887,61.807z"/>
		<path fill="#FFFFFF" d="M62.492,42.268c-3.395,0-13.578,0-13.578,0l-10.176,1.691l-6.793-1.691H25.16v-8.641h18.664
			c0,0,6.789,0,10.184,0c3.391,0,3.391,0.002,3.391-5.082c0-5.092,0-5.771,0-10.861s-1.688-5.09-5.086-5.09
			s-13.57-1.697-13.57-1.697l-13.57,1.697V6.645v-6.787h13.57l16.969-1.691c0,0,5.084,1.691,6.785,0
			c1.688-1.691-1.699-5.092-1.699-5.092l1.699-6.785v-10.178c0,0-1.699,0-8.484,0s-30.535,0-30.535,0H8.211l-5.09,1.693H-0.93
			l-0.332-0.051l0.004,0.051H-3.68v18.664V6.643V23.61l-1.688,20.355c0,0,0,8.484,0,15.27s0,8.482,5.09,8.482
			c5.082,0,13.564,0,13.564,0l11.873,1.689c0,0,22.064,0,30.547,0c8.473,0,10.176,0,10.176-8.479s0-15.264,0-15.264
			S65.883,42.268,62.492,42.268z M59.752,58.637c0,1.043,0,4.219-0.752,4.758c-0.734,0.521-3.07,0.521-6.033,0.521H26.013
			l-10.383-1.482c-0.105-0.018-0.211-0.023-0.316-0.023H3.267c-1.561,0-1.898-0.211-1.916-0.223C1,61.737,1,59.293,1,57.131V40.676
			L2.496,22.7c0.008-0.062,0.01-0.125,0.01-0.186V7.452v-9.029c0-0.055-0.002-0.109-0.006-0.166l-1.307-17.85l4.336,0.662
			c0.111,0.02,0.225,0.027,0.34,0.027c0.24,0,0.48-0.039,0.703-0.117l4.178-1.385h13.184c0.088,0,0.18-0.002,0.262-0.016
			c0.062-0.012,6.998-0.803,14.797-0.803c4.543,0,8.477,0.264,11.688,0.785c1.867,0.305,3.541,0.459,4.953,0.459
			c0.24,0,0.469-0.002,0.686-0.014v0.23l-1.078,8.895c-0.084,0.686,0.152,1.373,0.643,1.863c0.352,0.352,0.773,0.9,1.031,1.348
			c-0.051,0-0.104,0.002-0.162,0.002c-1.148,0-2.613-0.402-3.08-0.555c-0.23-0.08-0.469-0.117-0.705-0.117
			c-0.082,0-0.17,0.002-0.248,0.012L34.09-6.25L22.969-6.82c-0.043,0-0.074-0.002-0.113-0.002c-0.615,0-1.207,0.252-1.635,0.701
			c-0.451,0.479-0.678,1.127-0.604,1.785l0.781,7.389l-0.787,12.535c-0.049,0.684,0.225,1.346,0.729,1.809
			c0.42,0.379,0.953,0.586,1.516,0.586c0.117,0,0.238-0.01,0.355-0.029l16.652-2.66c1.877,0.379,8.68,1.717,11.545,1.717
			c0.328,0,0.557,0.016,0.697,0.029c0.111,0.645,0.111,2.049,0.111,3.209v5.75c0,0.83,0,1.68-0.035,2.258
			c-0.223,0.004-0.486,0.004-0.732,0.004c-2.855,0-12.969-0.98-13.072-0.992c-0.07-0.008-0.143-0.012-0.217-0.012
			c-0.051,0-0.098,0-0.146,0.004l-15.305,1.002c-1.189,0.08-2.104,1.062-2.104,2.248v12.984c0,1.242,1.008,2.25,2.25,2.25h8.746
			l5.756,1.438c0.178,0.043,0.361,0.064,0.545,0.064c0.123,0,0.246-0.01,0.369-0.029l8.854-1.477H58.99c0.34,0,0.727,0,0.762,0.768
			V58.637z"/>
		<path fill="#FFFFFF" d="M191.418-25.595c-6.793,0.008-12.82-0.748-17.098-0.748c-2.137,0-3.826,0.189-4.961,0.754
			c-3.387,1.693-11.867,1.697-11.867,1.697v1.695l-1.703,3.387v13.578v37.312c0,0,0,22.057,0,28.842s1.703,6.785,5.098,6.785
			c3.391,0,8.473,0,15.266,0c6.777,0,8.48,0,8.48-3.398c0-3.393,0-6.785,0-6.785l-1.695-10.172c0,0,1.695,0,5.09,0
			c3.391,0,3.391,1.693,3.391,1.693l3.391,6.779l6.797,10.186h10.18l15.266,1.697l3.391-3.398l-6.785-11.871l-6.785-11.875
			c8.479-5.088,13.564-15.27,15.266-25.443c1.691-10.176-3.389-20.355-10.176-28.842C215.168-22.207,201.605-25.595,191.418-25.595z
			 M189.478,41.987h-9.094c-0.662,0-1.289,0.293-1.717,0.797c-0.426,0.504-0.613,1.17-0.504,1.824l1.535,9.178v6.059
			c0,0.311-0.02,0.504-0.041,0.609c-0.736,0.268-3.061,0.268-5.514,0.268h-11.051c-0.721,0-1.705,0-1.93-0.125
			c-0.055-0.055-0.514-0.635-0.514-3.875V30.176V-4.158v-11.965l1.324-2.641c0.061-0.119,0.111-0.246,0.146-0.371
			c2.73-0.121,7.289-0.504,9.779-1.75c0.607-0.303,1.807-0.455,3.562-0.455c1.666,0,3.646,0.133,5.939,0.281
			c2.92,0.193,6.23,0.412,9.787,0.412c9.096,0,20.775,3.121,26.344,10.082c7.15,8.953,10.148,17.287,8.9,24.768
			c-1.555,9.361-9.379,17.891-15.988,21.855c-1.047,0.631-1.402,1.984-0.797,3.045l6.246,10.932l5.395,9.432l-1.148,1.145
			l-12.969-1.441c-0.078-0.012-0.168-0.012-0.25-0.012h-4.998l-4.186-8.127l-3.01-6.012
			C194.414,43.907,193.32,41.987,189.478,41.987z"/>
		<path fill="#FFFFFF" d="M316.949-25.587c-5.092,0-13.566,0-13.566,0h-11.875l-5.094,10.184l-6.783,13.568L272.84,8.346
			l-6.785-13.568l-11.875-18.664h-13.566l-6.793,1.695h-5.016c-2.398,0-3.461,0-1.766,1.691c1.697,1.691,10.18,18.664,10.18,18.664
			s6.785,13.568,10.174,20.355c3.398,6.785,11.881,16.963,11.881,16.963v11.879c0,0-1.691,11.873-1.691,15.262
			c0,3.391,0,5.094,5.086,5.094s20.352,0,23.746,0s3.4-5.094,3.4-5.094v-6.787l-1.697-16.963l-1.699-3.391l5.096-8.48l10.174-15.27
			l6.793-13.568c0,0,8.486-11.877,11.875-16.969C323.73-23.892,322.031-25.587,316.949-25.587z M285.722,58.825
			c0,0.967-0.363,2.299-0.727,2.502h-20.785c-1.57,0-2.027-0.229-2.059-0.229c-0.004,0-0.004,0-0.004,0
			c-0.152-0.287-0.152-1.436-0.152-2.273c0-2.467,1.062-10.893,1.469-13.934c0.016-0.1,0.02-0.199,0.02-0.299v-11.08
			c0-0.502-0.172-0.988-0.477-1.385c-0.074-0.094-7.307-9.371-10.137-15.391l-8.906-18.988c-1.801-3.83-5.574-11.779-7.857-15.781
			h2.85c0.191,0,0.391-0.025,0.572-0.076l5.658-1.502h7.314l9.717,16.27l8.93,15.656c0.383,0.666,1.074,1.092,1.838,1.131
			c0.041,0,0.072,0.002,0.117,0.002c0.721,0,1.406-0.348,1.822-0.938l8.947-12.496c0.08-0.109,0.15-0.23,0.209-0.354l5.934-12.654
			l3.854-8.201h5.965l11.896-0.004c1.381,0,2.002,0.174,2.248,0.275c-0.045,0.305-0.236,1.088-1.189,2.611
			c-2.912,4.662-10.281,15.65-10.355,15.762c-0.062,0.096-0.121,0.195-0.168,0.297l-5.887,12.537l-8.885,14.215l-4.459,7.908
			c-0.357,0.633-0.387,1.402-0.07,2.064l1.316,2.807l1.441,15.324V58.825z"/>
		<path fill="#FFFFFF" d="M108.293-25.595c-6.789,0.008-12.822-0.748-17.098-0.748c-2.135,0-3.824,0.189-4.957,0.754
			c-3.391,1.693-11.873,1.697-11.873,1.697v1.695l-1.697,3.387v13.578v37.312c0,0,0,22.057,0,28.842s1.697,6.785,5.094,6.785
			c3.391,0,8.477,0,15.262,0s8.482,0,8.482-3.398c0-3.393,0-6.785,0-6.785l-1.697-10.172c0,0,1.697,0,5.09,0
			c3.395,0,3.395,1.693,3.395,1.693l3.395,6.779l6.787,10.186h10.182l15.262,1.697l3.398-3.398l-6.785-11.871l-6.789-11.875
			c8.484-5.088,13.57-15.27,15.27-25.443c1.689-10.176-3.396-20.355-10.176-28.842C132.039-22.207,118.474-25.595,108.293-25.595z
			 M106.906,41.991h-9.094c-0.664,0-1.289,0.291-1.711,0.795c-0.434,0.504-0.613,1.174-0.504,1.824l1.527,9.176v6.061
			c0,0.314-0.02,0.504-0.039,0.613c-0.736,0.264-3.066,0.264-5.52,0.264H80.519c-0.719,0-1.703,0-1.924-0.123
			c-0.059-0.059-0.514-0.637-0.514-3.875V30.176V-4.158v-11.965l1.32-2.641c0.062-0.119,0.109-0.246,0.145-0.371
			c2.73-0.121,7.293-0.508,9.771-1.75c0.611-0.303,1.811-0.455,3.572-0.455c1.664,0,3.646,0.133,5.943,0.281
			c2.918,0.193,6.223,0.412,9.783,0.412c9.098,0,20.773,3.117,26.344,10.082c7.152,8.957,10.15,17.289,8.906,24.768
			c-1.566,9.369-9.387,17.896-15.994,21.855c-1.055,0.627-1.404,1.984-0.803,3.049l6.258,10.928l5.387,9.434l-1.148,1.146
			l-12.969-1.445c-0.082-0.006-0.172-0.012-0.25-0.012h-4.992l-4.191-8.121l-3.008-6.012
			C111.844,43.907,110.752,41.991,106.906,41.991z"/>
		<path fill="#FFFFFF" d="M426.91-20.777c-5.09-3.389-15.268-6.783-32.23-6.783c-16.957,0-27.141,1.695-27.141,1.695h-3.393
			c0,3.389-0.002,15.271-1.699,18.658c-1.689,3.393,0,25.445,0,32.232c0,6.785,1.699,15.27,1.699,15.27s-1.699,3.398-1.699,8.486
			c0,5.08,0,8.467,0,11.865s0.01,3.398,5.092,3.398c5.09,0,22.055,0,30.533,0c8.482,0,23.76-3.398,32.236-10.184
			s16.961-13.566,16.961-39.02C447.269-3.82,437.094-13.988,426.91-20.777z M440.183,14.051c0,22.857-7.119,28.721-14.656,34.936
			c-7.492,6.182-21.121,9.059-27.971,9.059h-27.844c-0.893,0-1.799,0-2.396-0.035c-0.006-0.281-0.006-0.615-0.006-0.908V45.946
			c0-4.145,1.318-6.971,1.326-6.992c0.215-0.439,0.279-0.938,0.186-1.412c-0.014-0.082-1.512-7.828-1.512-13.924
			c0-1.873-0.127-4.867-0.271-8.33c-0.279-6.645-0.797-19.002,0.051-20.982c1.121-2.311,1.686-7.504,1.77-16.27h0.854
			c0.127,0,0.256-0.01,0.381-0.033c0.088-0.012,9.305-1.561,24.375-1.561c17.52,0,25.504,4.186,28.121,5.982
			C430.779-11.947,440.183-3.263,440.183,14.051z"/>
		<path fill="#FFFFFF" d="M499.851-2.115l-0.004-10.172l0.004-8.486l-1.689-6.791h-3.396h-8.477l-10.182,1.701h-3.396l0.008,8.479
			L471.019-8.9l-0.008,22.055l1.699,8.477l-1.699,5.088v33.928l3.396,3.404h5.088l5.094-1.705l11.871,1.705l3.398-3.404v-5.086
			l1.688-13.566V30.124l-3.395-16.957L499.851-2.115z M496.691,51.243c-0.008,0.088-0.016,0.176-0.016,0.264v3.768l-1.559,1.629
			l-9.273-1.389c-0.113-0.018-0.223-0.023-0.336-0.023c-0.25,0-0.5,0.041-0.74,0.123l-4.115,1.441h-3.129l-1.688-1.781V25.381
			l1.387-4.34c0.115-0.357,0.137-0.738,0.062-1.107l-1.447-7.57V-7.458l1.447-7.578c0.027-0.137,0.043-0.281,0.043-0.422v-5.537
			h0.73c0.129,0,0.258-0.012,0.387-0.033l8.758-1.527h7.262h1.2l1.011,4.238v7.525v9.223l-1.48,13.904
			c-0.023,0.223-0.016,0.445,0.035,0.662l2.934,15.367v10.549L496.691,51.243z"/>
		<path fill="#FFFFFF" d="M571.109,33.514v-13.58l-1.697-6.779l1.697-5.086V-3.808c0,0,3.766-0.756,8.793-0.756
			c2.512,0,5.34,0.191,8.166,0.756c0.564,0.111,1.078,0.168,1.547,0.168c6.506,0,3.549-10.352,3.549-10.352v-10.178v-3.391
			l-3.402-1.701l-15.264,1.701h-23.752l-16.961,1.695l-11.879-1.695l-1.688,5.084v13.57c0,0,0,3.393,3.391,3.393s16.953,0,16.953,0
			h1.709l-1.701,18.668l1.701,15.27l-1.701,18.658c0,0,0,8.49,0,11.877c0,2.854,0.107,5.373,3.074,5.373
			c0.566,0,1.229-0.088,2.016-0.287c2.262-0.562,4.711-0.75,7.227-0.75c5.027,0,10.303,0.75,14.832,0.75
			c6.779,0,3.391-3.387,3.391-8.479S571.109,33.514,571.109,33.514z M545.883,43.665l1.545-16.969
			c0.014-0.146,0.012-0.301-0.006-0.447l-1.529-13.752l1.537-19.861c0.08-1.014-0.535-1.951-1.496-2.297l-3.023-1.061
			c-0.24-0.088-0.492-0.129-0.746-0.129h-17.777c-0.045,0-0.086,0-0.125,0v-8.838l0.844-2.523l9.004,1.285
			c0.105,0.016,0.215,0.02,0.312,0.02c0.078,0,0.156-0.002,0.223-0.012l15.398-1.539h21.609c0.082,0,0.174-0.004,0.25-0.012
			l13.309-1.48l1.27,0.633v1.709v9.312c0,0.361,0.088,0.727,0.258,1.047c0.207,0.41,0.383,1.006,0.395,1.33
			c-0.125,0.035-0.352,0.068-0.711,0.068c-0.498,0-1.109-0.068-1.811-0.209c-5.064-1.012-10.115-1.229-13.465-1.229
			c-1.678,0-2.697,0.057-2.697,0.057c-1.191,0.066-2.131,1.055-2.131,2.248V7.512l-1.432,4.312c-0.137,0.404-0.15,0.838-0.047,1.254
			l1.473,5.934v12.143v20.164c0,1.559,0.289,2.918,0.512,4.008c0.092,0.439,0.209,0.996,0.25,1.371
			c-0.275,0.064-0.77,0.129-1.605,0.129c-2.031,0-3.938-0.182-5.785-0.346c-1.797-0.17-3.656-0.34-5.562-0.34
			c-2.252,0-4.338,0.246-6.375,0.756c-0.52,0.129-0.957,0.193-1.303,0.193c-0.154,0-0.252-0.018-0.293-0.018
			c-0.01,0-0.014,0-0.018,0c-0.25-0.428-0.25-2.033-0.25-2.648V43.665z"/>
		<path fill="#FFFFFF" d="M642.019-6.886c-1.543-1.545-4.734-1.562-4.77-1.562c-0.215,0-0.387-0.152-0.438-0.346
			c-0.082-0.348-0.082-0.348,3.625-2.203c2.941-1.463,1.555-4.361,1.49-4.484l-4.91-6.533h-3.061l-3.303,1.646
			c-0.064,0.027-0.141,0.043-0.205,0.043c-0.078,0-0.168-0.023-0.234-0.064c-0.125-0.08-0.211-0.219-0.211-0.381v-3.391
			c0-0.043,0.016-0.092,0.027-0.137c0.469-1.404,0.43-2.5-0.117-3.258c-0.854-1.23-2.809-1.252-2.828-1.252
			c-0.168,0.051-6.773,1.691-10.18,1.691c-0.766,0-1.275,0.186-1.5,0.559c-0.406,0.643,0.008,1.801,0.211,2.189
			c0.02,0.061,0.043,0.127,0.043,0.195v3.396c0,0.146-0.064,0.281-0.184,0.359c-0.082,0.057-0.186,0.092-0.279,0.092
			c-0.047,0-0.088-0.008-0.139-0.023l-5.012-1.672h-1.387c-0.641,0.969-3.445,5.285-4.924,8.227
			c-0.352,0.693-0.396,1.328-0.141,1.939c0.68,1.643,3.248,2.521,3.271,2.527l3.443,1.715c0.158,0.078,0.248,0.234,0.248,0.406
			c0,0.17-0.09,0.326-0.248,0.398l-6.322,3.176l6.258,9.381l4.711-3.143c0.066-0.057,0.16-0.08,0.242-0.08
			c0.074,0,0.152,0.023,0.207,0.059c0.152,0.082,0.246,0.234,0.246,0.398v3.391c0,0.049-0.012,0.096-0.023,0.141
			c-0.584,1.742-0.607,3.055-0.07,3.799c0.488,0.684,1.336,0.695,1.338,0.695h10.178c1.312,0,2.219-0.355,2.723-1.053
			c0.945-1.309,0.254-3.422,0.246-3.441c-0.057-0.162-0.012-0.338,0.105-0.455c0.082-0.084,0.191-0.141,0.316-0.141
			c0.049,0,0.094,0.012,0.148,0.029l4.824,1.611l1.496-1.5c0.037-0.035,3.359-3.387,5-6.668
			C643.539-3.814,643.562-5.337,642.019-6.886z M615.574-17.625c0.234,0.084,0.602,0.145,0.855,0.145
			c0.566,0,1.117-0.184,1.445-0.432c0.754-0.48,1.201-1.305,1.201-2.205v-2.928c0-0.121-0.012-0.234-0.025-0.336
			c2.779-0.229,6.473-1.08,7.805-1.402c0.152,0.025,0.309,0.066,0.412,0.113c0,0.125-0.025,0.383-0.176,0.836
			c-0.068,0.213-0.123,0.555-0.123,0.777v2.918c0,0.908,0.453,1.746,1.273,2.256c0.41,0.246,0.883,0.375,1.359,0.375
			c0.332,0,0.672-0.062,0.992-0.186c0.061-0.027,0.129-0.055,0.188-0.088l2.367-1.182h0.98l3.393,4.512
			c0.166,0.475-0.053,0.582-0.326,0.721c-2.691,1.35-5.789,3.441-5.203,5.744c0.289,1.189,1.34,2.021,2.543,2.021
			c0.887,0.006,2.145,0.293,2.535,0.68c0.252,0.252,0.488,0.469,0.703,0.662c0.023,0.018,0.043,0.041,0.066,0.059
			c-0.066,0.18-0.184,0.438-0.363,0.801c-1.234,2.475-3.863,5.139-3.887,5.162l-0.311,0.307l-2.812-0.938
			c-0.236-0.076-0.615-0.143-0.865-0.143c-0.719,0-1.422,0.301-1.889,0.805c-0.689,0.703-0.928,1.74-0.611,2.66
			c0.078,0.287,0.125,0.686,0.109,0.873c-0.096,0.023-0.27,0.051-0.539,0.051l-7.961,0.002c0.037-0.223,0.105-0.521,0.234-0.914
			c0.037-0.094,0.062-0.225,0.082-0.322c0.027-0.143,0.059-0.369,0.059-0.51c0-0.1-0.01-0.199-0.027-0.299l-0.562-4.219
			c-0.074-0.879-0.582-1.67-1.359-2.092c-0.391-0.217-0.828-0.334-1.273-0.334c-0.527,0-1.041,0.164-1.461,0.445l-2.23,1.492
			l-1.371-1.949l3.119-1.561c0.889-0.443,1.463-1.371,1.463-2.359c0-0.938-0.502-1.811-1.316-2.281l-3.615-2.271
			c-0.143-0.09-0.307-0.168-0.463-0.223c-0.508-0.176-1.125-0.543-1.375-0.789c0.906-1.799,2.414-4.217,3.344-5.664L615.574-17.625z
			"/>
		<path fill="#FFFFFF" d="M454.054,41.989c-5.086,0-6.785,3.395-8.484,5.094l-1.688,5.086c0,0,0,6.785,1.688,8.473
			c2.309,2.309,5.529,3.123,8.547,3.123c2.648,0,5.145-0.627,6.73-1.424c3.391-1.699,5.082-5.086,5.082-8.479
			c0-3.398-1.691-6.785-3.393-8.479C460.844,43.688,459.148,41.989,454.054,41.989z M454.328,45.243
			c3.217,0,4.102,0.885,5.326,2.109c1.021,1.025,2.109,3.24,2.109,5.332c0,2.162-1.09,4.002-2.916,4.91
			c-0.846,0.428-2.533,0.92-4.48,0.92c-1.594,0-3.824-0.322-5.328-1.822c-0.383-0.551-0.734-2.883-0.773-5.033l1.109-3.328
			c0.176-0.193,0.354-0.404,0.539-0.627C451.029,46.379,451.992,45.243,454.328,45.243z"/>
		<path fill="#FFFFFF" d="M520.217,41.989c-5.088,0-6.791,3.395-8.484,5.094l-1.697,5.086c0,0,0,6.785,1.697,8.473
			c2.303,2.309,5.521,3.123,8.541,3.123c2.648,0,5.141-0.627,6.729-1.424c3.396-1.699,5.092-5.086,5.092-8.479
			c0-3.398-1.695-6.785-3.398-8.479C527.004,43.688,525.304,41.989,520.217,41.989z M524.816,58.35
			c-0.826,0.422-2.48,0.92-4.406,0.92c-1.562,0-3.758-0.322-5.242-1.828c-0.383-0.557-0.73-2.924-0.77-5.104l1.098-3.369
			c0.176-0.193,0.355-0.41,0.539-0.633c1.105-1.33,2.059-2.467,4.332-2.467c3.166,0,3.988,0.838,5.246,2.121
			c1.014,1.025,2.082,3.264,2.082,5.391C527.695,55.573,526.625,57.43,524.816,58.35z"/>
		<path fill="#FFFFFF" d="M588.068,41.989c-5.08,0-6.779,3.395-8.475,5.094l-1.695,5.086c0,0,0,6.785,1.695,8.473
			c2.299,2.309,5.52,3.123,8.535,3.123c2.652,0,5.148-0.627,6.736-1.424c3.389-1.699,5.076-5.086,5.076-8.479
			c0-3.398-1.688-6.785-3.389-8.479C594.859,43.688,593.164,41.989,588.068,41.989z M593.015,57.811
			c-0.879,0.439-2.625,0.949-4.643,0.949c-1.652,0-3.959-0.334-5.529-1.904c-0.402-0.562-0.773-2.988-0.811-5.221l1.148-3.439
			c0.188-0.205,0.373-0.434,0.564-0.656c1.156-1.365,2.154-2.549,4.578-2.549c3.33,0,4.25,0.92,5.535,2.197
			c1.055,1.055,2.18,3.346,2.18,5.52C596.039,54.952,594.91,56.862,593.015,57.811z"/>
		<path fill="#FFFFFF" d="M125.871,14.622c1.461-8.775-1.152-16.814-6.656-20.482c-4.688-3.129-16.666-3.221-18.012-3.221
			c-0.184,0-0.355,0.021-0.539,0.064l-5.836,1.424c-1.184,0.287-1.922,1.455-1.676,2.643c0.385,1.85,1.379,7.117,1.379,9.252v9.947
			V26.01c0.004,1.244,1.012,2.252,2.254,2.252h7.262h3.988c0.773,0.184,2.906,0.631,5.109,0.631c1.77,0,3.25-0.291,4.404-0.867
			C120.906,26.352,124.312,23.936,125.871,14.622z M111.152,26.268c-1.83,0-3.199-0.688-3.199-0.688h-4.631l-4.635,0.002V14.782
			c0,0,0-7.721,0-10.812c0-3.084-1.543-6.172-1.543-6.172l3.086-1.541c0.074,0,10.816,0.004,15.438,3.084
			c4.629,3.084,7.715,6.178,6.182,15.438c-1.553,9.262-4.635,9.262-7.723,10.803C113.097,26.094,112.062,26.268,111.152,26.268z"/>
		<path fill="#FFFFFF" d="M208.437,14.622c1.457-8.777-1.152-16.814-6.652-20.482c-4.684-3.129-16.66-3.221-18.012-3.221
			c-0.178,0-0.355,0.021-0.531,0.064l-5.848,1.424c-1.18,0.285-1.918,1.455-1.672,2.643c0.385,1.85,1.379,7.117,1.379,9.252v9.947
			V26.01c0.004,1.244,1.012,2.252,2.254,2.252h7.266h3.992c0.773,0.184,2.906,0.631,5.109,0.631c1.77,0,3.248-0.291,4.402-0.867
			C203.482,26.35,206.892,23.936,208.437,14.622z M194.283,26.268c-1.828,0-3.197-0.688-3.197-0.688h-4.641l-4.629,0.002V14.782
			c0,0,0-7.721,0-10.812c0-3.084-1.547-6.172-1.547-6.172l3.09-1.541c0.072,0,10.818,0.004,15.436,3.084
			c4.631,3.084,7.717,6.178,6.178,15.438c-1.547,9.262-4.629,9.262-7.713,10.803C196.228,26.094,195.195,26.268,194.283,26.268z"/>
		<path fill="#FFFFFF" d="M407.951-9.398c-0.434-0.141-0.838-0.27-1.219-0.404c-1.506-0.516-3.932-0.768-7.395-0.768
			c-5.52,0-11.744,0.633-12.006,0.662c-1.154,0.117-2.027,1.084-2.027,2.238v7.27c0,0.119,0.008,0.236,0.035,0.354l1.365,8.461
			l-1.354,8.373c-0.02,0.117-0.035,0.238-0.035,0.357v8.719v8.93v5.816c0,1.242,1.014,2.25,2.25,2.25
			c3.193,0,7.184-0.273,9.336-1.457h7.691h4.227c3.818,0,11.816-3.586,13.475-10.447c1.424-5.85,3-18.275-0.045-27.682
			C419.336-5.73,412.211-8.023,407.951-9.398z M401.238,38.256h-4.641c-1.547,1.541-6.188,1.541-6.188,1.541v-6.184v-6.197v-9.275
			l1.551-9.287l-1.551-6.188v-7.734c0,0,3.441-0.686,7.105-0.686c1.834,0,3.727,0.17,5.273,0.686
			c4.637,1.547,12.375,3.094,15.465,12.381c3.102,9.281,1.547,15.469,0,21.656c-1.539,6.188-9.281,9.287-12.375,9.287
			C402.789,38.256,401.238,38.256,401.238,38.256z"/>
	</g>
</g>
<g display="none" enable-background="new    ">
	<path display="inline" fill="#FFFFFF" d="M-282.969,98.907l-0.813,8.898l8.899-2.285l0.461,2.879l-8.679,0.857l5.427,7.471
		l-2.725,1.56l-4.197-8.327l-3.955,8.327l-2.747-1.56l5.317-7.471l-8.569-0.857l0.417-2.879l8.811,2.285l-0.857-8.898H-282.969z"/>
	<path display="inline" fill="#FFFFFF" d="M-243.11,116.727c0,5.391-1.414,9.466-4.241,12.228c-2.827,2.761-6.98,4.142-12.458,4.142
		h-7.69v-32.124h8.679c5.127,0,9.027,1.341,11.7,4.021C-244.447,107.674-243.11,111.584-243.11,116.727z M-245.549,116.815
		c0-4.6-1.168-8.061-3.505-10.383c-2.336-2.321-5.768-3.482-10.294-3.482h-5.911v28.169h5.317
		C-250.346,131.119-245.549,126.35-245.549,116.815z"/>
	<path display="inline" fill="#FFFFFF" d="M-208.723,116.991c0,5.098-1.274,9.129-3.823,12.096
		c-2.549,2.966-6.064,4.449-10.547,4.449c-4.468,0-7.976-1.483-10.525-4.449c-2.549-2.967-3.823-7.013-3.823-12.141
		c0-5.111,1.286-9.137,3.856-12.073c2.571-2.938,6.083-4.405,10.536-4.405c4.482,0,7.991,1.476,10.525,4.427
		C-209.99,107.846-208.723,111.878-208.723,116.991z M-235.002,116.991c0,4.6,1.025,8.155,3.076,10.667
		c2.051,2.513,4.995,3.769,8.833,3.769c3.867,0,6.822-1.245,8.866-3.735c2.043-2.49,3.065-6.057,3.065-10.7
		c0-4.629-1.022-8.178-3.065-10.646c-2.044-2.468-4.984-3.702-8.822-3.702c-3.823,0-6.771,1.245-8.844,3.735
		C-233.966,108.868-235.002,112.406-235.002,116.991z"/>
	<path display="inline" fill="#FFFFFF" d="M-189.651,133.096v-32.124h2.241v32.124H-189.651z"/>
	<path display="inline" fill="#FFFFFF" d="M-169.941,133.096h-2.263v-30.015h-10.437v-2.109h23.137v2.109h-10.437V133.096z"/>
	<path display="inline" fill="#FFFFFF" d="M-134.675,133.096h-2.263v-30.015h-10.437v-2.109h23.137v2.109h-10.437V133.096z"/>
	<path display="inline" fill="#FFFFFF" d="M-92.466,116.991c0,5.098-1.274,9.129-3.823,12.096
		c-2.549,2.966-6.064,4.449-10.547,4.449c-4.468,0-7.976-1.483-10.525-4.449c-2.549-2.967-3.823-7.013-3.823-12.141
		c0-5.111,1.286-9.137,3.856-12.073c2.571-2.938,6.083-4.405,10.536-4.405c4.482,0,7.991,1.476,10.525,4.427
		C-93.733,107.846-92.466,111.878-92.466,116.991z M-118.745,116.991c0,4.6,1.025,8.155,3.076,10.667
		c2.051,2.513,4.995,3.769,8.833,3.769c3.867,0,6.822-1.245,8.866-3.735c2.043-2.49,3.065-6.057,3.065-10.7
		c0-4.629-1.022-8.178-3.065-10.646c-2.044-2.468-4.984-3.702-8.822-3.702c-3.823,0-6.771,1.245-8.844,3.735
		C-117.709,108.868-118.745,112.406-118.745,116.991z"/>
	<path display="inline" fill="#FFFFFF" d="M-72.448,116.903h11.843v14.655c-3.105,1.318-6.599,1.978-10.481,1.978
		c-5.068,0-8.954-1.432-11.656-4.296c-2.703-2.863-4.054-6.917-4.054-12.161c0-3.267,0.67-6.164,2.01-8.69
		c1.341-2.527,3.259-4.479,5.757-5.856c2.498-1.376,5.365-2.064,8.603-2.064c3.501,0,6.643,0.645,9.426,1.934l-0.901,2.021
		c-2.783-1.289-5.669-1.934-8.657-1.934c-4.233,0-7.592,1.307-10.074,3.922c-2.483,2.614-3.725,6.141-3.725,10.58
		c0,4.834,1.179,8.47,3.538,10.909c2.358,2.438,5.823,3.658,10.393,3.658c2.959,0,5.471-0.417,7.537-1.253v-11.293h-9.558V116.903z"
		/>
	<path display="inline" fill="#FFFFFF" d="M-34.985,133.096h-17.556v-32.124h17.556v2.065H-50.3v12.15h14.458v2.066H-50.3v13.776
		h15.315V133.096z"/>
	<path display="inline" fill="#FFFFFF" d="M-19.341,133.096h-2.263v-30.015h-10.437v-2.109h23.137v2.109h-10.437V133.096z"/>
	<path display="inline" fill="#FFFFFF" d="M19.134,133.096H16.87v-15.799H-1.894v15.799h-2.241v-32.124h2.241v14.261H16.87v-14.261
		h2.263V133.096z"/>
	<path display="inline" fill="#FFFFFF" d="M45.786,133.096H28.23v-32.124h17.556v2.065H30.471v12.15h14.458v2.066H30.471v13.776
		h15.315V133.096z"/>
	<path display="inline" fill="#FFFFFF" d="M55.301,119.1v13.996h-2.241v-32.124h7.646c3.984,0,6.929,0.736,8.833,2.208
		c1.904,1.473,2.856,3.688,2.856,6.646c0,2.154-0.568,3.971-1.703,5.449c-1.136,1.48-2.86,2.542-5.175,3.187l8.723,14.634H71.56
		L63.277,119.1H55.301z M55.301,117.167h6.13c2.71,0,4.812-0.604,6.306-1.813c1.494-1.208,2.241-2.991,2.241-5.351
		c0-2.445-0.732-4.226-2.197-5.339s-3.853-1.67-7.163-1.67h-5.317V117.167z"/>
</g>
<g enable-background="new    ">
	<path fill="#FFFFFF" d="M-267.596,96.563l-0.813,8.898l8.899-2.285l0.461,2.879l-8.679,0.857l5.427,7.471l-2.725,1.559
		l-4.197-8.326l-3.955,8.326l-2.747-1.559l5.317-7.471l-8.569-0.857l0.417-2.879l8.811,2.285l-0.857-8.898H-267.596z"/>
	<path fill="#FFFFFF" d="M-225.038,114.383c0,5.391-1.414,9.465-4.241,12.227s-6.98,4.143-12.458,4.143h-7.69V98.627h8.679
		c5.127,0,9.027,1.342,11.7,4.021C-226.375,105.331-225.038,109.241-225.038,114.383z M-227.477,114.471
		c0-4.6-1.168-8.061-3.505-10.383s-5.768-3.482-10.294-3.482h-5.911v28.168h5.317C-232.274,128.774-227.477,124.006-227.477,114.471
		z"/>
	<path fill="#FFFFFF" d="M-195.751,118.778c0,3.896-0.945,6.939-2.834,9.129s-4.497,3.285-7.822,3.285
		c-2.095,0-3.94-0.506-5.537-1.516c-1.597-1.012-2.82-2.461-3.669-4.352c-0.85-1.889-1.274-4.072-1.274-6.547
		c0-3.896,0.945-6.934,2.834-9.109c1.89-2.174,4.482-3.262,7.778-3.262c3.281,0,5.855,1.102,7.724,3.307
		C-196.685,111.918-195.751,114.94-195.751,118.778z M-214.604,118.778c0,3.281,0.721,5.84,2.165,7.678
		c1.442,1.84,3.482,2.758,6.119,2.758s4.676-0.918,6.119-2.758c1.443-1.838,2.165-4.396,2.165-7.678c0-3.297-0.729-5.854-2.186-7.67
		c-1.458-1.816-3.505-2.725-6.142-2.725s-4.669,0.904-6.098,2.715C-213.889,112.907-214.604,115.467-214.604,118.778z"/>
	<path fill="#FFFFFF" d="M-171.499,130.752V98.627h2.241v32.125H-171.499z"/>
	<path fill="#FFFFFF" d="M-151.704,129.258c1.377,0,2.578-0.117,3.604-0.352v1.758c-1.055,0.352-2.271,0.527-3.647,0.527
		c-2.109,0-3.666-0.564-4.669-1.691c-1.003-1.129-1.505-2.9-1.505-5.318v-15.424h-3.538v-1.275l3.538-0.988l1.099-5.406h1.121v5.779
		h7.009v1.891h-7.009v15.117c0,1.83,0.322,3.186,0.967,4.064S-153.081,129.258-151.704,129.258z"/>
	<path fill="#FFFFFF" d="M-116.927,130.752h-2.263v-30.016h-10.437v-2.109h23.137v2.109h-10.437V130.752z"/>
	<path fill="#FFFFFF" d="M-79.817,118.778c0,3.896-0.945,6.939-2.834,9.129s-4.497,3.285-7.822,3.285
		c-2.095,0-3.94-0.506-5.537-1.516c-1.597-1.012-2.82-2.461-3.669-4.352c-0.85-1.889-1.274-4.072-1.274-6.547
		c0-3.896,0.945-6.934,2.834-9.109c1.89-2.174,4.482-3.262,7.778-3.262c3.281,0,5.855,1.102,7.724,3.307
		C-80.751,111.918-79.817,114.94-79.817,118.778z M-98.67,118.778c0,3.281,0.721,5.84,2.165,7.678
		c1.442,1.84,3.482,2.758,6.119,2.758s4.676-0.918,6.119-2.758c1.443-1.838,2.165-4.396,2.165-7.678c0-3.297-0.729-5.854-2.186-7.67
		c-1.458-1.816-3.505-2.725-6.142-2.725s-4.669,0.904-6.098,2.715C-97.955,112.907-98.67,115.467-98.67,118.778z"/>
	<path fill="#FFFFFF" d="M-51.871,106.868v1.516l-4.944,0.309c1.318,1.641,1.978,3.441,1.978,5.404c0,2.301-0.766,4.164-2.296,5.592
		c-1.531,1.43-3.585,2.143-6.163,2.143c-1.084,0-1.846-0.043-2.285-0.131c-0.864,0.453-1.523,0.988-1.978,1.604
		s-0.681,1.268-0.681,1.955c0,0.762,0.289,1.318,0.868,1.67s1.549,0.527,2.912,0.527h4.175c2.593,0,4.578,0.523,5.955,1.572
		c1.377,1.047,2.065,2.596,2.065,4.646c0,2.52-1.021,4.465-3.065,5.834c-2.043,1.369-4.955,2.055-8.734,2.055
		c-3.003,0-5.329-0.58-6.976-1.736c-1.648-1.158-2.472-2.768-2.472-4.834c0-1.641,0.509-3.004,1.527-4.086
		c1.018-1.084,2.399-1.824,4.142-2.221c-0.718-0.307-1.293-0.742-1.725-1.307s-0.648-1.213-0.648-1.945
		c0-1.596,1.018-3.002,3.054-4.219c-1.392-0.57-2.476-1.469-3.252-2.691s-1.165-2.625-1.165-4.207c0-2.389,0.758-4.303,2.274-5.746
		c1.517-1.443,3.563-2.164,6.142-2.164c1.567,0,2.783,0.154,3.647,0.461H-51.871z M-71.207,134.795c0,3.281,2.439,4.922,7.317,4.922
		c6.27,0,9.404-2,9.404-5.998c0-1.438-0.491-2.477-1.472-3.121s-2.571-0.967-4.768-0.967h-3.911
		C-69.017,129.631-71.207,131.352-71.207,134.795z M-69.383,114.317c0,1.846,0.56,3.277,1.681,4.295
		c1.12,1.018,2.618,1.527,4.493,1.527c1.992,0,3.519-0.506,4.581-1.516c1.062-1.012,1.593-2.477,1.593-4.395
		c0-2.037-0.546-3.564-1.637-4.582s-2.618-1.527-4.581-1.527c-1.904,0-3.402,0.547-4.493,1.637
		C-68.838,110.848-69.383,112.368-69.383,114.317z"/>
	<path fill="#FFFFFF" d="M-34.625,131.192c-3.472,0-6.178-1.07-8.119-3.209c-1.941-2.139-2.912-5.133-2.912-8.986
		c0-3.809,0.938-6.859,2.812-9.152c1.875-2.291,4.402-3.438,7.581-3.438c2.812,0,5.032,0.98,6.658,2.943s2.439,4.629,2.439,7.998
		v1.758H-43.37c0.029,3.281,0.794,5.787,2.296,7.516c1.501,1.729,3.651,2.592,6.449,2.592c1.362,0,2.56-0.094,3.592-0.285
		c1.033-0.189,2.34-0.6,3.922-1.23v1.979c-1.348,0.586-2.593,0.984-3.735,1.197C-31.988,131.084-33.248,131.192-34.625,131.192z
		 M-35.262,108.34c-2.3,0-4.146,0.758-5.537,2.273s-2.205,3.703-2.439,6.559h14.766c0-2.768-0.601-4.932-1.802-6.492
		S-33.138,108.34-35.262,108.34z"/>
	<path fill="#FFFFFF" d="M-10.567,129.258c1.377,0,2.578-0.117,3.604-0.352v1.758c-1.055,0.352-2.271,0.527-3.647,0.527
		c-2.109,0-3.666-0.564-4.669-1.691c-1.003-1.129-1.505-2.9-1.505-5.318v-15.424h-3.538v-1.275l3.538-0.988l1.099-5.406h1.121v5.779
		h7.009v1.891h-7.009v15.117c0,1.83,0.322,3.186,0.967,4.064S-11.944,129.258-10.567,129.258z"/>
	<path fill="#FFFFFF" d="M17.555,130.752v-15.49c0-2.402-0.505-4.15-1.516-5.242c-1.011-1.09-2.578-1.637-4.702-1.637
		c-2.856,0-4.948,0.723-6.273,2.164c-1.326,1.443-1.989,3.783-1.989,7.021v13.184H0.9V96.563h2.175v10.877l-0.11,3.053h0.154
		c0.894-1.436,2.021-2.475,3.384-3.119s3.054-0.967,5.076-0.967c5.42,0,8.13,2.908,8.13,8.723v15.623H17.555z"/>
	<path fill="#FFFFFF" d="M39.789,131.192c-3.472,0-6.178-1.07-8.119-3.209c-1.941-2.139-2.912-5.133-2.912-8.986
		c0-3.809,0.938-6.859,2.812-9.152c1.875-2.291,4.402-3.438,7.581-3.438c2.812,0,5.032,0.98,6.658,2.943s2.439,4.629,2.439,7.998
		v1.758H31.044c0.029,3.281,0.794,5.787,2.296,7.516c1.501,1.729,3.651,2.592,6.449,2.592c1.362,0,2.56-0.094,3.592-0.285
		c1.033-0.189,2.34-0.6,3.922-1.23v1.979c-1.348,0.586-2.593,0.984-3.735,1.197C42.426,131.084,41.166,131.192,39.789,131.192z
		 M39.152,108.34c-2.3,0-4.146,0.758-5.537,2.273s-2.205,3.703-2.439,6.559h14.766c0-2.768-0.601-4.932-1.802-6.492
		S41.276,108.34,39.152,108.34z"/>
	<path fill="#FFFFFF" d="M66.944,106.407c1.011,0,2.095,0.102,3.252,0.307l-0.417,2.088c-0.996-0.248-2.029-0.373-3.098-0.373
		c-2.036,0-3.706,0.863-5.01,2.592s-1.956,3.912-1.956,6.549v13.184H57.54v-23.885h1.846l0.22,4.307h0.154
		c0.981-1.758,2.029-2.992,3.142-3.703C64.014,106.762,65.362,106.407,66.944,106.407z"/>
</g>
</svg>
