<?xml version="1.0" encoding="utf-8"?>
<!-- Generator: Adobe Illustrator 19.2.0, SVG Export Plug-In . SVG Version: 6.00 Build 0)  -->
<svg version="1.1" id="Layer_1" xmlns="http://www.w3.org/2000/svg" xmlns:xlink="http://www.w3.org/1999/xlink" x="0px" y="0px"
	 viewBox="0 0 1305.3 512" style="enable-background:new 0 0 1305.3 512;" xml:space="preserve">
<style type="text/css">
	.st0{opacity:0.6;fill:#FFFFFF;enable-background:new    ;}
	.st1{fill:#FFFFFF;}
</style>
<title>logo_edtech</title>
<path class="st0" d="M649,148.9c-0.1-30.3-0.2-60.6-0.2-90.9c0-19.3,0-38.6,0.1-58h123c2,0,5.2,0.9,6.7,1.2
	C819,8.2,839.1,38.3,845,76.1c1.4,9.4,2,18.8,1.8,28.3c0,13.5,0,26.9,0,40.4c0,2.4,0,4.4-3.1,4.4c-8.3,0.7-16.5,0.6-24.8,0.6
	c-6.9,0-7.1,0.2-7.1,7.4c0,23.7,0,47.5,0,71.2c0,10.5-0.1,10.5-10.8,9.2c0-0.7-0.1-1.3-0.1-2c0-27.2,0-54.5,0-81.7
	c0-4.9,0-4.9-4.9-4.9c-0.7,0-1.3,0.1-2,0.2l-3.5,0.2c-7.6,0.5-15.2,0.7-22.7-0.7c-0.1-16.3-0.2-32.6-0.2-48.9c0-3.5-0.4-7-1.1-10.4
	c-2-9.9-8.3-15.3-18.5-15.6c-4.7-0.2-9.3-0.1-14,0c-5.6,0-5.6,0.1-5.6,5.8c0,21,0,42,0.1,62.9c0,3-0.5,4.8-3.9,4.6
	c-1.1,0.2-2.3,0.2-3.4,0c-9-1.5-17.5-1.2-26.3,2.5c-12.9,5.4-22.3,21.8-22.4,33.5c-0.2,26.5,0,53,0,79.4c0,18.5-0.3,37,0.1,55.5
	c0.4,15.4,7.2,27.2,21.1,34.8c9.9,5.4,20.3,4.5,30.9,3.3c3.1-0.5,4.5,0.6,4.4,4c-0.2,5.3,0,10.7,0,16c0.1,19.2,0.1,38.3,0.2,57.5
	c0,2.2-0.6,5,3.1,4.9c6.3-0.1,12.7,0.1,19-0.4c8.1-0.6,13-5.4,15.2-13c1.3-4.3,1.9-8.8,1.9-13.3c0-19.2,0-38.3,0-57.5
	c6-1.1,12.1-1.3,18.1-0.7c2.3,0.2,4.6,0.2,6.9-0.2c6.9,1.6,7.2,1.4,7.2-5c0-26.2,0-52.4,0-78.6c0.8-0.2,1.6-0.4,2.4-0.4
	c10.3-0.2,8.4-0.5,8.4,7.9c0.1,23.9,0,47.8,0,71.8c0,4.8,0.4,5.1,5.1,5.1c9,0,17.9-0.1,26.8-0.1c2.5-0.1,3.9,0.6,3.8,3.6
	c-0.4,24.8,1.6,49.7-0.9,74.4s-11.7,46.4-32.3,61.8c-12.4,9.3-26.6,14.1-41.8,16.4c-5.6,0.8-11.3,1.2-16.9,1.1
	c-33.5,0.1-67,0.2-100.5,0.2c-5.3,0-5.3,0-5.4-5.4c-0.1-43.5-0.2-87-0.2-130.4c0-7.2,0-14.3-0.1-21.5h14.2c6.2,0,7,0.5,7-5.6
	s0-12.2,0-18.3c0-6.6-0.5-5.7-7.1-5.7l-14.6-0.1c0.1-1.2,0.2-2.3,0.2-3.5c0-19.3,0-38.7-0.1-58h2.8c6.2,0,7,0.5,7-5.8
	c0-5.6,0-11.2,0-16.9c0-6.3-0.6-5.7-7-5.7l-2.9-0.1l0.2-55.5l14.5-0.1c5.6,0,7,0.4,7-5.8c0-6.8-0.1-13.6,0-20.4
	c0-2.6-0.7-4.1-3.6-3.8L649,148.9z"/>
<path class="st0" d="M622.8,0c0.1,23.5,0.1,47,0.4,70.5c0,4.2-2.3,3.6-4.8,3.6l-75.5,0.1c-6.2,0-6.2,0-6.2,6.2c0,22.8,0,45.7,0,68.5
	l-22.2,1c-2.8-0.3-3.8,0.9-3.8,3.8c0.1,7.7,0.1,15.3,0,23c0,2.7,1.1,3.5,3.5,3.4c4.3-0.1,8.7-0.1,13-0.1c6.5,0,6.6,0,6.6,6.4
	c0,33,0,66,0,99c0,21,0,42,0,63c0,2.7,0.2,5,3.3,5.9c0.2,26,0.3,51.9,0.5,77.9c0,6,0,6,5.9,6l75.9-0.1c5,0,5.1,0,5.1,5.2
	c0.1,23,0.3,45.9,0.4,68.9h-167c-0.1-52.9-0.3-105.7-0.4-158.6c-0.2-115.9-0.5-231.9-0.7-347.8c0-5,0-4.9,4.8-5
	C500,0.7,609.2,0,622.8,0z M504.8,477.2L504.8,477.2c0-6.5,0.1-13,0-19.5c-0.1-4.6-2.9-8.2-6.3-7.4c-4.3,1.1-8.1,0.8-12.3,0.1
	c-2.5-0.4-5.4,1.1-8.2,0.6c-3.1-0.6-4.3,0.7-4.3,4c0.2,13.7,0.2,27.3,0,41c0,3.3,1.1,4.2,4.2,4.2c3.3,0.1,3.8-1.4,3.7-4.2
	c-0.1-10.8-0.1-21.7,0-32.5c0-1.3,0.1-2.6,0.4-3.9c0.2-0.9,1-1.4,1.9-1.3c0.8,0.1,1.4,0.9,1.3,1.7c0,0,0,0,0,0
	c0.1,1.2,0.1,2.3,0.1,3.5c0,10.8,0.1,21.7,0,32.5c0,2.7,0.4,4.2,3.8,4.2c3.4,0,3.9-1.2,3.8-4.1c-0.1-10.7,0-21.3,0-32
	c0-1.5-0.3-3,0.5-4.4c0.5-0.9,1.2-1.7,2.4-1.4s1,1.2,1,2c0.1,1.2,0,2.3,0,3.5c0,10.8,0.1,21.7-0.1,32.5c-0.1,3.2,1.2,3.8,4.1,3.9
	c3.1,0.1,4-1,3.9-4C504.7,489.8,504.9,483.5,504.8,477.2L504.8,477.2z M592,475L592,475c0,7.3,0.1,14.7-0.1,22
	c-0.1,3.5,2,3.1,4.2,3.1s3.9,0,3.7-3.1c-0.2-4-0.2-8,0.1-12c0.1-1.7-1.4-4.9,1.4-5s1.5,3.1,1.7,4.9c0.3,4.3-0.2,8.6,0.7,12.9
	c0.8,3.5,3.3,1.9,5.2,2.1c1,0.1,2.8,0.3,2.4-1.5c-1.7-7,1.4-14.4-2-21.1c-0.5-0.7-0.5-1.6,0-2.3c2-3,1.3-6.5,1.3-9.7
	c0.1-13.4-2-15.3-15.4-14.5c-2.8,0.2-3.3,1.3-3.3,3.6C592.1,461.3,592,468.2,592,475z M527,479.7c0-8.2,0.1-14.3,0-20.5
	c-0.1-4.2-2.4-7.2-6.4-8.6c-3.7-1.4-7.9-0.3-10.3,2.9c-2.3,2.9-1.7,6.6-2,10c-0.2,2.9,1.3,3.6,4,3.6c2.7,0,3.9-0.9,3.6-3.8
	c-0.1-1.3,0-2.7,0.1-4c0-0.7,0.5-1.3,1.2-1.4c0.7-0.1,1.3,0.2,1.7,0.8c1.2,1.9,0.1,10.1-1.7,11.1c-9.3,5.5-10.2,14.1-9.1,23.5
	c0.5,4.7,4.3,8.2,8.4,7.3c3-0.6,6.1-0.8,9.2-0.7c1.7,0,2.2-0.5,1.9-2.4C526.4,491.1,527.2,484.4,527,479.7z M570,475.6h0.1
	c0,5.5-0.3,11,0.1,16.5s4.7,9.1,10.1,8.9c4.7-0.2,8.2-3.9,8.6-9.3c0.1-2.1,0-4.3,0.1-6.5c0.2-2.9-1.4-3.1-3.7-3.1
	c-2.3,0-3.9,0.1-3.8,3c0.1,2.2,0,4.3-0.2,6.5c0,0.8-0.8,1.5-1.6,1.4c0,0-0.1,0-0.1,0c-0.8,0-1.5-0.7-1.5-1.5c0,0,0-0.1,0-0.1
	c-0.1-1.8-0.1-3.7-0.1-5.5c0-7.7,0-7.8,7.6-8.1c2.3-0.1,3.4-0.6,3.4-3c-0.1-5.3,0.1-10.7-0.2-16c-0.2-2.9-1.1-6.3-4-7.4
	c-10.4-3.9-15.1,2.7-14.8,10.2C570,466.3,569.9,470.9,570,475.6L570,475.6z M548.1,461.2c-0.2-8-4.1-12-10.5-10.9
	c-4.8,0.8-7.9,4.8-8,10.5c-0.1,4.8,1.9,9,4.1,13.1c1.9,3.5,3.9,7,5.7,10.5c1,1.9,1.5,4.1,1.4,6.2c-0.1,1.5-0.2,3.2-2.2,3.2
	s-2.2-1.7-2.5-3.2c-0.1-1.2-0.1-2.3-0.1-3.5c0.1-1-0.6-1.9-1.6-2c-0.2,0-0.4,0-0.7,0c-1.5,0.1-3.4-0.8-4.4,1.2
	c-1.8,3.6,1.5,12.1,5.4,13.7c3.5,1.4,6.9,1.3,9.9-1.1c3.4-2.8,4.4-6.6,3.8-10.8c-0.9-6.2-4.2-11.5-7.2-16.8
	c-1.5-2.6-3.1-5.1-3.7-8.1c-0.4-2.3-1.4-5.3,1.7-5.7c2.8-0.3,2,2.9,1.9,4.6c-0.2,3.8,2,4,4.7,3.7
	C549.6,465.5,547.3,462.5,548.1,461.2z M554.9,479.5L554.9,479.5c0,5.5,0.1,11,0,16.5c-0.1,2.9,0.5,4.2,3.8,4.2s4.3-0.9,4.3-4.2
	c-0.2-11-0.1-22-0.1-33c0-2.5-0.2-4.6,3.4-4.5c3.2,0,2-2.9,2.2-4.6c0.3-2-0.7-3-2.9-2.9c-4.5,0.1-9,0.1-13.5,0c-2.3,0-3,1.1-2.8,3.1
	c0.2,1.8-0.9,4.6,2.3,4.5c3.2-0.1,3.4,1.6,3.4,4C554.9,468.2,554.9,473.8,554.9,479.5L554.9,479.5z"/>
<path class="st1" d="M843.8,353.8c-9,0-17.9,0.1-26.9,0.1c-4.8,0-5.1-0.3-5.1-5.1c0-23.9,0-47.8,0-71.8c0-8.4,1.9-8.1-8.4-7.9
	c-0.8,0.1-1.6,0.2-2.4,0.4c-6.7-0.2-6.8-0.2-6.8,6.4c0,23.9,0,47.9,0,71.8c0,1.8,0.4,3.7-0.4,5.4c-2.3,0.4-4.6,0.5-6.9,0.2
	c-6-0.6-12.1-0.4-18.1,0.7c-6.5-0.4-6.5-0.4-6.5-6.9c0-64.1,0-128.2,0-192.3c0-5.8,0-5.8,5.7-6.3c7.5,1.4,15.1,1.2,22.7,0.7l3.5-0.2
	c0,27.7,0.1,55.4,0.1,83.1c0,5.4,0.1,5.4,5.4,5.4c0.5,0,1-0.1,1.5-0.1c10.7,1.3,10.8,1.3,10.8-9.2c0-23.7,0-47.5,0-71.2
	c0-7.2,0.2-7.4,7.1-7.4c8.3,0,16.6,0.1,24.8-0.6C843.8,217.4,843.8,285.6,843.8,353.8z"/>
<path class="st1" d="M649,148.9l14.6,0.3c0,9.6,0,20.2,0,29.8l-14.5,0.1c0,0-11.9-0.2-17.8-0.4c-2-0.1-2.4,1-2.4,2.8
	c0,16.8,0,33.5,0,50.3c0,2.5,1,3.1,3.2,3c5.6-0.1,11.3-0.1,16.9-0.1l2.9,0.1c0,9,0,19.3,0,28.3h-2.8c-5.8-0.1-11.6-0.1-17.4-0.3
	c-2.2-0.1-2.8,0.8-2.8,2.9c0.1,18.6,0.1,37.2,0,55.8c0,2.5,0.9,3.1,3.2,3c5.6-0.1,11.3,0,16.9-0.1l14.6,0.1c0,9.4,0,20.2,0.1,29.6
	h-14.1c-16,0-32-0.2-47.9-0.1c-3.6,0-4.8-0.8-4.8-4.6c0.1-65.3,0.1-130.5,0-195.8c0-3.8,1-4.7,4.7-4.7
	C617.3,149.1,633.2,148.9,649,148.9z"/>
<path class="st1" d="M537,354.2c-3.1-0.8-3.3-3.2-3.3-5.9c0.1-21,0-42,0-63c0-33,0-66,0-99c0-6.4,0-6.4-6.5-6.4c-4.3,0-8.7,0-13,0.1
	c-2.5,0.1-3.6-0.7-3.6-3.4c0.1-7.7,0.1-15.3,0-23c0-2.8,1-4,3.8-3.8l22.2-1c15.7,0.1,31.3,0.2,47,0.1c3.6,0,5,0.6,4.8,4.6
	c-0.3,7.5-0.3,15,0,22.5c0.1,3.4-1.1,4.2-4.3,4.1c-5-0.2-10,0.2-15-0.1c-3.7-0.2-4.3,1.2-4.3,4.5c0.1,23.6,0.1,47.3,0.1,71
	c0,31.1,0,62.3,0,93.4c0,5.6,0.8,5-5,5C552.3,354,544.7,354.1,537,354.2z"/>
<path class="st0" d="M568.9,248.5c0-10.1,0.1-20.3-0.1-30.5c-0.1-3.3,0.9-4.3,4.2-4.2c5,0.2,10,0.2,15,0c2.9-0.1,3.7,1,3.7,3.8
	c0,20.8,0,41.6,0.1,62.4c0,2.9-1,3.8-3.8,3.7c-5.2-0.1-10.3-0.1-15.5,0c-2.9,0.1-3.7-1.2-3.7-3.8C569,269.5,568.9,259,568.9,248.5z"
	/>
<path class="st1" d="M724.9,356c-10.5,1.2-20.9,2.1-30.9-3.3c-13.9-7.5-20.7-19.4-21.1-34.7c-0.5-18.5-0.1-37-0.1-55.5
	c0-26.5-0.2-53,0-79.4c0.1-11.7,9.5-28.1,22.4-33.5c8.8-3.6,17.3-4,26.3-2.5c1.1,0.2,2.3,0.2,3.4,0c0.1,0.8,0.8,0.9,1.4,1.1
	c14.5,5.7,21.8,16.8,23.6,31.8c1.6,13.1,0.3,26.2,0.7,39.3c0.1,2.7-1.4,2.9-3.4,2.9c-6.1,0-12.3,0.1-18.4,0.1
	c-1.4-0.4-2.9-0.7-4.4-0.9c-2-0.2-2.9-1.2-2.9-3.2c-0.2-10.1-1.6-20.1-0.5-30.2c0.6-5.6-1.3-9.1-5.5-10.7c-5.8-2.4-8-0.1-9.7,3.5
	c-0.8,2.2-1.2,4.5-1,6.9c0,42.5,0,85,0,127.5c-0.1,1.8,0.1,3.7,0.5,5.4c1.7,5.3,4.6,6.6,10.3,4.5c4.4-0.1,4.9-3.3,5-6.6
	c0.1-8.8,0-17.7,0-26.5c0.1-8.8,0-11.3,8.2-11.3c6.1,0.1,12.3,0.3,18.4,0.2c2.6,0,3.4,0.8,3.4,3.4c-0.1,11.3,0.4,22.6-0.2,33.9
	c-0.9,17-7,31-24.2,37.4L724.9,356z"/>
<path class="st0" d="M728.8,222.3l0.1,58.3c-8.6,0-8.2,3.7-8.2,11.3c0,8.8,0,17.7,0,26.5c0,3.3-0.5,6.5-5,6.6
	c-4.4-2-3.9-6.1-3.9-9.9c0-41.9,0-83.8-0.1-125.7c0-4,0.3-8.5,2-12.2l0.3-0.5c0.4,0.1,1,0.3,1.5,0.6c4.2,1.5,6.1,5,5.5,10.7
	c-1.1,10.1,0.3,20.1,0.5,30.2c0,2,0.9,3,2.9,3.2C725.9,221.6,727.4,221.9,728.8,222.3z"/>
<path class="st0" d="M602.8,466.6c-0.8,1.6,1.9,5.8-1.6,5.9c-2.4,0.1-1-4.1-1.2-6.4c-0.1-2.1-0.1-4.3,0.1-6.4
	c-0.1-0.7,0.5-1.4,1.2-1.4c0.1,0,0.3,0,0.4,0c0.7,0.1,1.2,0.7,1.2,1.4C602.8,461.6,602.8,463.8,602.8,466.6z"/>
<path class="st0" d="M519.1,484.5c-0.1,2.1-0.1,4.3-0.3,6.4c0,1-0.8,1.8-1.7,1.8c-0.1,0-0.1,0-0.2,0c-1.1-0.1-1-1.2-1-1.9
	c-0.1-3.6-0.7-7.2,0.8-10.7c0.3-0.7,0.7-1.7,1.7-1.5c1.1,0.2,0.6,1.3,0.7,2c0.1,1.3,0,2.6,0,4L519.1,484.5L519.1,484.5z"/>
<path class="st0" d="M581.6,464.8c-0.2,2.1,1,5.8-2.2,5.8c-2.9-0.1-1.9-3.8-1.8-5.8c0.1-2.3-1.4-6.5,2.3-6.5
	C581.8,458.3,581.8,462.4,581.6,464.8z"/>
</svg>
