<?xml version="1.0" encoding="utf-8"?>
<!-- Generator: Adobe Illustrator 16.0.0, SVG Export Plug-In . SVG Version: 6.00 Build 0)  -->
<!DOCTYPE svg PUBLIC "-//W3C//DTD SVG 1.1//EN" "http://www.w3.org/Graphics/SVG/1.1/DTD/svg11.dtd">
<svg version="1.1" id="Layer_1" xmlns="http://www.w3.org/2000/svg" xmlns:xlink="http://www.w3.org/1999/xlink" x="0px" y="0px"
	 width="350.489px" height="51.393px" viewBox="0 0 350.489 51.393" enable-background="new 0 0 350.489 51.393"
	 xml:space="preserve">
<g>
	<g>
		<g>
			<path fill="#FFFFFF" d="M117.099,43.99c-3.797,0.271-7.84-1.232-10.092-2.328c-2.658-1.295-4.42-3.733-5.809-7.221
				c-1.218-3.081-1.828-6.807-1.828-11.176c0-3.556,0.543-7.72,1.828-12.445c2.531-9.298,2.357-10.035,5.174-9.688
				c0.235,0.03,1.845,0.199,2.269,0.316c0.423,0.121,0.779,0.342,0.991,0.229c2.111-1.116,5.295-1.519,6.422-1.411
				c4.134,0.397,6.788,1.903,9.29,7.624c1.856,4.246,2.88,9.451,2.88,15.174c0,5.418-0.949,10.074-2.845,13.969
				C123.347,41.266,120.601,43.741,117.099,43.99z M116.185,6.757c-0.746-0.203-1.482,0.797-2.209,2.997
				c-1.209,3.649-1.209,3.649-2.211,3.301c-0.16-0.056-0.414-0.091-0.736-0.278c-0.323-0.186-0.584-0.296-0.788-0.331
				c-1.151,2.541-1.726,6.164-1.726,10.872c0,3.691,0.389,6.856,1.167,9.498c0.882,2.947,2.099,4.572,3.657,4.877
				c1.83,0.339,3.303-1.54,4.42-5.639c0.982-3.59,1.473-7.856,1.473-12.801c0-3.352-0.254-6.163-0.762-8.433
				C117.928,8.383,117.165,7.029,116.185,6.757z"/>
			<path fill="#FFFFFF" d="M153.056,6.049c3.734,4.598,3.082,4.209,2.118,8.294c-1.253,5.314-2.823,8.532-5.337,13.384
				c-1.508,2.909-2.961,4.676-5.737,4.676c-0.542,0-1.144-0.262-1.803-0.788c-0.661-0.523-1.313-1.041-1.956-1.549v8.636
				c0.066,3.731,0.547,4.88,0.24,5.638c-0.322,0.795-1.791,0.914-5.269-0.762c-2.104-1.014-3.454-1.794-3.963-2.539
				c-0.304-0.475,0.106-0.915,0.188-2.7c0,0,0.87-19.28,0.149-34.887c-0.031-0.675,0.837-2.4,1.186-2.339s5.259,1.075,6.11,1.251
				c0.621,0.128,0.701,0.025,0.731,1.202c0.013,0.485,1.151-0.856,2.194-1.559c1.391-0.938,2.504-1.246,3.206-1.353
				C146.876,0.389,152.231,5.034,153.056,6.049z M145.274,7.373c-1.848,0.519-4.189,3.695-4.934,4.71v11.271
				c2.473,2.771,5.592-2.426,8.168-12.517C148.766,9.83,145.894,7.198,145.274,7.373z"/>
			<path fill="#FFFFFF" d="M181.055,36.901c0.03,0.78,0,1.646-0.462,1.853c-0.751,0.337-4.967,2.683-6.015,3.191
				c-2.507,1.151-4.81,2.624-6.908,4.419c-3.387-1.39-5.232-2.15-5.537-2.286c-2.101-0.915-3.149-1.592-3.149-2.031L159.2,2.525
				c0-0.235,1.146-1.65,1.367-1.791c0.303-0.194,2.057,0.433,3.031,0.954c0.359,0.19,2.102,0.951,3.3,1.622
				c0.377,0.211,0.036,1.169,0.274,1.063c0.923-0.42,2.529-1.085,4.154-2c1.49-0.88,2.434-1.285,2.794-1.116
				c0.827,0.385,1.231,0.652,2.265,1.479c1.721,1.376,2.748,2.566,3.175,3.064c0.26,0.303-0.454,1.82-1.226,2.228
				c-2.563,1.357-9.17,4.595-10.716,5.47v8.279c1.185-0.609,2.712-1.28,4.622-1.878c0.757-0.239,5.244,3.379,5.912,4.185
				c0.237,0.287-0.217,1.815-0.693,2.075c-1.208,0.658-6.064,2.989-9.841,4.914v5.334c1.015-0.609,2.395-1.328,4.141-2.159
				c1.743-0.829,2.818-1.243,3.224-1.243C175.458,33.006,181.038,36.49,181.055,36.901z"/>
			<path fill="#FFFFFF" d="M211.447,5.379c0,0,0.217,36.286,0.23,37.196c0.005,0.304-0.417,1.184-1.991,2.339
				c-0.623,0.459-8.884,0.046-8.924-0.691c-0.072-1.339,0.044-1.56-0.605-3.25c-1.924-5-4.889-10.862-7.396-16.857
				c0,0,0.862,17.169,0.884,17.242c0.123,0.434,0.188,1.739,0.188,2.171c0,1.355-0.613,1.16-1.833,1.16
				c-1.187,0-2.021-0.005-4.188-0.683c-2.031-0.677-3.184-1.202-3.453-1.575c-0.408-0.541-0.231-3.788-0.231-3.99l-0.04-33.548
				c0-0.179,1.053-1.831,1.471-2.087c0.156-0.097,4.113-0.233,5.527-0.024c2.271,0.334,1.228,0.875,1.664,1.809
				c1.95,4.156,3.144,6.482,4.549,9.702c2.654,6.078,4.574,10.18,5.623,12.414l0.051-22.551c0-0.27,0.389-1.707,0.779-1.751
				c0.905-0.101,5.01,0.408,6.13,0.528C210.379,2.988,211.515,5.04,211.447,5.379z"/>
			<path fill="#FFFFFF" d="M293.088,24.472c-0.034,0.474-0.234,1.373-1.192,1.752c-1.371,0.543-2.414,1.059-2.516,1.093
				c0,0,0.062,15.953,0.062,17.34c0,1.385,0.477,1.558-1.077,1.25c-1.163-0.229-4.602-1.087-6.459-1.945
				c-1.689-0.778-1.031-0.808-1.11-5.064v-10.26c-0.644,0.068-1.913,0.321-3.809,0.761c-1.896,0.44-3.149,0.78-3.76,1.016
				l0.139,11.818c0.007,1.601,0.569,2.683-0.124,2.641c-2.618-0.164-7.998-2.719-8.699-3.231c-0.367-0.27-0.31-20.29-0.31-20.29
				c-0.142-10.994,0.259-16.394,0.563-17.714c0.068-0.339,0.896-0.755,1.98-1.363c0.066-0.034,4.056,0.493,5.469,0.801
				c0.996,0.215,1.105-0.308,1.006,2.294l-0.024,15.445c2.303-0.576,4.825-1.168,7.568-1.778c0-9.379,0.085-14.677,0.091-14.744
				c0.113-1.271,0.845-2.416,1.23-2.424c2.91-0.06,4.874,0.037,6.373,0.383c1.689,0.39,1.039,0.693,1.126,4.853l-0.235,13.406
				c0.17,0.203,0.966,0.933,2.388,2.185C292.683,23.507,293.122,24.099,293.088,24.472z"/>
			<path fill="#FFFFFF" d="M320.551,15.734c0,19.302-5.456,30.195-7.46,30.177c-4.417-0.043-12.258-2.599-14.028-4.575
				c-1.375-1.536-2.505-4.844-3.353-9.957c-0.744-4.707-1.117-9.923-1.117-15.645c0-4.403,0.266-8.122,0.712-11.633
				c0.048-0.372,0.981-2.038,1.474-2.032c0.395,0.006,6.264,1.005,7.771,2.285c0.201,0.172-0.588,4.255-0.555,4.697
				c-0.17,0.642-0.41,2.229-0.41,5.311c0,5.961,0.27,11.362,0.812,16.204c0.677,6.232,1.102,7.643,2.891,8.502
				c0.309,0.147,2.898-2.49,3.713-8.247c0.643-4.437,1.039-9.67,0.965-15.696c-0.061-4.905-0.303-12.875,0.102-12.954
				c0.541-0.106,8.025,1.541,8.33,1.88C320.601,4.287,320.551,8.895,320.551,15.734z"/>
			<path fill="#FFFFFF" d="M350.212,24.297c0.824,0.954-0.043,4.462-4.591,12.171c-1.648,2.794-4.025,5.173-6.835,7.238
				c-2.574,1.861-4.316,2.724-5.231,2.59c-1.017-0.136-2.812-0.889-5.385-2.261c-2.574-1.372-3.962-2.311-4.166-2.82
				c-0.067-0.135-0.019-0.979-0.03-2.623c-0.012-1.647-0.266-33.304,0.164-33.656c0.736-0.606,5.023,1.169,5.934,0.433
				c0.909-0.736,1.797-1.58,4.219-2.377c2.42-0.795,4.496-1.193,6.223-1.193c1.017,0,1.815,0.122,2.362,0.432
				c2.399,1.363,6.085,6.71,6.181,7.301c0.217,1.344-2.092,5.931-5.646,9.081C347.031,21.354,348.731,22.583,350.212,24.297z
				 M340.846,9.558c-0.041-0.145-0.562-0.822-0.866-0.822c-0.779,0-2.163,0.593-3.822,1.405c-1.66,0.812-2.777,1.592-3.354,2.336
				v5.283c2.166-1.728,3.956-3.114,5.529-4.909C339.909,11.056,341.02,10.164,340.846,9.558z M340.771,24.212
				c-0.22-0.217-1.682,0.332-3.77,1.558c-2.109,1.239-3.041,1.917-4.057,2.797v9.449c2.201-0.609,4.561-2.421,6.699-5.532
				C342.503,28.326,343.196,26.593,340.771,24.212z"/>
		</g>
		<path fill="#FFFFFF" d="M256.913,3.577c0,0-10.348,40.705-10.365,41.153c-0.053,1.373-0.803,1.373-1.346,1.357
			c-1.838-0.054-3.631,0.112-5.45-0.637c-0.726-0.298-9.468-39.268-9.468-39.268c-0.602-1.925-0.346-1.661,0.24-1.844
			c3.209-1.004,5.633-1.075,6.818-1.083c0.359-0.003,0.367,0.084,0.44,0.48l5.169,25.362c0,0,5.594-24.497,5.619-24.64
			c0.562-3.168,0.84-2.409,1.844-2.406s4.328,0.532,5.807,0.678C257.093,2.819,257.233,2.736,256.913,3.577z"/>
		<path fill="#FFFFFF" d="M259.733,41.193c-0.197,0.929-0.983,4.818-1.319,5.417c-0.245,0.432-3.832-0.247-4.591-0.645
			c-0.904-0.432-1.784-0.732-1.585-1.202c0.198-0.47,1.087-6.372,1.503-6.77c0.415-0.397,5.18,0.181,6.013,0.595
			C260.585,39.005,260.151,39.229,259.733,41.193z"/>
	</g>
	<g>
		<circle fill="#FFFFFF" cx="3.145" cy="48.771" r="2.62"/>
		<circle fill="#FFFFFF" cx="11.923" cy="48.771" r="2.62"/>
		<circle fill="#FFFFFF" cx="20.699" cy="48.771" r="2.621"/>
		<path fill="#FFFFFF" d="M53.015,24.089c-0.562,0-1.018-0.455-1.018-1.018v-4.537L30.559,29.253l21.438,10.721v-4.536
			c0-0.562,0.455-1.017,1.018-1.017l11.347-0.001v-5.165v-5.166H53.015z"/>
		<path fill="#CC002D" d="M28.776,6.17v4.537c0,0.562-0.455,1.016-1.016,1.016l-11.349,0.001v5.167v5.162h11.349
			c0.561,0,1.016,0.456,1.016,1.019l0,0v4.537l21.439-10.717L28.776,6.17z"/>
		<path fill="#FFFFFF" d="M0,0v0.237v1.267v7.688v1.135V23.45v1.136v9.335v1.135v7.508v0.749v0.284h77.087v-0.284v-0.749V35.37
			v-1.138v-9.956V23.14V10.642V9.504v-8V0.237V0H0z M64.854,22.053c0.561,0,1.016,0.456,1.016,1.019v4.54l9.1-4.552v1.139v1.134
			v7.844v1.137v1.137l-9.1-4.55v4.537c0,0.562-0.454,1.016-1.016,1.016l-11.348,0.002l-0.001,5.165h-1.015h-0.002h-1.016h-1.256
			h-0.002l-21.439-10.72v4.537c0,0.562-0.455,1.016-1.016,1.016l-11.349,0.002v5.165h-1.017h-1.017h-1.255H2.118v-5.505v-1.135
			v-1.138l12.261,6.134v-4.538c0-0.562,0.456-1.017,1.017-1.017l11.348-0.001v-5.165v-0.002v-5.164H15.396
			c-0.561,0-1.017-0.455-1.017-1.018v-4.538L2.118,24.665v-1.139v-1.135V11.388V10.25V9.115l12.261,6.13v-4.537
			c0-0.562,0.456-1.017,1.017-1.017h11.348V4.524V4.523V1.932h1.018h1.016h1.895h2.275h2.271l-5.185,2.592l21.44,10.719v-4.534
			c0-0.562,0.455-1.017,1.018-1.017h11.346V4.524V1.932h1.018h1.016h9.1v6.515v1.136v1.136l-9.1-4.55v4.539
			c0,0.562-0.454,1.016-1.016,1.016l-11.348,0.001v5.167v0.001v5.161H64.854z"/>
	</g>
</g>
</svg>
