<?xml version="1.0" encoding="utf-8"?>
<!-- Generator: Adobe Illustrator 16.0.0, SVG Export Plug-In . SVG Version: 6.00 Build 0)  -->
<!DOCTYPE svg PUBLIC "-//W3C//DTD SVG 1.1//EN" "http://www.w3.org/Graphics/SVG/1.1/DTD/svg11.dtd">
<svg version="1.1" id="Layer_1" xmlns="http://www.w3.org/2000/svg" xmlns:xlink="http://www.w3.org/1999/xlink" x="0px" y="0px"
	 width="145.591px" height="73.21px" viewBox="0 0 145.591 73.21" enable-background="new 0 0 145.591 73.21" xml:space="preserve">
<symbol  id="New_Symbol_22" viewBox="-26.984 -30.48 53.968 60.96">
	
		<line fill="none" stroke="#000000" stroke-width="0.8004" stroke-miterlimit="10" x1="-20.399" y1="29.772" x2="-0.457" y2="9.38"/>
	<line fill="none" stroke="#000000" stroke-width="4" stroke-miterlimit="10" x1="-1.74" y1="9.449" x2="-3.737" y2="-3.305"/>
	<line fill="none" stroke="#000000" stroke-width="4" stroke-miterlimit="10" x1="-5.695" y1="7.304" x2="-7.944" y2="-3.938"/>
	<path fill="none" stroke="#000000" stroke-width="0.8004" stroke-miterlimit="10" d="M7.971,0.778L-14.966-6.99
		c0,0-1.842-2.071-0.45-3.414c3.467-3.34,10.593-9.989,18.115-15.729c10.543-8.046,30.242-3.329,20.809,9.989
		c-5.767,8.14-9.389,12.812-11.333,15.213C10.938,0.595,7.971,0.778,7.971,0.778z"/>
	<path fill="none" stroke="#000000" stroke-width="3" stroke-miterlimit="10" d="M-12.223-9.058
		c3.467-3.342,8.51-8.009,16.032-13.747c6.68-5.098,17.846-4.663,22.141-0.575"/>
	<path fill="none" stroke="#000000" stroke-width="3" stroke-miterlimit="10" d="M12.706-1.437c-1.237,1.525-3.079,1.858-4.204,1.71
		C2.5-0.524-8.282-3.472-13.329-6.816c-0.717-0.478,0.67-2.16,2.062-3.503"/>
	<path fill="none" stroke="#000000" stroke-width="3" stroke-miterlimit="10" d="M-0.273,9.829
		c-0.578-0.577-3.824-2.185-5.931-2.191c-0.947-0.005-1.523,0.771-3.028,2.089L-24.77,24.64c-1.193,1.055-1.308,1.814,2.983,4.231
		c0.763,0.432,1.803-0.555,1.803-0.555"/>
</symbol>
<use xlink:href="#New_Symbol_22"  width="53.968" height="60.96" x="-26.984" y="-30.48" transform="matrix(1.0765 0 0 -1.0765 112.4521 35.6826)" overflow="visible"/>
<text transform="matrix(1 0 0 1 5.3135 60.9053)" enable-background="new    "><tspan x="0" y="0" font-family="'RobotoMono-Regular'" font-size="33">base</tspan><tspan x="77.893" y="0" font-family="'RobotoMono-Regular'" font-size="28">.</tspan></text>
<use xlink:href="#New_Symbol_22"  width="53.968" height="60.96" x="-26.984" y="-30.48" transform="matrix(1.0765 0 0 -1.0765 213.4746 229.0977)" overflow="visible"/>
<text transform="matrix(1 0 0 1 105.3364 254.3203)" enable-background="new    "><tspan x="0" y="0" font-family="'RobotoMono-Regular'" font-size="33">base</tspan><tspan x="77.893" y="0" font-family="'RobotoMono-Regular'" font-size="28">.</tspan><tspan x="0" y="33.6" font-family="'RobotoMono-Regular'" font-size="28">blockfest.</tspan><tspan x="0" y="67.2" font-family="'RobotoMono-Regular'" font-size="28">10</tspan></text>
<use xlink:href="#New_Symbol_22"  width="53.968" height="60.96" x="-26.984" y="-30.48" transform="matrix(1.0765 0 0 -1.0765 445.1299 229.0977)" overflow="visible"/>
<text transform="matrix(1 0 0 1 336.9922 254.3203)" enable-background="new    "><tspan x="0" y="0" font-family="'RobotoMono-Regular'" font-size="33">base</tspan><tspan x="77.893" y="0" font-family="'RobotoMono-Regular'" font-size="28">.</tspan><tspan x="0" y="33.6" font-family="'RobotoMono-Regular'" font-size="28">blockfest.</tspan><tspan x="0" y="67.2" font-family="'RobotoMono-Regular'" font-size="28">11</tspan></text>
<use xlink:href="#New_Symbol_22"  width="53.968" height="60.96" x="-26.984" y="-30.48" transform="matrix(1.0765 0 0 -1.0765 445.1299 373.4824)" overflow="visible"/>
<text transform="matrix(1 0 0 1 337.9922 398.7051)" enable-background="new    "><tspan x="0" y="0" font-family="'RobotoMono-Regular'" font-size="33">base</tspan><tspan x="77.893" y="0" font-family="'RobotoMono-Regular'" font-size="28">.</tspan><tspan x="0" y="33.6" font-family="'RobotoMono-Regular'" font-size="28">cellabz</tspan></text>
</svg>
