<?xml version="1.0" encoding="utf-8"?>
<!-- Generator: Adobe Illustrator 16.0.0, SVG Export Plug-In . SVG Version: 6.00 Build 0)  -->
<!DOCTYPE svg PUBLIC "-//W3C//DTD SVG 1.1//EN" "http://www.w3.org/Graphics/SVG/1.1/DTD/svg11.dtd">
<svg version="1.1" id="Layer_1" xmlns="http://www.w3.org/2000/svg" xmlns:xlink="http://www.w3.org/1999/xlink" x="0px" y="0px"
	 width="639.825px" height="332.453px" viewBox="0 0 639.825 332.453" enable-background="new 0 0 639.825 332.453"
	 xml:space="preserve">
<g>
	<g>
		<path fill="#FFFFFF" d="M276.745,125.186v-39.43c0-0.95,0.475-1.673,1.426-2.169c0.952-0.496,2.086-0.744,3.411-0.744
			c1.322,0,2.46,0.248,3.413,0.744c0.948,0.496,1.426,1.22,1.426,2.169v33.977h14.133c0.868,0,1.55,0.411,2.043,1.238
			c0.499,0.827,0.748,1.82,0.748,2.978c0,1.155-0.249,2.149-0.748,2.974c-0.494,0.828-1.176,1.241-2.043,1.241h-19.589
			c-1.161,0-2.151-0.258-2.977-0.774C277.159,126.872,276.745,126.137,276.745,125.186z"/>
		<path fill="#FFFFFF" d="M307.682,125.186V85.818c0-0.949,0.412-1.684,1.24-2.202c0.827-0.516,1.82-0.774,2.976-0.774h22.072
			c0.95,0,1.672,0.414,2.17,1.24c0.496,0.827,0.745,1.797,0.745,2.914c0,1.198-0.26,2.212-0.775,3.037
			c-0.518,0.828-1.231,1.24-2.14,1.24h-16.616v10.478h9.301c0.908,0,1.622,0.372,2.14,1.117c0.513,0.744,0.773,1.632,0.773,2.665
			c0,0.952-0.249,1.798-0.743,2.542c-0.498,0.744-1.223,1.116-2.17,1.116h-9.301v10.541h16.616c0.908,0,1.622,0.411,2.14,1.238
			c0.515,0.827,0.775,1.839,0.775,3.039c0,1.116-0.249,2.088-0.745,2.914c-0.498,0.828-1.22,1.241-2.17,1.241h-22.072
			c-1.156,0-2.148-0.258-2.976-0.774C308.093,126.872,307.682,126.137,307.682,125.186z"/>
		<path fill="#FFFFFF" d="M340.26,120.723c0-1.156,0.424-2.315,1.272-3.471c0.848-1.157,1.83-1.736,2.945-1.736
			c0.619,0,1.313,0.25,2.076,0.751c0.763,0.501,1.466,1.057,2.109,1.665c0.639,0.612,1.54,1.167,2.698,1.667
			c1.157,0.501,2.375,0.751,3.656,0.751c1.61,0,3.017-0.341,4.217-1.021c1.199-0.684,1.796-1.707,1.796-3.07
			c0-1.365-0.672-2.562-2.013-3.595c-1.342-1.035-2.978-1.975-4.897-2.823c-1.923-0.846-3.854-1.797-5.799-2.851
			c-1.94-1.054-3.585-2.551-4.928-4.495c-1.342-1.942-2.014-4.256-2.014-6.944c0-4.381,1.551-7.657,4.651-9.827
			c3.098-2.169,6.84-3.254,11.221-3.254c1.075,0,2.201,0.064,3.376,0.192c1.178,0.128,2.504,0.373,3.97,0.735
			c1.466,0.364,2.664,0.948,3.596,1.757c0.928,0.81,1.395,1.789,1.395,2.938c0,1.092-0.341,2.226-1.022,3.401
			c-0.682,1.177-1.624,1.765-2.821,1.765c-0.498,0-1.551-0.392-3.161-1.178c-1.611-0.785-3.391-1.178-5.332-1.178
			c-2.069,0-3.62,0.362-4.653,1.084c-1.032,0.723-1.544,1.602-1.544,2.635c0,0.951,0.482,1.819,1.455,2.605
			c0.968,0.785,2.18,1.456,3.625,2.014c1.446,0.558,3.027,1.281,4.744,2.169c1.714,0.89,3.296,1.86,4.741,2.915
			c1.446,1.053,2.655,2.532,3.627,4.432c0.971,1.902,1.457,4.071,1.457,6.51c0,4.262-1.422,7.579-4.276,9.955
			c-2.852,2.374-6.593,3.56-11.224,3.56c-4.009,0-7.501-0.827-10.478-2.48C341.75,124.65,340.26,122.79,340.26,120.723z"/>
		<g>
			<path fill="#FFFFFF" d="M185.659,256.252c-8.875-24.122-15.309-49.539-21.531-74.12c-4.974-19.648-10.117-39.967-16.492-59.573
				c-0.92-2.689-2.554-4.949-5.142-7.112c-2.328-1.947-4.941-3.551-7.988-4.905c-3.281-1.458-5.92-2.091-8.16-1.94
				c-2.043,0.134-4.612,1.105-5.245,4.967l-0.017,0.1l-5.383,155.601c-0.099,1.266-0.128,2.007-0.096,2.48
				c0.269,3.973,2.089,6.753,5.41,8.263c1.694,0.771,3.493,1.161,5.345,1.161c1.319,0,2.711-0.198,4.139-0.591
				c2.719-0.747,6.411-2.281,7.079-6.968c1.045-7.502,1.362-12.7,1.693-23.746c8.519-1.029,13.254-1.57,21.655-2.474
				c2.607,9.402,3.908,13.661,6.019,19.105c0.556,1.422,1.849,3.116,4.847,3.116c0.866,0,1.857-0.135,3.031-0.411
				c3-0.709,5.574-1.942,7.872-3.771c2.699-2.149,3.833-4.561,3.464-7.37C186.111,257.691,185.971,257.179,185.659,256.252z
				 M152.771,216.078c-2.66-0.006-4.82-0.01-7.058-0.01c-1.895,0-3.845,0.003-6.202,0.007c-0.046-6.731-0.119-13.463-0.191-20.194
				c-0.128-11.959-0.261-24.22-0.238-36.442c1.642,6.784,3.273,13.57,4.905,20.356C146.846,191.691,149.799,203.973,152.771,216.078
				z"/>
			<path fill="#FFFFFF" d="M239.104,200.773c-1.893-16.764-3.851-34.098-6.32-51.105c-0.334-2.146-2.208-3.296-3.803-4.059
				c-1.714-0.82-3.768-1.558-6.462-2.321c-2.825-0.8-4.794-1.174-6.387-1.212l-0.204-0.002c-0.496,0-2.005,0-2.928,1.079
				c-0.561,0.655-0.763,1.514-0.602,2.542c2.267,15.022,4.173,30.368,6.016,45.208c0.039,0.314,0.078,0.629,0.117,0.943
				c-8.475-20.854-20.526-48.486-20.671-48.819l-0.062-0.127c-2.334-4.264-4.519-7.011-6.875-8.647
				c-1.727-1.198-4.265-2.378-7.986-3.715c-2.84-1.02-4.936-1.452-6.666-1.371c-1.282,0.06-2.256,0.479-2.895,1.246
				c-0.651,0.782-0.89,1.853-0.709,3.182c2.815,20.779,5.595,41.562,8.374,62.347c2.827,21.144,5.655,42.287,8.521,63.427
				c0.225,1.656,1.137,3.766,4.206,4.408c0.753,0.157,1.575,0.237,2.442,0.237c1.244,0,2.619-0.159,4.204-0.487
				c2.547-0.526,4.566-1.262,6.172-2.249c2.115-1.3,2.988-2.984,2.668-5.146c-2.397-16.472-4.609-33.258-6.748-49.491
				c-0.105-0.795-0.209-1.59-0.314-2.386c9.217,21.141,23.55,50.086,23.722,50.432l0.098,0.196l0.147,0.163
				c1.874,2.067,4.377,2.306,6.097,2.306c1.191,0,2.584-0.133,4.518-0.432c2.447-0.378,4.269-0.853,5.733-1.494
				c2.161-0.947,3.108-2.382,2.818-4.247C242.905,234.431,240.973,217.32,239.104,200.773z"/>
			<path fill="#FFFFFF" d="M264.308,202.356c-1.4-15.371-2.848-31.267-4.78-46.877c-0.272-1.991-2.08-2.922-3.812-3.57
				c-1.609-0.602-3.563-1.149-6.335-1.775c-2.03-0.458-4.362-0.935-6.264-0.997c-0.114-0.004-0.225-0.006-0.332-0.006
				c-0.87,0-2.118,0.107-2.912,1.031c-0.35,0.407-0.731,1.125-0.566,2.215c2.293,16.39,4.064,33.137,5.778,49.333
				c1.701,16.074,3.459,32.695,5.73,49.007c0.274,1.817,1.606,2.881,3.958,3.162c0.591,0.07,1.216,0.104,1.911,0.104
				c1.07,0,2.298-0.083,3.864-0.261c2.432-0.276,4.13-0.602,5.505-1.052c2.228-0.728,3.235-1.992,2.998-3.74
				C267.139,233.452,265.7,217.644,264.308,202.356z"/>
			<path fill="#FFFFFF" d="M330.806,160.957c-1.791-0.459-3.967-0.544-6.27-0.634l-0.404-0.016c-3.125-0.123-5.61-0.206-7.184-0.088
				c-2.005,0.146-4.369,0.671-6.702,3.453l-0.135,0.161l-8.709,18.851l-10.648-20.752l-0.164-0.255
				c-2.528-3.218-4.853-4.235-6.792-4.805c-1.847-0.544-4.473-0.993-7.715-1.524c-2.832-0.464-4.806-0.681-6.428-0.474
				c-2.562,0.331-3.697,2.008-3.375,4.974c1.373,13.451,2.51,27.16,3.61,40.417c1.318,15.883,2.681,32.308,4.462,48.446
				c0.207,1.685,1.488,2.668,3.807,2.923c0.644,0.071,1.345,0.105,2.144,0.105c0.912,0,1.953-0.044,3.376-0.144
				c1.828-0.128,3.741-0.297,5.349-0.67c2.283-0.527,3.363-1.649,3.211-3.319c-1.149-13.961-2.066-28.184-2.954-41.938
				c-0.065-1.003-0.129-2.007-0.194-3.01c0.516,1.397,1.031,2.795,1.546,4.191c2.006,5.443,4.013,10.886,6.044,16.302
				c1.356,3.738,3.531,5.658,6.463,5.708l0.116,0.001c2.055,0,4.812-0.962,6.284-5.552c0.872-2.773,1.735-5.549,2.6-8.324
				c1.057-3.396,2.133-6.854,3.228-10.319c0.031,1.234,0.062,2.47,0.094,3.704c0.323,12.745,0.658,25.925,0.833,38.873
				c0.016,2.416,2.61,2.798,3.462,2.924c1.545,0.228,3.361,0.273,5.242,0.304c0.654,0.01,1.279,0.018,1.874,0.018
				c1.436,0,2.487-0.046,3.407-0.149c0.866-0.097,3.502-0.393,3.606-2.824c0.394-14.869,0.334-29.981,0.276-44.597
				c-0.048-12.224-0.098-24.863,0.118-37.27C334.348,163.071,333.242,161.581,330.806,160.957z"/>
			<path fill="#FFFFFF" d="M382.286,160.991l-0.098-0.216c-0.964-2.127-3.682-2.152-4.987-2.165l-0.259-0.001
				c-1.983,0-4.218,0.209-6.831,0.455c-2.599,0.244-5.053,0.474-7.193,0.835c-2.357,0.398-4.136,0.95-5.16,2.353l-0.18,0.246
				l-21.159,83.006c-0.17,0.464-0.272,0.805-0.287,1.14c-0.134,2.853,3.017,3.614,4.053,3.864c2.083,0.503,4.215,0.664,6.398,0.797
				c1.021,0.062,1.86,0.11,2.595,0.11c1.354,0,2.724-0.144,3.582-1.188c1.667-2.055,2.498-4.491,3.882-9.615
				c6.769,0.295,10.653,0.49,17.469,0.877c0.669,5.376,1.074,7.991,1.896,10.514c0.682,2.028,3.177,2.354,5.819,2.698
				c1.189,0.155,2.763,0.334,4.392,0.334c0.909,0,1.752-0.054,2.577-0.163c2.971-0.396,4.632-1.664,4.939-3.771
				c0.047-0.324,0.031-0.699-0.06-1.372L382.286,160.991z M371.827,220.243c-3.997-0.067-6.646-0.115-10.601-0.192
				c2.236-11.204,4.534-22.709,7.082-34.098c1.207,10.017,2.168,20.111,3.104,29.947L371.827,220.243z"/>
			<path fill="#FFFFFF" d="M453.334,206.183c2.088-20.354,4.248-41.402,6.905-62.014c0.167-1.253-0.068-2.258-0.701-2.988
				c-0.63-0.726-1.583-1.1-2.915-1.112c-1.59,0-3.488,0.422-6.154,1.368c-2.624,0.931-4.636,1.857-6.334,2.915
				c-1.476,0.918-3.215,2.275-3.572,4.643c-2.733,19.273-4.681,38.979-6.564,58.036c-0.768,7.769-1.562,15.802-2.396,23.684
				c-1.38,12.811-5.157,14.538-8.668,14.538c-0.352,0-0.714-0.02-1.086-0.057c-2.243-0.225-3.76-0.907-4.774-2.149
				c-1.729-2.117-2.256-6.239-1.61-12.606c0.719-7.27,1.38-14.677,2.021-21.841c1.582-17.71,3.218-36.022,5.849-53.818
				c0.201-1.219-0.198-1.995-0.567-2.431c-0.819-0.967-2.104-1.082-3.03-1.084c-1.48,0-3.288,0.271-6.044,0.905
				c-2.744,0.631-4.677,1.197-6.265,1.835c-1.568,0.629-3.412,1.613-3.753,3.657l-6.788,71.991
				c-1.235,13.53,0.113,20.693,4.653,24.726c4.281,3.802,10.393,5.242,17.938,6.729c3.74,0.738,7.684,1.421,11.191,1.421
				c3.777,0,6.729-0.785,9.026-2.398c8.199-5.763,10.188-18.336,11.002-28.604C451.6,223.085,452.467,214.634,453.334,206.183z"/>
			<path fill="#FFFFFF" d="M522.13,109.655c-2.523-0.881-5.288-0.421-8.428,1.442c-2.75,1.63-4.595,3.835-5.825,6.988
				l-16.505,46.686l-8.762-32.913l-0.105-0.182c-0.674-1.165-1.762-1.78-3.147-1.78c-0.976,0-2.113,0.308-3.58,0.968
				c-2.81,1.266-5.376,2.966-7.848,5.197c-2.877,2.597-4.375,5.114-4.715,7.921c-0.178,1.466,0.03,2.986,0.618,4.521l11.672,51.089
				l-23.808,54.752c-0.878,1.534-1.382,2.909-1.539,4.203c-0.365,3.008,0.738,5.601,3.371,7.925
				c2.262,1.997,4.782,3.325,7.704,4.059c0.93,0.234,1.727,0.348,2.436,0.348c1.325,0,2.391-0.406,3.169-1.208l0.185-0.19
				l18.272-39.046l10.901,46.619l0.066,0.215c0.778,1.995,2.467,3.341,5.162,4.113c1.209,0.347,2.398,0.522,3.532,0.522
				c2.021,0,3.981-0.556,5.825-1.652c3.206-1.907,4.945-5.113,5.17-9.531c0.092-1.811-0.168-3.936-0.756-6.242l-13.763-67.321
				l23.392-71.931c0.89-2.699,1.394-5.105,1.498-7.152C526.608,112.426,524.201,110.379,522.13,109.655z"/>
		</g>
		<path fill="#FFFFFF" d="M193.918,329.07v-39.491c0-0.785,0.393-1.466,1.177-2.048c0.786-0.576,1.8-0.866,3.04-0.866h10.974
			c4.627,0,8.327,1.178,11.095,3.534c2.769,2.355,4.155,6.056,4.155,11.099v16.058c0,5.043-1.387,8.74-4.155,11.097
			c-2.768,2.355-6.467,3.533-11.095,3.533h-10.974c-1.24,0-2.254-0.288-3.04-0.866C194.311,330.54,193.918,329.858,193.918,329.07z
			 M203.591,323.553h5.518c3.719,0,5.579-2.065,5.579-6.197v-16.058c0-4.133-1.859-6.2-5.579-6.2h-5.518V323.553z"/>
		<path fill="#FFFFFF" d="M229.759,317.727v-28.147c0-0.95,0.465-1.673,1.393-2.168c0.932-0.498,2.079-0.746,3.442-0.746
			c1.321,0,2.458,0.248,3.409,0.746c0.953,0.495,1.427,1.218,1.427,2.168v28.147c0,4.134,1.984,6.2,5.954,6.2
			c3.964,0,5.951-2.066,5.951-6.2v-28.147c0-0.95,0.464-1.673,1.396-2.168c0.929-0.498,2.075-0.746,3.44-0.746
			c1.324,0,2.459,0.248,3.407,0.746c0.953,0.495,1.426,1.218,1.426,2.168v28.147c0,5.043-1.426,8.741-4.275,11.098
			c-2.852,2.356-6.635,3.533-11.345,3.533c-4.756,0-8.546-1.177-11.379-3.533C231.172,326.468,229.759,322.77,229.759,317.727z"/>
		<path fill="#FFFFFF" d="M279.915,329.012v-39.37c0-0.951,0.413-1.684,1.24-2.201c0.825-0.517,1.816-0.775,2.974-0.775h21.513
			c0.951,0,1.676,0.415,2.17,1.241c0.496,0.828,0.746,1.798,0.746,2.912c0,1.198-0.257,2.213-0.776,3.039
			c-0.519,0.828-1.231,1.24-2.14,1.24h-16.057v10.477h9.365c0.907,0,1.621,0.372,2.134,1.117c0.518,0.743,0.778,1.634,0.778,2.666
			c0,0.95-0.25,1.8-0.744,2.542c-0.498,0.742-1.221,1.115-2.168,1.115h-9.365v15.997c0,0.95-0.475,1.682-1.426,2.199
			c-0.95,0.518-2.086,0.774-3.409,0.774c-1.325,0-2.461-0.257-3.41-0.774C280.387,330.693,279.915,329.962,279.915,329.012z"/>
		<path fill="#FFFFFF" d="M312.545,317.727v-28.147c0-0.95,0.462-1.673,1.392-2.168c0.932-0.498,2.079-0.746,3.441-0.746
			c1.322,0,2.458,0.248,3.41,0.746c0.951,0.495,1.426,1.218,1.426,2.168v28.147c0,4.134,1.984,6.2,5.955,6.2
			c3.966,0,5.95-2.066,5.95-6.2v-28.147c0-0.95,0.463-1.673,1.396-2.168c0.93-0.498,2.077-0.746,3.44-0.746
			c1.324,0,2.459,0.248,3.407,0.746c0.953,0.495,1.426,1.218,1.426,2.168v28.147c0,5.043-1.426,8.741-4.275,11.098
			c-2.852,2.356-6.635,3.533-11.344,3.533c-4.757,0-8.547-1.177-11.38-3.533C313.958,326.468,312.545,322.77,312.545,317.727z"/>
		<path fill="#FFFFFF" d="M348.01,290.819c0-1.118,0.249-2.096,0.748-2.918c0.494-0.825,1.216-1.236,2.168-1.236h26.782
			c0.951,0,1.674,0.411,2.17,1.236c0.497,0.822,0.747,1.8,0.747,2.918c0,1.208-0.26,2.218-0.778,3.044
			c-0.518,0.823-1.23,1.234-2.138,1.234h-8.554v33.892c0,0.959-0.478,1.696-1.426,2.218c-0.952,0.521-2.09,0.778-3.411,0.778
			c-1.322,0-2.458-0.258-3.413-0.778c-0.951-0.521-1.426-1.259-1.426-2.218v-33.892h-8.553c-0.911,0-1.624-0.411-2.139-1.234
			C348.27,293.037,348.01,292.027,348.01,290.819z"/>
		<path fill="#FFFFFF" d="M384.875,317.727v-28.147c0-0.95,0.463-1.673,1.396-2.168c0.93-0.498,2.076-0.746,3.441-0.746
			c1.322,0,2.458,0.248,3.406,0.746c0.952,0.495,1.426,1.218,1.426,2.168v28.147c0,4.134,1.985,6.2,5.956,6.2
			c3.964,0,5.95-2.066,5.95-6.2v-28.147c0-0.95,0.463-1.673,1.396-2.168c0.928-0.498,2.075-0.746,3.44-0.746
			c1.324,0,2.459,0.248,3.412,0.746c0.947,0.495,1.426,1.218,1.426,2.168v28.147c0,5.043-1.426,8.741-4.279,11.098
			c-2.852,2.356-6.633,3.533-11.344,3.533c-4.752,0-8.548-1.177-11.38-3.533C386.29,326.468,384.875,322.77,384.875,317.727z"/>
		<path fill="#FFFFFF" d="M422.096,329.012v-39.433c0-0.785,0.278-1.466,0.838-2.048c0.559-0.576,1.271-0.866,2.14-0.866h12.833
			c10.166,0,15.252,4.424,15.252,13.267c0,6.448-2.503,10.646-7.503,12.588l7.565,13.7c0.203,0.291,0.307,0.663,0.307,1.116
			c0,1.2-0.647,2.335-1.951,3.411c-1.299,1.072-2.676,1.61-4.122,1.61c-1.447,0-2.479-0.6-3.102-1.798l-8.494-16.492h-4.089v14.944
			c0,0.95-0.477,1.682-1.426,2.199c-0.952,0.518-2.09,0.774-3.411,0.774c-1.325,0-2.458-0.257-3.41-0.774
			C422.571,330.693,422.096,329.962,422.096,329.012z M431.77,306.629h6.137c1.819,0,3.202-0.444,4.153-1.332
			c0.952-0.89,1.426-2.368,1.426-4.435c0-2.065-0.474-3.542-1.426-4.434c-0.951-0.888-2.334-1.331-4.153-1.331h-6.137V306.629z"/>
	</g>
	<g>
		<path fill="#FFFFFF" d="M628.189,332.453H505.492c-6.426,0-11.635-5.21-11.635-11.636s5.209-11.636,11.635-11.636h110.841
			c-1.268-33.268-7.982-65.7-20.008-96.577c-6.422-16.488-14.467-32.64-23.91-48.004c-4.429-7.204-9.473-14.627-14.992-22.062
			c-2.676-3.605-5.573-7.304-8.61-10.992c-1.154-1.401-1.963-3.053-2.365-4.823c-0.542-2.389-0.247-4.375-0.072-5.362l4.056-41.491
			l-41.666,6.622c-5.286,0.874-8.934-2.119-10.255-3.254l-0.845-0.635c-0.55-0.415-1.101-0.83-1.654-1.24
			c-2.228-1.646-4.092-2.995-5.855-4.235c-15.27-10.746-31.451-20.007-48.094-27.529c-33.791-15.271-69.785-23.996-106.983-25.931
			c-36.973-1.926-73.96,3.162-109.935,15.12c-16.893,5.615-33.872,13.198-50.466,22.537c-7.77,4.372-15.56,9.253-23.155,14.509
			c-4.107,2.842-8.167,5.863-11.244,8.177c-2.112,1.588-5.651,3.27-10.526,2.273l-40.36-6.415l4.2,42.978
			c0.262,2.667-0.226,6.615-3.965,10.395c-1.259,1.56-2.601,3.262-4.086,5.182c-0.007,0.009-0.013,0.017-0.02,0.025
			c-22.299,28.777-38.92,60.926-49.416,95.572c-7.398,24.364-11.627,49.594-12.612,75.159h116.771
			c6.426,0,11.635,5.21,11.635,11.636s-5.209,11.636-11.635,11.636H11.635C5.209,332.453,0,327.243,0,320.817
			c0-31.834,4.655-63.309,13.838-93.549c11.259-37.165,29.049-71.663,52.881-102.543c0.039-0.052,0.079-0.105,0.119-0.157
			c0.033-0.042,0.066-0.085,0.1-0.127l0.209-0.27c0.996-1.287,1.938-2.491,2.841-3.63l-5.22-53.393
			c-0.351-3.587,0.98-7.134,3.604-9.604c2.624-2.471,6.242-3.586,9.804-3.019l51.693,8.216c2.562-1.896,5.455-3.998,8.411-6.043
			c8.184-5.664,16.59-10.93,24.984-15.653c17.886-10.067,36.236-18.256,54.537-24.34C256.542,3.828,296.413-1.647,336.289,0.429
			c40.103,2.086,78.915,11.495,115.357,27.964c17.975,8.124,35.438,18.117,51.901,29.703c1.914,1.347,3.919,2.796,6.308,4.562
			c0.036,0.027,0.073,0.054,0.109,0.081l51.687-8.215c3.559-0.563,7.182,0.551,9.806,3.022c2.624,2.472,3.954,6.021,3.601,9.608
			l-5.219,53.375c2.18,2.731,4.279,5.456,6.27,8.137c5.921,7.977,11.349,15.966,16.131,23.746
			c10.172,16.551,18.842,33.96,25.77,51.744c14.476,37.169,21.816,76.419,21.816,116.659
			C639.825,327.243,634.616,332.453,628.189,332.453z"/>
	</g>
</g>
</svg>
