<svg id="CV-web" xmlns="http://www.w3.org/2000/svg" viewBox="0 0 241.14 45.69">
  <defs>
    <style>
      .cls-1, .cls-2, .cls-3 {
        fill: none;
        stroke: #fff;
        stroke-linejoin: round;
      }

      .cls-1 {
        stroke-width: 1.97px;
      }

      .cls-2 {
        stroke-linecap: round;
      }

      .cls-2, .cls-3 {
        stroke-width: 1.97px;
      }
    </style>
  </defs>
  <title>picto</title>
  <g id="Layer_7" data-name="Layer 7">
    <g>
      <g>
        <rect class="cls-1" x="68.38" y="6.11" width="49.88" height="33.38" rx="5.67" ry="5.67"/>
        <path class="cls-2" d="M70.14,7.68L91.84,27a2.23,2.23,0,0,0,3,0l21.7-19.31"/>
        <line class="cls-3" x1="100.32" y1="22.08" x2="116.58" y2="37.85"/>
        <line class="cls-3" x1="70.09" y1="37.87" x2="86.59" y2="22.31"/>
      </g>
      <g>
        <path class="cls-2" d="M206.3,18h22.88"/>
        <path class="cls-2" d="M206.3,28.33h18"/>
        <path class="cls-2" d="M209.37,44.7l10.46-6.09a5.57,5.57,0,0,1,2.8-.76h11.86a5.67,5.67,0,0,0,5.67-5.67V12.56a5.67,5.67,0,0,0-5.67-5.67H204.77a5.67,5.67,0,0,0-5.67,5.67V32.19a5.67,5.67,0,0,0,5.67,5.67h4.48Z"/>
      </g>
      <path class="cls-3" d="M17.39,10.36L10.62,4.45a3.46,3.46,0,0,0-4.89.33L2.41,8.59a5.75,5.75,0,0,0-.85,6.3c1.7,3.48,5.53,9.24,14.09,16.71S30.42,42.07,34.1,43.28a5.75,5.75,0,0,0,6.12-1.7l3.32-3.81a3.46,3.46,0,0,0-.33-4.89L36.45,27a3.46,3.46,0,0,0-4.89.33l-3,3.39s-2.58-.63-7.62-5-6.21-7-6.21-7l3-3.39A3.46,3.46,0,0,0,17.39,10.36Z"/>
      <g>
        <path class="cls-2" d="M176.1,16.9c0,10.5-10.52,22.83-14.45,27.08a2,2,0,0,1-2.93,0c-3.94-4.25-14.45-16.58-14.45-27.08A15.92,15.92,0,0,1,176.1,16.9Z"/>
        <circle class="cls-2" cx="160.18" cy="16.9" r="7.92"/>
      </g>
    </g>
  </g>
</svg>
