<?xml version="1.0" encoding="utf-8"?>
<!-- Generator: Adobe Illustrator 19.2.0, SVG Export Plug-In . SVG Version: 6.00 Build 0)  -->
<svg version="1.1" id="CV-web" xmlns="http://www.w3.org/2000/svg" xmlns:xlink="http://www.w3.org/1999/xlink" x="0px" y="0px"
	 viewBox="0 0 241.1 45.7" style="enable-background:new 0 0 241.1 45.7;" xml:space="preserve">
<style type="text/css">
	.st0{fill:none;stroke:#000000;stroke-width:1.97;stroke-linejoin:round;}
	.st1{fill:none;stroke:#000000;stroke-width:1.97;stroke-linecap:round;stroke-linejoin:round;}
</style>
<title>picto</title>
<g id="Layer_7">
	<g>
		<g>
			<path class="st0" d="M74,6.1h38.5c3.1,0,5.7,2.5,5.7,5.7v22c0,3.1-2.5,5.7-5.7,5.7H74c-3.1,0-5.7-2.5-5.7-5.7v-22
				C68.4,8.6,70.9,6.1,74,6.1z"/>
			<path class="st1" d="M70.1,7.7L91.8,27c0.9,0.8,2.1,0.8,3,0l21.7-19.3"/>
			<line class="st0" x1="100.3" y1="22.1" x2="116.6" y2="37.8"/>
			<line class="st0" x1="70.1" y1="37.9" x2="86.6" y2="22.3"/>
		</g>
		<g>
			<path class="st1" d="M206.3,18h22.9"/>
			<path class="st1" d="M206.3,28.3h18"/>
			<path class="st1" d="M209.4,44.7l10.5-6.1c0.8-0.5,1.8-0.8,2.8-0.8h11.9c3.1,0,5.7-2.5,5.7-5.7l0,0V12.6c0-3.1-2.5-5.7-5.7-5.7
				h-29.7c-3.1,0-5.7,2.5-5.7,5.7v19.6c0,3.1,2.5,5.7,5.7,5.7l0,0h4.5L209.4,44.7z"/>
		</g>
		<path class="st0" d="M17.4,10.4l-6.8-5.9C9.2,3.2,7,3.3,5.7,4.8c0,0,0,0,0,0L2.4,8.6c-1.5,1.7-1.9,4.2-0.9,6.3
			c1.7,3.5,5.5,9.2,14.1,16.7s14.8,10.5,18.4,11.7c2.2,0.7,4.6,0,6.1-1.7l3.3-3.8c1.3-1.4,1.1-3.6-0.3-4.9c0,0,0,0,0,0L36.5,27
			c-1.4-1.3-3.6-1.1-4.9,0.3c0,0,0,0,0,0l-3,3.4c0,0-2.6-0.6-7.6-5s-6.2-7-6.2-7l3-3.4C19,13.9,18.9,11.7,17.4,10.4
			C17.5,10.4,17.4,10.4,17.4,10.4z"/>
		<g>
			<path class="st1" d="M176.1,16.9c0,10.5-10.5,22.8-14.4,27.1c-0.8,0.8-2,0.9-2.8,0.1c0,0-0.1-0.1-0.1-0.1
				c-3.9-4.2-14.4-16.6-14.4-27.1c0.2-8.8,7.5-15.7,16.3-15.5C169.1,1.6,175.9,8.4,176.1,16.9z"/>
			<circle class="st1" cx="160.2" cy="16.9" r="7.9"/>
		</g>
	</g>
</g>
</svg>
