<svg id="CV-web" xmlns="http://www.w3.org/2000/svg" viewBox="0 0 242.11 42.62">
  <defs>
    <style>
      .cls-1, .cls-2, .cls-3, .cls-5 {
        fill: none;
        stroke: #fff;
        stroke-width: 1.97px;
      }

      .cls-1, .cls-5 {
        stroke-linejoin: round;
      }

      .cls-2, .cls-3 {
        stroke-miterlimit: 10;
      }

      .cls-3, .cls-5 {
        stroke-linecap: round;
      }

      .cls-4 {
        fill: #fff;
      }
    </style>
  </defs>
  <title>picto</title>
  <g id="Layer_7" data-name="Layer 7">
    <g>
      <g>
        <rect class="cls-1" x="188.87" y="1.33" width="52.25" height="39.95" rx="5.67" ry="5.67"/>
        <line class="cls-2" x1="188.87" y1="10.82" x2="241.13" y2="10.82"/>
        <line class="cls-3" x1="195.4" y1="19.6" x2="229.84" y2="19.6"/>
        <line class="cls-3" x1="195.4" y1="28.64" x2="221.98" y2="28.64"/>
        <circle class="cls-4" cx="194.23" cy="6.19" r="2.07"/>
        <circle class="cls-4" cx="199.82" cy="6.19" r="2.07"/>
        <circle class="cls-4" cx="205.4" cy="6.19" r="2.07"/>
      </g>
      <g>
        <rect class="cls-1" x="124.18" y="3.64" width="37.69" height="35.34" rx="5.67" ry="5.67"/>
        <polyline class="cls-1" points="124.18 32.21 134.88 23.72 141.43 29.54 152.96 17.79 161.88 23.33"/>
        <circle class="cls-4" cx="132.73" cy="12.18" r="3.92"/>
      </g>
      <g>
        <path class="cls-1" d="M85.12,37.87l-4.28,3.51A1.11,1.11,0,0,1,79,40.52L79,35a4.46,4.46,0,0,1,.43-1.9L94.11,2.26a2.23,2.23,0,0,1,3-1.06l2.83,1.34a2.23,2.23,0,0,1,1.06,3L86.32,36.33A4.46,4.46,0,0,1,85.12,37.87Z"/>
        <path class="cls-1" d="M79.43,33.15l6.86,3.26"/>
        <path class="cls-1" d="M93,4.62l6.86,3.26"/>
        <line class="cls-5" x1="71.65" y1="41.62" x2="58.01" y2="41.62"/>
      </g>
      <g>
        <path class="cls-1" d="M36.42,21.11A11.92,11.92,0,0,0,30.81,11a29.95,29.95,0,0,0-12.63,0,11.92,11.92,0,0,0,1,20.79,27.88,27.88,0,0,0,10.66,0A11.92,11.92,0,0,0,36.42,21.11Z"/>
        <circle class="cls-4" cx="24.5" cy="21.11" r="4.59"/>
        <path class="cls-1" d="M47.39,19.57a2.22,2.22,0,0,1,0,3.09C44,26.13,35.05,32.3,24.5,32.3S5,26.13,1.61,22.66a2.22,2.22,0,0,1,0-3.09C5,16.1,13.94,10.32,24.5,10.32S44,16.1,47.39,19.57Z"/>
      </g>
    </g>
  </g>
</svg>
