<svg id="pictos" xmlns="http://www.w3.org/2000/svg" viewBox="0 0 90.16 43.17">
  <defs>
    <style>
      .cls-1 {
        fill: none;
        stroke: #fff;
        stroke-linejoin: round;
        stroke-width: 1.97px;
      }

      .cls-2 {
        fill: #fff;
      }
    </style>
  </defs>
  <title>pictos</title>
  <g>
    <path class="cls-1" d="M67.44,21.21a22.34,22.34,0,0,0-10.52-19,56.16,56.16,0,0,0-23.68,0,22.36,22.36,0,0,0,1.85,39,53.65,53.65,0,0,0,10,1,53.65,53.65,0,0,0,10-1A22.36,22.36,0,0,0,67.44,21.21Z"/>
    <circle class="cls-2" cx="45.08" cy="21.21" r="8.61"/>
    <path class="cls-1" d="M88,18.32a4.17,4.17,0,0,1,0,5.79c-6.29,6.51-23.14,18.08-42.93,18.08S8.44,30.62,2.15,24.11a4.17,4.17,0,0,1,0-5.79C8.44,11.81,25.29,1,45.08,1S81.71,11.81,88,18.32Z"/>
  </g>
</svg>
