<?xml version="1.0" encoding="utf-8"?>
<!-- Generator: Adobe Illustrator 19.2.0, SVG Export Plug-In . SVG Version: 6.00 Build 0)  -->
<svg version="1.1" id="pictos" xmlns="http://www.w3.org/2000/svg" xmlns:xlink="http://www.w3.org/1999/xlink" x="0px" y="0px"
	 viewBox="0 0 65.7 44.6" style="enable-background:new 0 0 65.7 44.6;" xml:space="preserve">
<style type="text/css">
	.st0{display:none;fill:#009F1B;stroke:#FFFFFF;stroke-width:1.966;stroke-linejoin:round;stroke-miterlimit:10;}
	.st1{display:none;fill:#C2C2C2;}
	.st2{fill:none;stroke:#FFFFFF;stroke-width:1.966;stroke-linejoin:round;stroke-miterlimit:10;}
	.st3{fill:none;stroke:#FFFFFF;stroke-width:1.966;stroke-miterlimit:10;}
	.st4{fill:none;stroke:#FFFFFF;stroke-width:1.966;stroke-linecap:round;stroke-miterlimit:10;}
	.st5{fill:#FFFFFF;}
	.st6{fill:none;stroke:#FFFFFF;stroke-width:1.966;stroke-linecap:round;stroke-linejoin:round;stroke-miterlimit:10;}
	.st7{fill:none;stroke:#000000;stroke-width:1.966;stroke-linejoin:round;stroke-miterlimit:10;}
	.st8{fill:none;stroke:#000000;stroke-width:1.966;stroke-linecap:round;stroke-linejoin:round;stroke-miterlimit:10;}
</style>
<rect x="-366.4" y="-516.9" class="st1" width="1278.5" height="797.1"/>
<g>
	<path class="st2" d="M47.8,22c0-5.4-2.8-10.1-7.1-12.7c-2.5-0.5-5.2-0.8-7.9-0.8c-2.7,0-5.4,0.3-7.9,0.8c-4.2,2.7-7.1,7.4-7.1,12.7
		c0,5.9,3.4,11,8.3,13.4c2.2,0.4,4.4,0.6,6.7,0.6s4.5-0.2,6.7-0.6C44.5,33,47.8,27.9,47.8,22z"/>
	<circle class="st5" cx="32.8" cy="22" r="5.8"/>
	<path class="st2" d="M61.6,20.1c1,1.1,1,2.8,0,3.9c-4.2,4.4-15.5,12.1-28.8,12.1S8.3,28.4,4,24c-1-1.1-1-2.8,0-3.9
		C8.3,15.7,19.6,8.5,32.8,8.5S57.4,15.7,61.6,20.1z"/>
</g>
</svg>
