<?xml version="1.0" encoding="utf-8"?>
<!-- Generator: Adobe Illustrator 19.2.0, SVG Export Plug-In . SVG Version: 6.00 Build 0)  -->
<svg version="1.1" id="Layer_1" xmlns="http://www.w3.org/2000/svg" xmlns:xlink="http://www.w3.org/1999/xlink" x="0px" y="0px"
	 viewBox="0 0 388.9 512.4" style="enable-background:new 0 0 388.9 512.4;" xml:space="preserve">
<style type="text/css">
	.st0{fill:#FFFFFF;}
	.st1{opacity:0.65;fill:#FFFFFF;enable-background:new    ;}
</style>
<g>
	<path class="st0" d="M139.5,448.3c-0.2,19-0.4,38-0.5,57c-1.5,0.3-1.5,1.4-1.5,2.5c-3.4,4.3-8.4,3.9-12.5,2.6
		c-4.3-1.3-4.9-6-4.9-10.3c0.1-27.1,0.1-54.1,0-81.2c0-4.4,1.1-8.4,5.1-10.4c4.1-2.1,8.6-1.8,12,1.8c2.4,2.6,4.6,1.9,7.3,0.8
		c16.6-6.8,32.1-4.9,45.8,7c3.2,2.8,5.1,2.3,7.9-0.2c14-12.2,29.9-14.2,46.2-6c15.6,7.8,23.3,21.1,23.2,38.7
		c-0.1,16.4,0,32.8,0,49.1c0,8-3.3,12.1-9.6,12.2c-6.6,0.1-10.2-4.1-10.2-12.4c-0.1-16.2,0-32.3,0-48.5c-0.1-13.8-9.2-23.8-21.7-24
		c-12.3-0.2-22.3,10.6-22.4,24.3c-0.1,15.9,0,31.9,0,47.8c0,9-2.8,12.7-9.5,12.8c-6.9,0.1-10.2-4.1-10.2-13.1
		c-0.1-15.9,0-31.9,0-47.8c0-13-7.9-22.4-19.6-23.8c-10.7-1.3-20.5,6-23.9,18C139,446,139,447,139.5,448.3z"/>
	<path class="st0" d="M0,418.6c0-15.2,0-30.5,0-45.7c0-4.8,2.2-8.5,6.8-10c4.2-1.3,8-0.4,11,3.2c1.9,2.3,2,5,2,7.7
		c0,12.5,0.2,25,0,37.5c-0.1,5,0.5,6.7,5.8,3.5c21.2-12.7,47-9.4,64.5,7.9c16.4,16.2,19.9,42.2,8.4,62.9
		c-10.6,19.1-34.6,30.2-55.7,25.8c-23.1-4.8-40.8-23.8-42.1-46.5c-0.9-15.4-0.2-30.9-0.2-46.3C0.3,418.6,0.1,418.6,0,418.6z
		 M52.5,427.1c-17.8,0-32.6,14.8-32.6,32.6c0,18,15.3,33.2,33.2,32.9c17.6-0.3,32.4-15.5,32.3-33.1C85.2,441.7,70.3,427,52.5,427.1z
		"/>
	<path class="st0" d="M388.8,477.6c0,8-0.1,15.9,0,23.9c0,5.2-2.3,8.8-7.3,10.1c-5.3,1.3-9.8-0.6-11.5-5.9c-1.6-4.9-3.4-3.1-6.2-1.4
		c-30.3,18-68.2,3.2-77.8-30.3c-9.5-33.3,14.8-66.2,49.3-66.8c29.3-0.5,52.8,21.9,53.4,51.2C388.9,464.9,388.8,471.3,388.8,477.6
		C388.8,477.6,388.8,477.6,388.8,477.6z M303.7,459.9c0,17.6,15.1,32.7,32.7,32.6c17.5-0.1,32.9-15.4,32.8-32.7
		c-0.1-17.8-14.9-32.7-32.5-32.8C318.4,427,303.7,441.6,303.7,459.9z"/>
	<path class="st0" d="M139.5,448.3c-0.5-1.2-0.5-2.3,0.8-3.1C141.7,446.6,140.6,447.5,139.5,448.3z"/>
	<path class="st0" d="M137.5,507.8c0-1.2,0-2.3,1.5-2.5C140.4,507.2,138.9,507.5,137.5,507.8z"/>
	<g>
		<path class="st0" d="M25.5,414.9c-5.3,3.2-5.8,1.5-5.8-3.5c0.2-12.5,0-25,0-37.5c0-2.7-0.1-5.4-2-7.7c-3-3.6-6.9-4.6-11-3.2
			c-4.6,1.5-6.8,5.6-6.8,10.4c0,15.2,0,30.1,0,46.1c0.1,0,0.3,0,0.4,0c0,15-0.7,30.5,0.2,45.9c1.3,22.7,19.1,41.5,42.1,46.3
			c21.1,4.4,45.1-6.8,55.7-25.9c11.5-20.7,8-46.8-8.4-63C72.5,405.5,46.7,402.1,25.5,414.9z M53.1,492.5
			c-17.9,0.3-33.2-14.9-33.2-32.9c0-17.8,14.8-32.6,32.6-32.6c17.9,0,32.8,14.6,32.9,32.4C85.5,477.1,70.7,492.3,53.1,492.5z"/>
		<path class="st0" d="M244.4,411.8c-16.3-8.2-32.2-6.2-46.2,6c-2.9,2.5-4.7,3-7.9,0.2c-13.7-11.9-29.1-13.8-45.8-7
			c-2.7,1.1-4.9,1.8-7.3-0.8c-3.4-3.6-7.8-3.9-12-1.8c-4,2-5.1,6-5.1,10.4c0.1,27.1,0.1,54.1,0,81.2c0,4.4,0.7,9,4.9,10.3
			c4,1.3,9,1.6,12.5-2.6c1.4-0.3,2.9-0.6,1.5-2.5c0.2-19,0.4-38,0.5-57c1.1-0.8,2.2-1.6,0.8-3.1c3.5-12,13.2-19.3,23.9-18
			c11.7,1.4,19.6,10.9,19.6,23.8c0.1,15.9,0,31.9,0,47.8c0,9,3.4,13.1,10.2,13.1c6.7-0.1,9.5-3.8,9.5-12.8c0-15.9-0.1-31.9,0-47.8
			c0.1-13.7,10.1-24.4,22.4-24.3c12.5,0.2,21.6,10.2,21.7,24c0.1,16.2,0,32.3,0,48.5c0,8.3,3.6,12.5,10.2,12.4
			c6.3-0.1,9.6-4.2,9.6-12.2c0-16.4,0-32.8,0-49.1C267.7,432.9,259.9,419.6,244.4,411.8z"/>
		<path class="st0" d="M388.8,478.4C388.8,478.4,388.8,478.4,388.8,478.4c0-7,0.1-13.1,0-19.5c-0.7-29.3-24.1-51.9-53.4-51.4
			c-34.6,0.6-58.9,33.4-49.3,66.7c9.6,33.5,47.5,48.3,77.8,30.2c2.8-1.7,4.6-3.6,6.2,1.4c1.7,5.3,6.2,7.2,11.5,5.8
			c5-1.3,7.4-4.5,7.3-9.7C388.8,494,388.8,486.4,388.8,478.4z M336.5,492.5c-17.6,0.1-32.7-15-32.7-32.6c0-18.3,14.7-32.9,33-32.8
			c17.7,0.1,32.4,15,32.5,32.8C369.3,477.1,354,492.5,336.5,492.5z"/>
	</g>
</g>
<path class="st1" d="M198.4,10.2c-9.6-45.7-114.6,75.1-114,102.1s73.9,68.9,90.3,68.3c16.9-1.1,20.3-2.8,20.3-2.8s6.8-4,11.3-14.7
	C214.2,147.4,207.4,55.9,198.4,10.2z"/>
<path class="st1" d="M315.8,61c26-38.9-134.3-27.7-152.4-7.9s3.4,101,15.8,111.7c12.4,11.3,16.4,12.4,16.4,12.4s7.3,1.7,18.6-2.3
	C229.4,169.4,289.8,100,315.8,61z"/>
<path class="st1" d="M360.9,179c45.7-9-75.1-114.6-102.1-113.4c-27.1,0.6-68.9,73.9-68.3,90.3c1.1,16.9,2.8,20.3,2.8,20.3
	s4,6.8,14.7,11.3C223.2,194.8,315.2,188,360.9,179z"/>
<path class="st1" d="M310.7,298c38.9,26,27.7-134.3,7.9-152.4c-19.8-18.6-101,3.4-111.7,15.8c-11.3,12.4-12.4,16.4-12.4,16.4
	s-1.7,7.3,2.3,18.6C202.3,211.7,272.3,272.1,310.7,298z"/>
<path class="st1" d="M189.9,345.5c9,45.7,114.6-75.1,113.4-102.1c-0.6-27.1-73.9-68.9-90.3-68.3c-16.9,1.1-20.3,2.8-20.3,2.8
	s-6.8,4-11.3,14.7C174.7,207.7,180.9,299.7,189.9,345.5z"/>
<path class="st1" d="M73.1,294.1c-26,38.9,134.3,27.7,152.4,7.9c18.6-19.8-3.4-101-15.8-111.7c-12.4-11.3-16.4-12.4-16.4-12.4
	s-7.3-1.7-18.6,2.3C158.9,185.7,98.5,255.2,73.1,294.1z"/>
<path class="st1" d="M27.9,176.7c-45.7,9,75.1,114,102.1,113.4c27.1-0.6,68.9-73.9,68.3-90.3c-1.1-16.9-2.8-20.3-2.8-20.3
	s-4-6.8-14.7-11.3C165.1,160.9,73.7,167.1,27.9,176.7z"/>
<path class="st1" d="M77.6,57.6C38.7,31.7,50,191.4,69.1,210c19.8,18.6,101-3.4,111.7-15.8c11.3-12.4,12.4-16.4,12.4-16.4
	s1.7-7.3-2.3-18.6C186,143.4,116.5,83,77.6,57.6z"/>
</svg>
