<svg xmlns="http://www.w3.org/2000/svg" viewBox="0 0 385.3 160.1">
  <defs>
    <style>
      .a {
        fill: #fff;
      }
    </style>
  </defs>
  <title>bma</title>
  <g>
    <path class="a" d="M78.68,22.27a2.64,2.64,0,0,1-1.94.8H27.64a1,1,0,0,0-1.14,1.14V67.38a1,1,0,0,0,1.14,1.14h29a2.73,2.73,0,0,1,2.74,2.74V88.85a2.73,2.73,0,0,1-2.74,2.74h-29a1,1,0,0,0-1.14,1.14v64.64a2.73,2.73,0,0,1-2.74,2.74h-21a2.63,2.63,0,0,1-1.94-.8,2.63,2.63,0,0,1-.8-1.94V3A2.64,2.64,0,0,1,.8,1,2.64,2.64,0,0,1,2.74.23h74a2.65,2.65,0,0,1,1.94.8A2.65,2.65,0,0,1,79.48,3V20.33A2.64,2.64,0,0,1,78.68,22.27Z"/>
    <path class="a" d="M155.08,157.82L135.44,92a1.34,1.34,0,0,0-1.14-.91H122.42a1,1,0,0,0-1.14,1.14v65.09a2.73,2.73,0,0,1-2.74,2.74h-21a2.73,2.73,0,0,1-2.74-2.74V2.74A2.64,2.64,0,0,1,95.58.8,2.64,2.64,0,0,1,97.52,0h42.94a39.23,39.23,0,0,1,21.35,5.82A39,39,0,0,1,176.2,22.27a55.16,55.16,0,0,1,5.14,24.32q0,14.16-5.48,24.55a36.59,36.59,0,0,1-15.3,15.65,1,1,0,0,0-.69,1.37l22.38,68.75a2.59,2.59,0,0,1,.23,1.14q0,2.06-2.51,2.06H158A2.86,2.86,0,0,1,155.08,157.82ZM121.27,24V69.43a1,1,0,0,0,1.14,1.14h13.93a16.34,16.34,0,0,0,13.36-6.4q5.14-6.39,5.14-17.13,0-11.19-5.14-17.7a16.24,16.24,0,0,0-13.36-6.51H122.42A1,1,0,0,0,121.27,24Z"/>
    <path class="a" d="M279,22.27a2.64,2.64,0,0,1-1.94.8H227.71a1,1,0,0,0-1.14,1.14V67.38a1,1,0,0,0,1.14,1.14h29.23a2.73,2.73,0,0,1,2.74,2.74V88.85a2.73,2.73,0,0,1-2.74,2.74H227.71a1,1,0,0,0-1.14,1.14v43.39a1,1,0,0,0,1.14,1.14H277a2.73,2.73,0,0,1,2.74,2.74v17.36A2.73,2.73,0,0,1,277,160.1H202.81a2.73,2.73,0,0,1-2.74-2.74V3a2.64,2.64,0,0,1,.8-1.94,2.64,2.64,0,0,1,1.94-.8H277A2.65,2.65,0,0,1,279,1a2.65,2.65,0,0,1,.8,1.94V20.33A2.64,2.64,0,0,1,279,22.27Z"/>
    <path class="a" d="M294.17,159.19a2.92,2.92,0,0,1,0-2.28l31.29-76.05a2.15,2.15,0,0,0,0-1.37L294.17,3.43a3.16,3.16,0,0,1-.23-1.37q0-1.83,2.28-1.83h21.7a2.87,2.87,0,0,1,3,2.28l18.27,49.56a0.69,0.69,0,1,0,1.37,0l18-49.56a2.87,2.87,0,0,1,3-2.28H383a2.08,2.08,0,0,1,2.06.91,3,3,0,0,1,0,2.28L353.78,79.48a2.1,2.1,0,0,0,0,1.37l31.29,76.05a3.24,3.24,0,0,1,.23,1.37c0,1.22-.76,1.83-2.28,1.83H361.77a3,3,0,0,1-3.2-2.28l-18-49.33a0.69,0.69,0,1,0-1.37,0l-18.27,49.33a3,3,0,0,1-3.2,2.28H296.22A2.07,2.07,0,0,1,294.17,159.19Z"/>
  </g>
</svg>
